<?xml version="1.0" encoding="utf-8"?>
<!-- Generator: Adobe Illustrator 27.5.0, SVG Export Plug-In . SVG Version: 6.00 Build 0)  -->
<svg version="1.1" xmlns="http://www.w3.org/2000/svg" xmlns:xlink="http://www.w3.org/1999/xlink" x="0px" y="0px"
	 viewBox="0 0 750 500" style="enable-background:new 0 0 750 500;" xml:space="preserve">
<g id="BACKGROUND">
	<rect style="fill:#FFFFFF;" width="750" height="500"/>
</g>
<g id="OBJECTS">
	<g>
		<circle style="fill:#545172;" cx="707.36" cy="415.599" r="4.5"/>
		<circle style="fill:#DDDCE3;" cx="707.36" cy="434.637" r="4.5"/>
		<circle style="fill:#DDDCE3;" cx="707.36" cy="453.676" r="4.5"/>
	</g>
	<g>
		<text transform="matrix(1 0 0 1 30.36 43.9115)" style="fill:#545172; font-family:'Montserrat-Regular'; font-size:8px;">HOME</text>
	</g>
	<text transform="matrix(1 0 0 1 30.36 76.2907)" style="fill:#DDDCE3; font-family:'Montserrat-Regular'; font-size:8px;">PRODUCTS</text>
	<g>
		<text transform="matrix(1 0 0 1 30.36 108.6699)" style="fill:#DDDCE3; font-family:'Montserrat-Regular'; font-size:8px;">REVIEWS</text>
	</g>
	<text transform="matrix(1 0 0 1 30.36 141.0491)" style="fill:#DDDCE3; font-family:'Montserrat-Regular'; font-size:8px;">CONTACT US</text>
	<line style="fill:none;stroke:#DDDCE3;stroke-miterlimit:10;" x1="707.36" y1="394.206" x2="707.36" y2="224.003"/>
	<line style="fill:none;stroke:#DDDCE3;stroke-miterlimit:10;" x1="30.36" y1="344.323" x2="30.36" y2="174.12"/>
	<g>
		<path style="fill:#CDDBF0;" d="M567.416,269.813c-0.316,0-0.627,0.018-0.942,0.024c0.619-4.02,0.942-8.138,0.942-12.332
			c0-44.418-36.008-80.427-80.426-80.427c-11.822,0-23.036,2.572-33.146,7.152c-11.785-42.216-50.523-73.188-96.499-73.188
			c-39.418,0-73.512,22.768-89.866,55.867c-5.721-1.934-11.844-2.998-18.218-2.998c-30.934,0-56.082,24.697-56.846,55.447
			c-33.133,9.942-57.281,40.659-57.281,77.03c0,44.418,36.008,80.427,80.427,80.427s80.427-36.008,80.427-80.427
			c0-2.077-0.104-4.129-0.259-6.167c16.995,13.275,38.381,21.187,61.616,21.187c21.432,0,41.289-6.734,57.58-18.195
			c13.155,26.497,40.476,44.719,72.066,44.719c12.441,0,24.221-2.828,34.737-7.871c5.587,19.987,23.92,34.653,45.69,34.653
			c26.206,0,47.45-21.244,47.45-47.45C614.866,291.057,593.622,269.813,567.416,269.813z"/>
		<path style="fill:#FFFDFF;" d="M260.508,200.068c0.064-0.447,0.109-0.9,0.109-1.365c0-5.276-4.277-9.552-9.552-9.552
			c-0.399,0-0.79,0.032-1.176,0.08c-1.924-7.962-9.076-13.883-17.628-13.883c-7.848,0-14.514,4.99-17.048,11.962
			c-0.364-0.038-0.733-0.059-1.107-0.059c-5.8,0-10.503,4.702-10.503,10.503c0,0.796,0.096,1.569,0.264,2.315H260.508z"/>
		<rect x="177.309" y="208.235" style="fill:#81A6D9;" width="26.294" height="96.949"/>
		<path style="fill:#FFFDFF;" d="M559.821,235.152c0.074-0.515,0.125-1.038,0.125-1.574c0-6.083-4.931-11.013-11.013-11.013
			c-0.46,0-0.911,0.037-1.357,0.092c-2.218-9.179-10.464-16.007-20.324-16.007c-9.049,0-16.733,5.753-19.655,13.792
			c-0.419-0.044-0.845-0.068-1.276-0.068c-6.688,0-12.109,5.421-12.109,12.109c0,0.918,0.111,1.809,0.305,2.669H559.821z"/>
		<rect x="250.284" y="138.548" style="fill:#7BA859;" width="26.294" height="127.949"/>
		<rect x="472.5" y="186.026" style="fill:#F06F76;" width="26.294" height="127.949"/>
		<rect x="537.087" y="244.539" style="fill:#3D5539;" width="26.294" height="94.749"/>
		<path style="fill:#7BA859;" d="M577.364,339.375c1.474-3.63,2.294-7.596,2.294-11.756c0-17.269-14-31.269-31.269-31.269
			c-1.275,0-2.528,0.085-3.763,0.233c-2.336-14.65-15.019-25.848-30.326-25.848c-1.409,0-2.792,0.103-4.151,0.287
			c-4.725-14.709-18.511-25.357-34.79-25.357c-4.264,0-8.353,0.738-12.157,2.08c-8.013-8.818-19.573-14.355-32.426-14.355
			c-24.19,0-43.8,19.61-43.8,43.801c0,14.061,6.633,26.564,16.932,34.579H367.65c0.064-1.244,0.097-2.496,0.097-3.755
			c0-39.932-32.371-72.303-72.303-72.303c-30.395,0-56.392,18.765-67.084,45.335c-0.138-0.105-0.282-0.203-0.422-0.306v2.557
			c-5.924-4.312-13.212-6.862-21.1-6.862c-19.826,0-35.897,16.072-35.897,35.898c0,5.064,1.054,9.88,2.946,14.249
			c-16.289,6.566-27.79,22.51-27.79,41.149c0,3.811,0.482,7.508,1.385,11.037h80.456h5.494h278.304h33.073h55.624
			c0.002-0.155,0.012-0.309,0.012-0.465C600.443,361.516,591.116,346.91,577.364,339.375z M226.731,342.212
			c0.409-0.273,0.809-0.556,1.206-0.845v2.648C227.549,343.404,227.147,342.803,226.731,342.212z"/>
		
			<line style="fill:none;stroke:#3D5539;stroke-width:2.4006;stroke-miterlimit:10;" x1="135.756" y1="378.767" x2="611.725" y2="378.767"/>
		<path style="fill:none;stroke:#EBEAEE;stroke-width:2.4006;stroke-miterlimit:10;" d="M259.603,201.523
			c1.646-2.314,9.28-0.126,21.036,5.533c20.097,9.673,52.241,29.487,87.112,54.287c33.548,23.859,61.909,46.849,78.022,62.637
			c10.433,10.222,15.731,17.424,13.978,19.888"/>
		<path style="fill:#81A6D9;" d="M318.045,152.642c0,0-9.202,3.201-11.503,4.101c-2.301,0.9-4.696,2.283-4.696,2.283l-10.208,27.024
			l2.151,1l21.455,24.981l48.812-21.98c0,0-4.201-15.604-10.002-23.806c-5.802-8.202-17.264-13.603-17.264-13.603H318.045z"/>
		<polygon style="fill:#E58C7E;" points="445.777,298.979 439.175,279.786 432.574,308.581 450.12,312.332 		"/>
		<path style="fill:#F7C4A5;" d="M312.844,192.902l-19.055-5.851c0,0-1.05,13.803,0,18.005c1.05,4.201,3.601,4.501,7.502,5.401
			C305.192,211.357,312.844,192.902,312.844,192.902z"/>
		
			<ellipse transform="matrix(0.7071 -0.7071 0.7071 0.7071 -81.8438 335.404)" style="fill:#F06F76;" cx="363.947" cy="266.496" rx="88.532" ry="88.532"/>
		<ellipse style="opacity:0.2;fill:#3C3966;" cx="363.947" cy="393.711" rx="66.722" ry="8.242"/>
		<ellipse style="opacity:0.2;fill:#3C3966;" cx="208.868" cy="400.278" rx="54.519" ry="6.734"/>
		<ellipse style="opacity:0.2;fill:#3C3966;" cx="389.534" cy="419.489" rx="54.519" ry="6.734"/>
		<ellipse style="opacity:0.2;fill:#3C3966;" cx="490.288" cy="396.203" rx="54.519" ry="6.734"/>
		<path style="opacity:0.3;fill:#3C3966;" d="M452.427,264.449c-0.421-18.506-6.512-35.601-16.615-49.628
			c-12.217,5.368-21.542,12.99-21.542,12.99S441.215,240.752,452.427,264.449z"/>
		<path style="opacity:0.3;fill:#3C3966;" d="M383.538,313.694c-47.615,0-88.322-29.571-104.761-71.35
			c-2.174,7.681-3.363,15.775-3.363,24.152c0,48.895,39.637,88.532,88.532,88.532c39.612,0,73.141-26.018,84.447-61.895
			C430.062,306.083,407.69,313.694,383.538,313.694z"/>
		<path style="fill:#EBEAEE;" d="M322.346,147.541c0,0-3.001,0.2-4.501,1.5c-1.5,1.3-3.596,4.929-3.596,4.929
			s1.996,3.473,6.297,7.274c4.301,3.801,7.302,6.402,7.302,6.402l3.401-5.601l4.501,7.702v9.802h3.301v-10.203l2.601-5.801
			l1.8,2.301c0,0,2.528-4.645,2.965-7.224c0.436-2.579-2.439-5.179-2.439-5.179l-3.826-4.301L322.346,147.541z"/>
		<path style="fill:#935771;" d="M321.246,135.888c0,0-3.751-5.852-4.201-10.053c-0.45-4.201,3.751-12.603,7.202-15.004
			c3.451-2.401,6.302-1.8,6.302-1.8s4.501-4.601,10.103-2.701c5.601,1.901,12.003,10.303,14.404,16.704
			c2.401,6.402,1.6,9.502,0,9.802c-1.6,0.3-2.1-1.6-2.1-1.6s-1.1,4.301-7.502,5.301C339.05,137.538,321.246,135.888,321.246,135.888
			z"/>
		<path style="fill:#3F3D56;" d="M471.884,263.645c0,0,1.249-7.951,8.702-10.178c6.665-1.991,14.964,2.264,17.504,8.402
			c2.767,6.687,1.1,16.738-4.201,19.939C488.588,285.009,471.884,263.645,471.884,263.645z"/>
		<path style="fill:#545172;" d="M517.12,364.545l2.026-1.65l9.902,0.375c0,0,1.5,19.58,1.575,21.23
			c0.075,1.65-0.45,8.927-0.45,8.927l-2.754,0.269c-1.319,0.129-2.555-0.659-2.994-1.909l-3.753-10.688L517.12,364.545z"/>
		<path style="fill:#545172;" d="M453.879,388.301l-10.113,3.822c-1.469,0.555-2.275,2.136-1.862,3.651l0.472,1.729h29.107
			l1.7-10.003l-3.101-2.801L453.879,388.301z"/>
		<path style="fill:#F06F76;" d="M467.983,346.841c0,0-25.707-7.486-29.708-6.619c-4.001,0.867-8.202,8.93-8.602,11.9
			c-0.4,2.97,24.206,36.179,24.206,36.179l16.204-3.601l-17.604-24.406l22.806,6.802c0,0-4.801,28.007-3.801,29.207
			c1,1.2,10.003,4.801,14.004,3.801c4.001-1,35.186-19.005,35.186-19.005s0.423-5.515-0.927-10.884
			c-1.35-5.37-2.251-8.07-2.251-8.07l-16.954,9.002c0,0,9.152-24.006,2.551-30.308C496.49,334.538,467.983,346.841,467.983,346.841z
			"/>
		<path style="fill:#545172;" d="M492.964,284.875c0,0,8.027,6.602,10.277,12.303c2.251,5.701,2.251,25.806,2.251,32.408
			c0,6.602,2.551,10.203,2.1,14.254s-19.055,8.702-27.607,8.252c-8.552-0.45-12.003-5.251-12.003-5.251l-3.301-40.66l-12.903,11.253
			l-6.001-18.455c0,0,13.353-10.653,18.004-13.203c4.651-2.551,9.302-3.967,9.302-3.967L492.964,284.875z"/>
		<path style="fill:#3F3D56;" d="M489.288,339.339c6.152-9.152,11.253-27.007,11.253-27.007l-10.253,12.453l-13.577,4.651
			l-10.095,0.575l1.366,16.829c0,0,3.245,4.482,11.199,5.182C481.106,350.039,484.97,345.764,489.288,339.339z"/>
		<path style="fill:#6F4C61;" d="M218.12,220.559c0,0,7.102,12.603,19.105,18.305c12.003,5.701,22.706,6.802,22.706,6.802
			s-1.5-7.402,0.8-15.304c2.301-7.902,3.201-10.903,2.301-15.504c-0.9-4.601-4.601-7.602-4.601-7.602s-6.51-7.944-13.963-5.701
			C232.561,205.136,230.073,217.458,218.12,220.559z"/>
		<path style="fill:#3F3D56;" d="M188.913,299.279c0,0,4.701,16.004,11.303,23.806c6.602,7.802,12.603,13.803,12.603,13.803
			l-21.559,38.91h18.558l19.005-42.511l-21.005-32.208L188.913,299.279z"/>
		<path style="fill:#545172;" d="M234.024,302.48c0,0,16.404,27.407,16.404,32.508c0,5.101-24.606,40.81-24.606,40.81h-23.406
			l21.005-40.81c0,0-30.308-21.605-32.108-33.908C189.513,288.776,234.024,302.48,234.024,302.48z"/>
		<path style="fill:#F7C4A5;" d="M256.204,212.032c0,0,1.575,3.226,1.375,6.477c-0.2,3.251-1.413,6.914-1.413,6.914
			s1.714,4.426,1.438,4.951c-0.275,0.525-4.514,0.413-4.514,0.413s-2.476,6.152-3.038,6.564c-0.563,0.413-6.827-1.688-6.827-1.688
			l-2.776,7.127l-9.152-8.402l6.227-8.702c0,0-2.776-0.525-3.001-3.451c-0.225-2.926,1.452-4.507,3.451-4.951
			c2.025-0.45,3.485,1.24,3.485,1.24S249.378,217.883,256.204,212.032z"/>
		<path style="fill:#FFC672;" d="M231.298,234.387c0,0-4.976,0.2-9.577,2.476c-4.601,2.275-9.502,8.802-14.704,17.004
			c-5.201,8.202-9.402,14.404-14.604,23.206c-5.201,8.802-7.802,16.804-5.001,23.006c2.801,6.202,14.204,6.001,23.406,6.802
			s21.964-0.8,23.206-4.401c1.242-3.601-2.851-8.402-2.726-14.004c0.125-5.601,10.728-16.204,11.528-22.005
			c0.8-5.802-2.376-23.681-2.376-23.681L231.298,234.387z"/>
		<path style="fill:#BF9556;" d="M219.02,263.47c0,0,5.553,22.892,13.909,32.342c-0.814-2.241-1.69-4.698-1.631-7.336
			c0.063-2.816,2.774-6.896,5.556-10.994L219.02,263.47z"/>
		<path style="fill:#FFC672;" d="M231.298,248.666l16.129,28.407l16.004-10.803l6.402,13.403c0,0-18.836,15.349-22.806,15.404
			c-3.969,0.055-28.007-31.608-28.007-31.608L231.298,248.666z"/>
		<path style="fill:#F7C4A5;" d="M263.431,266.271c0,0,6.051-3.001,8.152-3.601c2.1-0.6,3.526-0.6,3.526-0.6
			s5.851-0.825,7.202-0.375c1.35,0.45,5.626,3.976,5.626,4.576c0,0.6-1.275,1.5-3.451,0.375c-2.176-1.125-2.176-1.125-2.176-1.125
			l-4.276-0.3c0,0,3.826,3.076,4.126,3.751c0.3,0.675-0.15,2.326-1.125,3.976c-0.975,1.65-2.776,3.976-4.351,5.026
			c-1.575,1.05-2.926,0.6-3.301-0.75s1.655-2.522,1.655-2.522l-0.905-1.754l-3.076-0.225l-3.83,1.499L263.431,266.271z"/>
		<path style="fill:#E58C7E;" d="M243.226,235.663c0,0-1.958-1.101-3.609-3.502c-1.65-2.401-2.043-4.35-2.043-4.35l2.876,14.979
			L243.226,235.663z"/>
		<polygon style="fill:#E58C7E;" points="198.008,375.798 192.757,390.502 205.96,390.502 216.162,375.798 		"/>
		<polygon style="fill:#F7C4A5;" points="204.066,375.798 198.815,390.502 212.018,390.502 222.221,375.798 		"/>
		<path style="fill:#6F4C61;" d="M192.757,390.502c0,0-1.65,1.8-2.101,2.401c-0.45,0.6,0,9.002,0,9.002h31.494l0,0
			c1.484-2.448,0.154-5.631-2.63-6.297l-13.56-5.106H192.757z"/>
		<path style="fill:#F06F76;" d="M198.815,390.502c0,0-1.65,1.8-2.1,2.401c-0.45,0.6,0,9.002,0,9.002h31.494l0,0
			c1.484-2.448,0.154-5.631-2.63-6.297l-13.559-5.106H198.815z"/>
		<path style="fill:none;stroke:#3F3D56;stroke-width:1.2003;stroke-miterlimit:10;" d="M255.887,224.253
			c-2.064,2.759-4.241,4.619-4.863,4.154c-0.622-0.465,0.547-3.079,2.61-5.839c2.064-2.759,4.241-4.619,4.863-4.154
			C259.119,218.879,257.951,221.493,255.887,224.253z"/>
		
			<line style="fill:none;stroke:#3F3D56;stroke-width:1.2003;stroke-linecap:round;stroke-miterlimit:10;" x1="252.667" y1="223.952" x2="244.427" y2="216.308"/>
		<path style="fill:#F7C4A5;" d="M471.884,263.645c0,0-1.125,3.826-1.35,5.852c-0.225,2.026,0,3.151,0,3.151s-0.9,3.451-1.05,6.001
			c-0.15,2.551,0.825,7.052,1.2,8.327c0.375,1.275,1.65,2.926,1.65,2.926s-1.5,4.801,2.175,5.851
			c3.676,1.05,10.503-2.926,12.828-4.576c2.326-1.65,5.626-6.302,5.626-6.302s1.575-0.882,2.701-3.067
			c1.125-2.185-0.256-4.341-1.725-4.51c-1.469-0.169-2.596,0.482-2.596,0.482l0.875-5.144c0.288-1.697-0.844-3.309-2.539-3.613
			l-8.691-1.559C477.71,266.875,474.601,265.572,471.884,263.645L471.884,263.645z"/>
		<path style="fill:#E58C7E;" d="M489.282,285.364c0,0-4.742,5.445-10.646,6.063c-4.301,0.45-6.302-1.525-6.302-1.525
			s-1.5,4.801,2.175,5.851c3.676,1.05,10.472-2.97,12.828-4.576c2.953-2.013,5.626-6.302,5.626-6.302
			C490.899,286.067,489.282,285.364,489.282,285.364z"/>
		<path style="fill:#F7C4A5;" d="M480.986,315.683l9.302,9.102c0,0-11.003,12.703-12.403,14.004c-1.4,1.3-4.001,2.201-7.902,0.5
			c-3.901-1.701-19.105-18.005-19.105-18.005l-8.302-3.801c0,0-4.376,0.25-5.426,0.55c-1.05,0.3-2.926,1.275-3.976,1.575
			c-1.05,0.3-1.988-0.075-1.763-0.788c0.225-0.713,2.673-2.126,3.658-2.694c0.985-0.569,4.219-1.432,4.557-1.994
			c0.338-0.563-1.2-1.5-2.326-1.613c-1.125-0.113-3.563,0.15-4.351,0.3c-0.788,0.15-3.038,1.125-3.751,1.125
			c-0.713,0-1.313-0.505-0.563-1.453c0.75-0.948,3.615-2.602,3.615-2.602s-5.228,0.979-5.565,0.266
			c-0.338-0.713,0.638-2.025,2.551-2.926c1.913-0.9,6.001-1.5,6.564-1.725c0.563-0.225,4.013-0.263,4.164-0.563
			c0.15-0.3-1.613-1.838-3.638-1.988c-2.025-0.15-5.926-0.375-6.752-1.463s-0.675-1.963,0.338-2.038
			c1.013-0.075,5.889,0.563,7.164,0.525s6.527,1.85,7.052,2.301c0.525,0.45,9.452,10.803,9.452,10.803l17.404,11.303
			L480.986,315.683z"/>
		<polygon style="fill:#6F4C61;" points="475.284,367.096 476.711,358.394 452.479,360.294 		"/>
		<path style="fill:#6F4C61;" d="M500.541,371.147c0,0-7.202,15.154-9.002,17.854c-1.801,2.701,7.475-3.301,12.003-12.003
			c3.252-6.25,3.151-9.118,3.151-9.118L500.541,371.147z"/>
		<path style="fill:#F7C4A5;" d="M335.799,121.484c0,0,8.438-0.6,10.221,5.251c1.782,5.852,1.332,8.702,1.332,8.702
			s0.111,4.651-1.332,7.802c-1.443,3.151-4.269,6.887-5.369,7.795s-1.1,0.907-1.1,0.907v8.502c0,0-2.701,8.802-2.701,8.302
			c0-0.5-2.401-8.602-2.401-8.602s-5.801-1.801-9.102-4.101c-3.301-2.301-5.501-5.601-5.501-5.601s2.401-2.401,2.801-6.001
			c0.4-3.601,0.6-4.901,0.6-4.901s-2.076-0.275-3.051-2.451c-0.975-2.176-0.675-3.751,1.05-4.576
			c1.725-0.825,3.901,1.575,3.901,1.575S334.674,130.186,335.799,121.484z"/>
		<path style="fill:#E58C7E;" d="M339.55,151.942c0,0-1.95,0.375-5.176-2.025c-3.226-2.401-8.777-8.552-8.777-8.552
			s0.375,8.29,7.504,13.855c4.067,3.175,6.45,2.724,6.45,2.724V151.942z"/>
		<path style="fill:#F7C4A5;" d="M317.012,191.104c0,0,5.83-6.597,8.029-8.246c2.199-1.649,2.993-3.237,4.642-3.848
			c1.649-0.611,5.314-1.161,7.208,0c1.894,1.161,3.931,5.436,4.867,7.33c0.936,1.894,1.73,3.115,1.669,3.726
			c-0.061,0.611-2.016,0.977-3.115-0.122c-1.1-1.099-5.559-6.658-5.559-6.658s3.848,8.368,3.909,9.529
			c0.061,1.161-0.977,1.955-1.894,1.588c-0.916-0.366-1.283-1.099-1.283-1.099s0.305,1.099-0.672,1.71
			c-0.977,0.611-1.894-0.367-2.688-1.222c-0.794-0.855-4.764-5.925-4.764-5.925s2.908,5.925,2.859,6.78
			c-0.049,0.855-1.393,1.603-2.615,0.557c-1.222-1.046-4.581-5.871-4.581-5.871L317.012,191.104z"/>
		<path style="fill:none;stroke:#3F3D56;stroke-width:1.2003;stroke-miterlimit:10;" d="M340.851,135.664
			c0,2.913-2.246,5.275-5.018,5.275c-2.771,0-5.017-2.362-5.017-5.275s2.246-5.275,5.017-5.275
			C338.604,130.389,340.851,132.751,340.851,135.664z"/>
		
			<ellipse style="fill:none;stroke:#3F3D56;stroke-width:1.2003;stroke-miterlimit:10;" cx="346.557" cy="135.664" rx="4.171" ry="5.275"/>
		
			<line style="fill:none;stroke:#3F3D56;stroke-width:1.2003;stroke-miterlimit:10;" x1="342.386" y1="135.664" x2="340.851" y2="135.664"/>
		
			<line style="fill:none;stroke:#3F3D56;stroke-width:1.2003;stroke-linecap:round;stroke-miterlimit:10;" x1="330.816" y1="135.664" x2="325.597" y2="133.187"/>
		<circle style="fill:#81A6D9;" cx="427.459" cy="199.761" r="30.994"/>
		<path style="fill:#FFC672;" d="M452.361,237.326c0,3.041-2.466,5.507-5.507,5.507c-3.041,0-5.507-2.465-5.507-5.507
			s2.466-5.507,5.507-5.507C449.895,231.819,452.361,234.284,452.361,237.326z"/>
		<path style="fill:#477A9B;" d="M427.584,212.913c0,3.041-2.465,5.507-5.507,5.507c-3.041,0-5.507-2.466-5.507-5.507
			s2.466-5.507,5.507-5.507C425.119,207.406,427.584,209.871,427.584,212.913z"/>
		<path style="fill:none;stroke:#EBEAEE;stroke-width:2.4006;stroke-miterlimit:10;" d="M445.774,323.979
			c10.433,10.222,15.731,17.424,13.978,19.888c-4.459,6.27-52.879-20.512-108.149-59.82c-55.27-39.307-96.46-76.255-92.001-82.525
			c1.646-2.314,9.28-0.126,21.036,5.533"/>
		<g>
			<polygon style="fill:#3F3D56;" points="391.981,288.742 416.894,407.852 395.147,407.852 372.827,317.429 372.827,407.852 
				353.655,407.852 350.412,290.149 			"/>
			<path style="fill:#F7C4A5;" d="M377.31,187.708c0,0,0.858,1.717,2.671,4.197c1.812,2.48,1.812,2.671,1.812,3.529
				c0,0.858-0.954,2.861-0.954,2.861s2.48,6.2,2.48,8.584c0,2.385-9.061,5.914-9.061,5.914l0.572,8.108h-18.981l6.009-33.193H377.31
				z"/>
			<path style="fill:#3F3D56;" d="M371.874,208.978c0,0-3.005-0.095-4.101-3.052c-1.097-2.957,0.487-4.322,1.531-4.474
				c1.044-0.152,4.669,1.454,4.669,1.454l0.572-1.94c0,0-1.717-1.526-0.858-5.914c0.858-4.388,2.88-6.19,5.723-8.68
				c4.284-3.753,4.102-10.111,3.338-11.732c-0.763-1.622-5.628,1.145-12.114,0.858c-6.486-0.286-12.877-1.812-17.551,0.477
				c-4.674,2.289-6.486,7.726-6.868,11.064c-0.382,3.338,0.858,5.437,0.858,5.437s-2.098,5.788,0,10.429
				C349.172,207.547,355.428,218.473,371.874,208.978z"/>
			<polygon style="fill:#D9D8DD;" points="354.085,220.901 352.654,226.863 378.121,226.863 376.261,220.901 			"/>
			<path style="fill:#EBEAEE;" d="M352.654,226.863l-9.109,6.82c0,0-6.105,33.956-5.723,38.535c0.382,4.578,4.006,5.341,5.723,5.723
				c1.717,0.382,4.388,0,4.388,0s-2.926,4.006-2.703,7.058c0.223,3.052,5.183,5.151,5.183,5.151h38.535c0,0,7.821-2.862,7.058-6.295
				c-0.763-3.434-3.434-11.446-3.434-11.446s3.093,6.048,9.368,5.409c6.275-0.639,8.183-6.172,8.946-12.276
				c0.763-6.105,2.862-27.661,2.862-27.661l-11.064-4.578l-4.96,14.117c0,0-8.012-15.834-10.111-17.551
				c-2.098-1.717-9.491-3.005-9.491-3.005H352.654z"/>
			<path style="fill:#3F3D56;" d="M395.147,407.852l-1.431,3.052v8.585h35.864v-3.7c0-1.795-1.1-3.407-2.772-4.061l-9.913-3.876
				H395.147z"/>
			<path style="fill:#3F3D56;" d="M353.56,407.852l-1.431,3.052v8.585h33.289v-3.7c0-1.795-1.1-3.407-2.772-4.061l-9.913-3.876
				H353.56z"/>
			<path style="fill:#D9D8DD;" d="M392.572,272.408l-11.255-17.169c0,0,7.631,19.84,8.775,22.892
				c0.775,2.067,3.754,3.641,5.599,4.444C394.688,278.76,392.572,272.408,392.572,272.408z"/>
			<path style="fill:#D9D8DD;" d="M397.722,247.417c0,0,4.149,7.249,5.866,11.088c1.717,3.839,2.432,6.128,2.432,6.128
				s-1.41-16.57-5.189-26.066L397.722,247.417z"/>
			<path style="fill:#D9D8DD;" d="M347.932,277.94c0,0,2.385-6.581,2.48-16.167c0.095-9.586-6.867-28.09-6.867-28.09l-1.786,10.251
				c0,0,2.767,3.532,4.327,9.398C347.646,259.197,349.506,270.5,347.932,277.94z"/>
			<path style="fill:#F7C4A5;" d="M403.593,233.678c0,0,1.426-3.31,1.999-6.028s1.073-5.651,1.288-6.438
				c0.215-0.787,2.671-2.205,4.603-3.32c1.931-1.115,9.347-4.978,10.134-4.978s0.501,2.075-0.358,2.933
				c-0.858,0.858-5.723,4.221-5.723,4.221s3.291,2.432,3.648,3.219c0.358,0.787,1.574,7.512,2.003,8.441
				c0.429,0.93-2.861,1.612-4.149,1.951c-1.288,0.339-2.218,0-2.218,0l-2.411,3.648L403.593,233.678z"/>
		</g>
		<circle style="fill:#709951;" cx="186.269" cy="332.177" r="2.325"/>
		<path style="fill:#709951;" d="M164.907,358.394c0,2.486-2.015,4.501-4.501,4.501s-4.501-2.015-4.501-4.501
			s2.015-4.501,4.501-4.501S164.907,355.908,164.907,358.394z"/>
		<circle style="fill:#709951;" cx="250.607" cy="305.865" r="2.06"/>
		<circle style="fill:#709951;" cx="420.271" cy="367.096" r="2.401"/>
		<path style="fill:#709951;" d="M421.671,348.091c0,0.773-0.627,1.4-1.4,1.4s-1.4-0.627-1.4-1.4s0.627-1.4,1.4-1.4
			S421.671,347.318,421.671,348.091z"/>
		<path style="fill:#709951;" d="M517.12,291.913c0,0.836-0.677,1.513-1.513,1.513c-0.836,0-1.513-0.677-1.513-1.513
			c0-0.836,0.677-1.513,1.513-1.513C516.443,290.4,517.12,291.078,517.12,291.913z"/>
		<path style="fill:#709951;" d="M568.151,336.2c0,2.221-1.801,4.022-4.023,4.022c-2.221,0-4.022-1.801-4.022-4.022
			s1.801-4.022,4.022-4.022C566.35,332.177,568.151,333.978,568.151,336.2z"/>
		<path style="fill:#709951;" d="M533.883,351.117c0,0.898-0.728,1.626-1.626,1.626c-0.898,0-1.626-0.728-1.626-1.626
			c0-0.898,0.728-1.626,1.626-1.626C533.155,349.491,533.883,350.219,533.883,351.117z"/>
		<path style="fill:#709951;" d="M574.149,362.745c0,1.195-0.969,2.164-2.164,2.164c-1.195,0-2.164-0.969-2.164-2.164
			c0-1.195,0.969-2.164,2.164-2.164C573.18,360.581,574.149,361.55,574.149,362.745z"/>
		<path style="fill:#D7E2F3;" d="M142.718,246.037c0,1.165-0.944,2.109-2.109,2.109c-1.165,0-2.109-0.944-2.109-2.109
			s0.944-2.109,2.109-2.109C141.774,243.928,142.718,244.872,142.718,246.037z"/>
		<circle style="fill:#D7E2F3;" cx="214.612" cy="231.889" r="3.411"/>
		<path style="fill:#D7E2F3;" d="M151.305,298.686c0,1.438-1.166,2.605-2.605,2.605c-1.438,0-2.605-1.166-2.605-2.605
			c0-1.438,1.166-2.605,2.605-2.605C150.139,296.082,151.305,297.248,151.305,298.686z"/>
		<circle style="fill:#D7E2F3;" cx="285.876" cy="130.389" r="2.061"/>
		<circle style="fill:#D7E2F3;" cx="378.121" cy="128.328" r="3.15"/>
		<path style="fill:#D7E2F3;" d="M442.797,140.939c0,0.801-0.649,1.45-1.45,1.45c-0.801,0-1.45-0.649-1.45-1.45
			s0.649-1.45,1.45-1.45C442.148,139.489,442.797,140.138,442.797,140.939z"/>
		<circle style="fill:#D7E2F3;" cx="386.733" cy="162.244" r="2.801"/>
		<circle style="fill:#D7E2F3;" cx="523.875" cy="165.045" r="3.204"/>
		<path style="fill:#D7E2F3;" d="M510.023,246.037c0,1.313-1.064,2.377-2.377,2.377c-1.313,0-2.377-1.064-2.377-2.377
			s1.064-2.377,2.377-2.377C508.959,243.66,510.023,244.724,510.023,246.037z"/>
		<path style="fill:#D7E2F3;" d="M581.405,237.787c0,1.02-0.827,1.848-1.848,1.848s-1.848-0.827-1.848-1.848
			c0-1.02,0.827-1.847,1.848-1.847S581.405,236.767,581.405,237.787z"/>
		<path style="fill:#D7E2F3;" d="M592.055,309.222c0,1.02-0.827,1.848-1.848,1.848c-1.02,0-1.848-0.827-1.848-1.848
			c0-1.02,0.827-1.848,1.848-1.848C591.228,307.374,592.055,308.201,592.055,309.222z"/>
		<circle style="fill:#D7E2F3;" cx="620.991" cy="308.549" r="2.47"/>
		<rect x="266.913" y="298.686" style="fill:#FFC672;" width="52.818" height="52.818"/>
		<rect x="272.655" y="309.222" style="fill:#BF9556;" width="41.333" height="4.167"/>
		<rect x="272.655" y="323.012" style="fill:#BF9556;" width="41.333" height="4.167"/>
		<rect x="272.655" y="336.802" style="fill:#BF9556;" width="41.333" height="4.167"/>
	</g>
</g>
<g id="DESIGNED_BY_FREEPIK">
	<g>
		<g id="XMLID_319_">
			<g id="XMLID_338_">
				<path id="XMLID_346_" style="fill:#1D262D;" d="M385.104,465.465c-0.432,0.443-0.803,0.931-1.108,1.453l-0.465-0.241
					c-0.067-0.298-0.349-0.503-0.659-0.466c-0.331,0.039-0.568,0.339-0.529,0.67c0.039,0.331,0.339,0.568,0.67,0.529
					c0.066-0.008,0.127-0.026,0.184-0.052l0.451,0.234c-0.251,0.554-0.433,1.139-0.539,1.744l0.747,0.132
					c0.23-1.306,0.85-2.507,1.792-3.473L385.104,465.465z"/>
				<path id="XMLID_345_" style="fill:#1D262D;" d="M390.592,463.163c-0.171,0-0.341,0.006-0.51,0.017l-0.074-0.626
					c0.188-0.149,0.296-0.389,0.266-0.645c-0.046-0.393-0.402-0.674-0.795-0.628c-0.393,0.046-0.674,0.402-0.628,0.795
					c0.03,0.254,0.189,0.461,0.404,0.564l0.074,0.624c-0.714,0.116-1.403,0.332-2.06,0.646l0.327,0.684
					c0.934-0.447,1.942-0.673,2.995-0.673c0.496,0,0.993,0.053,1.475,0.158l0.161-0.741
					C391.692,463.222,391.142,463.163,390.592,463.163z"/>
				<path id="XMLID_344_" style="fill:#1D262D;" d="M397.194,465.711c0.331-0.04,0.566-0.341,0.526-0.672
					c-0.04-0.331-0.341-0.566-0.672-0.526c-0.309,0.038-0.535,0.304-0.53,0.609l-0.416,0.363c-0.418-0.43-0.889-0.813-1.408-1.139
					l-0.404,0.641c1.134,0.715,2.021,1.726,2.563,2.925l0.69-0.313c-0.251-0.554-0.567-1.072-0.942-1.545l0.402-0.351
					C397.065,465.716,397.129,465.719,397.194,465.711z"/>
				<path id="XMLID_343_" style="fill:#1D262D;" d="M390.044,473.372c-0.386,0.023-0.775,0.035-1.157,0.035
					c-0.88,0-1.733-0.061-2.478-0.179c-0.39-0.062-0.846-0.155-1.27-0.292c1.046,1.861,3.069,3.125,5.388,3.125
					c2.855,0,5.262-1.916,5.95-4.504c-0.682,0.449-1.505,0.825-2.459,1.123C392.839,473.047,391.463,473.286,390.044,473.372z"/>
				<path id="XMLID_339_" style="fill:#1D262D;" d="M390.592,464.68c-3.352,0-6.08,2.666-6.08,5.943
					c0,0.426,0.046,0.849,0.137,1.261c0.673,0.483,2.706,0.89,5.348,0.731c2.879-0.173,5.297-0.957,6.672-2.159
					c-0.006-0.195-0.021-0.39-0.045-0.582C396.244,466.913,393.65,464.68,390.592,464.68z M388.432,471.194
					c-1.02,0-1.85-0.83-1.85-1.85c0-1.02,0.83-1.85,1.85-1.85c1.02,0,1.85,0.83,1.85,1.85
					C390.282,470.365,389.452,471.194,388.432,471.194z M393.17,470.286c-0.75,0-1.36-0.61-1.36-1.36s0.61-1.361,1.36-1.361
					c0.75,0,1.361,0.61,1.361,1.361S393.92,470.286,393.17,470.286z"/>
			</g>
			<path id="XMLID_336_" style="fill:#1D262D;" d="M406.595,466.547c-0.295-0.116-0.805-0.309-1.382-0.237
				c-0.551,0.069-0.844,0.341-0.844,1.007v0.866h2.228v1.717h-2.228v5.455h-1.932v-5.455h-1.34v-1.717h1.34v-0.888
				c0-1.68,0.896-2.783,2.568-2.783c0.643,0,1.157,0.122,1.59,0.308L406.595,466.547z"/>
			<path id="XMLID_334_" style="fill:#1D262D;" d="M411.298,469.879c-0.177-0.03-0.358-0.046-0.526-0.046
				c-0.896,0-1.51,0.548-1.51,1.614v3.908h-1.932v-7.172h1.873v0.785c0.451-0.673,1.14-0.977,2.021-0.977
				c0.414,0,0.848,0.128,1.094,0.337L411.298,469.879z"/>
			<path id="XMLID_331_" style="fill:#1D262D;" d="M418.965,471.757c0,0.222-0.015,0.489-0.037,0.651h-5.085
				c0.207,1.036,0.933,1.488,1.843,1.488c0.622,0,1.295-0.252,1.813-0.688l1.133,1.243c-0.814,0.748-1.85,1.088-3.057,1.088
				c-2.198,0-3.723-1.495-3.723-3.753c0-2.258,1.48-3.797,3.627-3.797C417.544,467.99,418.958,469.522,418.965,471.757z
				 M413.851,471.091h3.175c-0.177-0.918-0.733-1.436-1.562-1.436C414.554,469.655,414.021,470.203,413.851,471.091z"/>
			<path id="XMLID_328_" style="fill:#1D262D;" d="M426.618,471.757c0,0.222-0.015,0.489-0.037,0.651h-5.085
				c0.207,1.036,0.932,1.488,1.843,1.488c0.622,0,1.295-0.252,1.814-0.688l1.132,1.243c-0.814,0.748-1.85,1.088-3.057,1.088
				c-2.198,0-3.723-1.495-3.723-3.753c0-2.258,1.48-3.797,3.627-3.797C425.197,467.99,426.611,469.522,426.618,471.757z
				 M421.504,471.091h3.175c-0.178-0.918-0.733-1.436-1.562-1.436C422.207,469.655,421.674,470.203,421.504,471.091z"/>
			<path id="XMLID_325_" style="fill:#1D262D;" d="M434.964,471.764c0,2.154-1.495,3.775-3.471,3.775
				c-0.962,0-1.643-0.378-2.109-0.933v3.708h-1.924v-10.133h1.887v0.792c0.466-0.585,1.155-0.984,2.139-0.984
				C433.469,467.99,434.964,469.61,434.964,471.764z M429.287,471.764c0,1.132,0.747,1.976,1.843,1.976
				c1.14,0,1.85-0.881,1.85-1.976c0-1.095-0.71-1.976-1.85-1.976C430.035,469.788,429.287,470.632,429.287,471.764z"/>
			<path id="XMLID_322_" style="fill:#1D262D;" d="M438.068,465.836c0,0.696-0.54,1.229-1.236,1.229
				c-0.696,0-1.229-0.533-1.229-1.229c0-0.696,0.533-1.243,1.229-1.243C437.527,464.592,438.068,465.14,438.068,465.836z
				 M437.809,475.354h-1.932v-7.172h1.932V475.354z"/>
			<path id="XMLID_320_" style="fill:#1D262D;" d="M441.032,470.736l2.701-2.554h2.368l-3.479,3.375l3.501,3.797h-2.376
				l-2.716-2.901v2.901H439.1v-10.658h1.932V470.736z"/>
		</g>
		<g>
			<path style="fill:#1D262D;" d="M309.412,475.289v-1.055c-0.527,0.718-1.391,1.23-2.387,1.23c-1.846,0-3.149-1.406-3.149-3.706
				c0-2.256,1.289-3.721,3.149-3.721c0.952,0,1.816,0.469,2.387,1.245v-3.765h1.099v9.77H309.412z M309.412,473.37v-3.208
				c-0.395-0.615-1.245-1.143-2.124-1.143c-1.421,0-2.27,1.172-2.27,2.739c0,1.567,0.85,2.724,2.27,2.724
				C308.168,474.483,309.017,473.986,309.412,473.37z"/>
			<path style="fill:#1D262D;" d="M311.932,471.744c0-2.051,1.465-3.706,3.486-3.706c2.139,0,3.398,1.67,3.398,3.794v0.279h-5.727
				c0.088,1.333,1.026,2.446,2.549,2.446c0.805,0,1.626-0.322,2.182-0.894l0.527,0.718c-0.703,0.703-1.655,1.084-2.812,1.084
				C313.44,475.465,311.932,473.956,311.932,471.744z M315.404,468.947c-1.509,0-2.256,1.274-2.315,2.358h4.643
				C317.718,470.25,317.015,468.947,315.404,468.947z"/>
			<path style="fill:#1D262D;" d="M319.607,474.351l0.571-0.791c0.469,0.542,1.362,1.011,2.329,1.011c1.084,0,1.67-0.513,1.67-1.216
				c0-1.714-4.38-0.659-4.38-3.281c0-1.098,0.952-2.036,2.636-2.036c1.201,0,2.051,0.454,2.622,1.026l-0.513,0.762
				c-0.424-0.513-1.201-0.894-2.109-0.894c-0.967,0-1.567,0.483-1.567,1.113c0,1.552,4.38,0.527,4.38,3.281
				c0,1.187-0.952,2.138-2.783,2.138C321.306,475.465,320.325,475.113,319.607,474.351z"/>
			<path style="fill:#1D262D;" d="M326.477,466.471c0-0.41,0.337-0.747,0.732-0.747c0.41,0,0.747,0.337,0.747,0.747
				c0,0.41-0.337,0.732-0.747,0.732C326.814,467.203,326.477,466.881,326.477,466.471z M326.667,475.289v-7.075h1.099v7.075H326.667
				z"/>
			<path style="fill:#1D262D;" d="M329.582,477.105l0.556-0.82c0.586,0.703,1.289,0.967,2.3,0.967c1.172,0,2.27-0.571,2.27-2.124
				v-1.011c-0.513,0.718-1.377,1.26-2.373,1.26c-1.845,0-3.149-1.377-3.149-3.662c0-2.27,1.289-3.677,3.149-3.677
				c0.952,0,1.802,0.469,2.373,1.245v-1.069h1.099v6.87c0,2.344-1.641,3.076-3.369,3.076
				C331.237,478.16,330.417,477.926,329.582,477.105z M334.709,473.253v-3.091c-0.381-0.615-1.23-1.143-2.109-1.143
				c-1.421,0-2.27,1.128-2.27,2.695c0,1.553,0.849,2.695,2.27,2.695C333.478,474.41,334.328,473.868,334.709,473.253z"/>
			<path style="fill:#1D262D;" d="M342.413,475.289v-4.629c0-1.245-0.63-1.641-1.582-1.641c-0.865,0-1.685,0.527-2.095,1.099v5.17
				h-1.099v-7.075h1.099v1.025c0.498-0.586,1.465-1.201,2.519-1.201c1.48,0,2.256,0.747,2.256,2.285v4.966H342.413z"/>
			<path style="fill:#1D262D;" d="M344.932,471.744c0-2.051,1.465-3.706,3.486-3.706c2.138,0,3.398,1.67,3.398,3.794v0.279h-5.727
				c0.088,1.333,1.025,2.446,2.549,2.446c0.806,0,1.626-0.322,2.183-0.894l0.527,0.718c-0.703,0.703-1.655,1.084-2.812,1.084
				C346.441,475.465,344.932,473.956,344.932,471.744z M348.404,468.947c-1.509,0-2.256,1.274-2.314,2.358h4.643
				C350.718,470.25,350.015,468.947,348.404,468.947z"/>
			<path style="fill:#1D262D;" d="M358.35,475.289v-1.055c-0.527,0.718-1.392,1.23-2.388,1.23c-1.845,0-3.149-1.406-3.149-3.706
				c0-2.256,1.289-3.721,3.149-3.721c0.952,0,1.817,0.469,2.388,1.245v-3.765h1.098v9.77H358.35z M358.35,473.37v-3.208
				c-0.396-0.615-1.245-1.143-2.124-1.143c-1.421,0-2.27,1.172-2.27,2.739c0,1.567,0.849,2.724,2.27,2.724
				C357.105,474.483,357.954,473.986,358.35,473.37z"/>
			<path style="fill:#1D262D;" d="M364.692,475.289v-9.77h1.099v3.765c0.572-0.776,1.421-1.245,2.388-1.245
				c1.845,0,3.149,1.465,3.149,3.721c0,2.299-1.304,3.706-3.149,3.706c-0.996,0-1.86-0.513-2.388-1.23v1.055H364.692z
				 M367.9,474.483c1.436,0,2.286-1.157,2.286-2.724c0-1.568-0.85-2.739-2.286-2.739c-0.864,0-1.728,0.527-2.109,1.143v3.208
				C366.171,473.986,367.036,474.483,367.9,474.483z"/>
			<path style="fill:#1D262D;" d="M372.529,477.061c0.161,0.073,0.425,0.117,0.601,0.117c0.483,0,0.806-0.161,1.055-0.747
				l0.469-1.069l-2.959-7.148h1.187l2.358,5.8l2.344-5.8h1.201l-3.545,8.51c-0.425,1.025-1.143,1.421-2.08,1.435
				c-0.234,0-0.601-0.044-0.806-0.103L372.529,477.061z"/>
		</g>
	</g>
</g>
</svg>
