<?xml version="1.0" encoding="utf-8"?>
<!-- Generator: Adobe Illustrator 27.5.0, SVG Export Plug-In . SVG Version: 6.00 Build 0)  -->
<svg version="1.1" xmlns="http://www.w3.org/2000/svg" xmlns:xlink="http://www.w3.org/1999/xlink" x="0px" y="0px"
	 viewBox="0 0 800 800" style="enable-background:new 0 0 800 800;" xml:space="preserve">
<g id="Background">
	<g>
		<linearGradient id="SVGID_1_" gradientUnits="userSpaceOnUse" x1="161.6383" y1="128.922" x2="773.6386" y2="824.9224">
			<stop  offset="0" style="stop-color:#0B98A2"/>
			<stop  offset="0.2761" style="stop-color:#0A8E98"/>
			<stop  offset="0.7489" style="stop-color:#08747C"/>
			<stop  offset="1" style="stop-color:#07646B"/>
		</linearGradient>
		<rect style="fill:url(#SVGID_1_);" width="800" height="800"/>
		<defs>
			<filter id="Adobe_OpacityMaskFilter" filterUnits="userSpaceOnUse" x="0" y="0" width="800" height="800">
				<feColorMatrix  type="matrix" values="1 0 0 0 0  0 1 0 0 0  0 0 1 0 0  0 0 0 1 0"/>
			</filter>
		</defs>
		
			<mask maskUnits="userSpaceOnUse" x="0" y="0" width="800" height="800" id="SVGID_00000126307808724990872320000012078786210559903126_">
			<g style="filter:url(#Adobe_OpacityMaskFilter);">
				
					<radialGradient id="SVGID_00000013193979878173230370000013377864681635232414_" cx="400" cy="400" r="543.004" gradientUnits="userSpaceOnUse">
					<stop  offset="0.4271" style="stop-color:#000000"/>
					<stop  offset="0.4757" style="stop-color:#090909"/>
					<stop  offset="0.5544" style="stop-color:#212121"/>
					<stop  offset="0.6533" style="stop-color:#484848"/>
					<stop  offset="0.7685" style="stop-color:#7E7E7E"/>
					<stop  offset="0.8958" style="stop-color:#C2C2C2"/>
					<stop  offset="1" style="stop-color:#FFFFFF"/>
				</radialGradient>
				<rect style="fill:url(#SVGID_00000013193979878173230370000013377864681635232414_);" width="800" height="800"/>
			</g>
		</mask>
		
			<radialGradient id="SVGID_00000000222422912434710440000016127851746688159420_" cx="400" cy="400" r="400" gradientUnits="userSpaceOnUse">
			<stop  offset="0" style="stop-color:#277B9A;stop-opacity:0"/>
			<stop  offset="1" style="stop-color:#2F7C92"/>
		</radialGradient>
		
			<polygon style="opacity:0.3;mask:url(#SVGID_00000126307808724990872320000012078786210559903126_);fill:url(#SVGID_00000000222422912434710440000016127851746688159420_);" points="
			800,55.57 401.064,398.161 785.453,0 689.899,0 400.9,397.599 636.587,0 566.542,0 400.609,397.093 524.48,0 465.487,0 
			400.206,396.681 427.888,0 372.089,0 399.72,396.346 334.521,0 275.625,0 399.172,396.145 233.665,0 163.844,0 398.593,396.078 
			110.738,0 15.622,0 398.012,396.144 0,54.301 0,141.384 397.462,396.342 0,190.976 0,257.291 396.975,396.663 0,297.746 
			0,355.321 396.574,397.086 0,392.529 0,448.507 396.282,397.592 0,486.715 0,547.472 396.112,398.151 0,591.418 0,665.771 
			396.079,398.732 0,723.4 0,800 26.708,800 396.179,399.308 90.657,800 171.436,800 396.41,399.843 218.318,800 282.059,800 
			396.756,400.315 321.536,800 378.522,800 397.203,400.691 415.859,800 472.799,800 397.724,400.95 512.212,800 575.8,800 
			398.292,401.087 622.532,800 703,800 398.877,401.09 766.657,800 800,800 800,729.335 399.445,400.956 800,671.05 800,595.907 
			399.965,400.694 800,551.523 800,490.214 400.415,400.32 800,451.686 800,395.29 400.764,399.853 800,357.833 800,299.922 
			400.995,399.317 800,259.263 800,192.665 401.099,398.742 800,142.899 		"/>
	</g>
</g>
<g id="Objects">
	<g>
		<g>
			<g>
				<g>
					<g>
						<g>
							<ellipse style="fill:none;stroke:#FFFFFF;stroke-miterlimit:10;" cx="400" cy="400" rx="344.828" ry="70.02"/>
							<path style="fill:none;stroke:#FFFFFF;stroke-miterlimit:10;" d="M615.391,129.284
								c30.234,24.111-41.514,164.359-160.253,313.253c-118.739,148.894-239.506,250.052-269.74,225.941
								c-30.234-24.111,41.514-164.359,160.253-313.254S585.156,105.173,615.391,129.284z"/>
							<path style="fill:none;stroke:#FFFFFF;stroke-miterlimit:10;" d="M323.033,61.693
								c37.702-8.605,102.618,134.933,144.995,320.601c42.378,185.668,46.169,343.158,8.468,351.764
								c-37.701,8.604-102.618-134.933-144.995-320.602C289.123,227.788,285.332,70.298,323.033,61.693z"/>
							<path style="fill:none;stroke:#FFFFFF;stroke-miterlimit:10;" d="M87.907,248.125c16.779-34.841,169.477,3.899,341.059,86.53
								c171.583,82.629,297.078,177.859,280.3,212.701c-16.779,34.841-169.476-3.899-341.059-86.53
								C196.623,378.196,71.128,282.966,87.907,248.125z"/>
						</g>
						<g>
							<circle style="opacity:0.2;fill:#FFFFFF;" cx="414.095" cy="161.116" r="30.116"/>
							
								<ellipse transform="matrix(0.0278 -0.9996 0.9996 0.0278 198.0564 814.9791)" style="opacity:0.3;fill:#FFFFFF;" cx="517.994" cy="305.672" rx="13.552" ry="13.553"/>
							<circle style="opacity:0.1;fill:#FFFFFF;" cx="648.999" cy="177.679" r="18.069"/>
							
								<ellipse transform="matrix(0.7233 -0.6905 0.6905 0.7233 -107.4535 138.3878)" style="opacity:0.3;fill:#FFFFFF;" cx="118.958" cy="203.278" rx="13.552" ry="13.552"/>
							
								<ellipse transform="matrix(0.9732 -0.2298 0.2298 0.9732 -69.3901 21.4041)" style="opacity:0.1;fill:#FFFFFF;" cx="57.22" cy="308.684" rx="21.081" ry="21.081"/>
							<circle style="opacity:0.3;fill:#FFFFFF;" cx="268.032" cy="382.468" r="22.587"/>
							<circle style="opacity:0.1;fill:#FFFFFF;" cx="192.742" cy="393.008" r="10.54"/>
							
								<ellipse transform="matrix(0.3562 -0.9344 0.9344 0.3562 -324.6297 435.3059)" style="opacity:0.3;fill:#FFFFFF;" cx="153.591" cy="453.24" rx="18.069" ry="18.069"/>
							<circle style="opacity:0.3;fill:#FFFFFF;" cx="265.021" cy="576.716" r="16.563"/>
							<circle style="opacity:0.1;fill:#FFFFFF;" cx="225.87" cy="664.052" r="31.621"/>
							
								<ellipse transform="matrix(0.3802 -0.9249 0.9249 0.3802 -297.6477 754.4185)" style="opacity:0.2;fill:#FFFFFF;" cx="414.095" cy="599.303" rx="10.541" ry="10.541"/>
							
								<ellipse transform="matrix(0.3873 -0.922 0.922 0.3873 -312.8958 896.4316)" style="opacity:0.3;fill:#FFFFFF;" cx="517.994" cy="683.627" rx="19.575" ry="19.575"/>
							
								<ellipse transform="matrix(0.9786 -0.2058 0.2058 0.9786 -92.9988 126.8288)" style="opacity:0.3;fill:#FFFFFF;" cx="563.168" cy="510.461" rx="12.047" ry="12.047"/>
							
								<ellipse transform="matrix(0.3884 -0.9215 0.9215 0.3884 -76.0474 828.0438)" style="opacity:0.3;fill:#FFFFFF;" cx="585.755" cy="471.31" rx="24.093" ry="24.093"/>
							<circle style="opacity:0.1;fill:#FFFFFF;" cx="639.964" cy="645.982" r="22.587"/>
							<circle style="opacity:0.2;fill:#FFFFFF;" cx="724.288" cy="527.024" r="10.541"/>
							<circle style="opacity:0.3;fill:#FFFFFF;" cx="724.288" cy="380.962" r="9.034"/>
							<circle style="opacity:0.2;fill:#FFFFFF;" cx="624.906" cy="114.436" r="12.047"/>
							<circle style="opacity:0.3;fill:#FFFFFF;" cx="435.176" cy="84.32" r="7.529"/>
							<circle style="opacity:0.2;fill:#FFFFFF;" cx="52.703" cy="495.402" r="7.529"/>
						</g>
						<g>
							<g>
								<circle style="fill:#FFFFFF;" cx="477" cy="211" r="9"/>
							</g>
							<circle style="fill:#FFFFFF;" cx="558" cy="298" r="6"/>
							<circle style="fill:#FFFFFF;" cx="742" cy="407" r="6"/>
							<circle style="fill:#FFFFFF;" cx="178" cy="651" r="10"/>
							<circle style="fill:#FFFFFF;" cx="380" cy="584" r="6"/>
							<circle style="fill:#FFFFFF;" cx="607" cy="434" r="6"/>
							<circle style="fill:#FFFFFF;" cx="708" cy="550" r="5"/>
							<circle style="fill:#FFFFFF;" cx="217" cy="378" r="10"/>
							<circle style="fill:#FFFFFF;" cx="140" cy="353" r="5"/>
							<circle style="fill:#FFFFFF;" cx="90" cy="245" r="13"/>
							<circle style="fill:#FFFFFF;" cx="299" cy="219" r="6"/>
							<circle style="fill:#FFFFFF;" cx="589" cy="127" r="6"/>
							<circle style="fill:#FFFFFF;" cx="544" cy="465" r="10"/>
						</g>
					</g>
					<g>
						<g>
							
								<ellipse transform="matrix(0.221 -0.9753 0.9753 0.221 -109.7496 393.1242)" style="fill:#FFFFFF;" cx="191.218" cy="265.264" rx="71.591" ry="71.592"/>
							<g>
								<path style="fill:#3A424D;" d="M179.091,253.612c-18.7,0-33.862,10.547-33.862,23.557c0,5.32,2.538,10.226,6.813,14.169
									l-6.035,16.294l17.796-9.446c4.594,1.62,9.786,2.54,15.288,2.54c18.702,0,33.864-10.547,33.864-23.557
									C212.955,264.159,197.793,253.612,179.091,253.612z"/>
								<g>
									<path style="fill:#FFFFFF;" d="M163.184,281.338c-2.3,0-4.169-1.871-4.169-4.169c0-2.299,1.869-4.169,4.169-4.169
										s4.168,1.87,4.168,4.169C167.352,279.467,165.484,281.338,163.184,281.338z"/>
									<path style="fill:#FFFFFF;" d="M179.093,281.338c-2.298,0-4.169-1.871-4.169-4.169c0-2.299,1.871-4.169,4.169-4.169
										c2.298,0,4.169,1.87,4.169,4.169C183.262,279.467,181.391,281.338,179.093,281.338z"/>
									<path style="fill:#FFFFFF;" d="M195,281.338c-2.298,0-4.169-1.871-4.169-4.169c0-2.299,1.871-4.169,4.169-4.169
										c2.299,0,4.168,1.87,4.168,4.169C199.168,279.467,197.299,281.338,195,281.338z"/>
								</g>
								<g>
									<path style="fill:#88424A;" d="M237.205,244.847c0-12.123-14.126-21.949-31.552-21.949
										c-17.425,0-31.551,9.827-31.551,21.949c0,1.647,0.27,3.249,0.764,4.793c1.395-0.112,2.806-0.174,4.226-0.174
										c9.885,0,19.228,2.714,26.313,7.642c3.694,2.57,6.57,5.592,8.549,8.908c2.073-0.395,4.067-0.922,5.946-1.586l16.583,8.803
										l-5.624-15.183C234.841,254.374,237.205,249.803,237.205,244.847z"/>
								</g>
							</g>
						</g>
						<g>
							<g>
								<g>
									<path style="fill:#FFFFFF;" d="M577.72,591.268c0-28.24-22.894-51.134-51.134-51.134c-28.24,0-51.133,22.893-51.133,51.134
										c0,28.24,22.893,51.133,51.133,51.133C554.825,642.4,577.72,619.508,577.72,591.268z"/>
								</g>
							</g>
							<g>
								<path style="fill:#88424A;" d="M556.522,591.43c0-0.14-0.004-0.277-0.006-0.416l3.102-0.288l-0.45-4.857l-3.109,0.288
									c-0.367-2.054-0.942-4.035-1.705-5.922l2.818-1.402l-2.175-4.366l-2.831,1.409c-1.073-1.757-2.321-3.396-3.722-4.891
									l2.149-2.358l-3.603-3.285l-2.157,2.364c-1.617-1.244-3.363-2.329-5.219-3.226l1.16-2.993l-4.548-1.763l-1.164,2.999
									c-1.933-0.569-3.95-0.949-6.026-1.117v-3.232h-4.877v3.232c-2.075,0.168-4.091,0.548-6.023,1.116l-1.167-3.008l-4.548,1.762
									l1.164,3.002c-1.853,0.897-3.6,1.979-5.216,3.224l-2.17-2.38l-3.605,3.286l2.162,2.371
									c-1.397,1.493-2.646,3.128-3.717,4.884l-2.857-1.421l-2.173,4.366l2.838,1.413c-0.761,1.883-1.337,3.859-1.705,5.91
									l-3.14-0.291l-0.45,4.858l3.128,0.29c-0.001,0.146-0.005,0.295-0.005,0.442c0,1.949,0.188,3.853,0.544,5.698l-2.997,0.852
									l1.335,4.692l2.974-0.847c0.725,1.951,1.645,3.805,2.739,5.54l-2.458,1.857l2.94,3.892l2.446-1.848
									c1.369,1.547,2.897,2.952,4.56,4.188l-1.605,2.592l4.147,2.567l1.596-2.577c1.824,0.942,3.759,1.7,5.778,2.254l-0.556,2.971
									l4.795,0.895l0.555-2.967c1.027,0.108,2.071,0.163,3.13,0.163c1.037,0,2.063-0.053,3.074-0.156l0.555,2.966l4.795-0.896
									l-0.554-2.961c2.022-0.55,3.959-1.304,5.785-2.243l1.59,2.567l4.148-2.567l-1.597-2.575
									c1.666-1.235,3.196-2.638,4.571-4.185l2.433,1.836l2.94-3.892l-2.436-1.84c1.098-1.735,2.022-3.593,2.748-5.545l2.953,0.839
									l1.334-4.691l-2.969-0.844C556.33,595.307,556.522,593.391,556.522,591.43z M526.599,607.944
									c-9.121,0-16.516-7.393-16.516-16.515c0-9.122,7.394-16.516,16.516-16.516c9.122,0,16.516,7.393,16.516,16.516
									C543.114,600.551,535.721,607.944,526.599,607.944z"/>
								<path style="fill:#3A424D;" d="M526.6,578.544c-7.116,0-12.885,5.77-12.885,12.886c0,7.115,5.769,12.885,12.885,12.885
									c7.116,0,12.884-5.77,12.884-12.885C539.483,584.313,533.716,578.544,526.6,578.544z"/>
							</g>
						</g>
						<g>
							<g>
								<g>
									<path style="fill:#FFFFFF;" d="M216.41,141.77c0-20.755-16.826-37.581-37.582-37.581c-20.755,0-37.58,16.826-37.58,37.581
										c0,20.755,16.825,37.581,37.58,37.581C199.584,179.351,216.41,162.525,216.41,141.77z"/>
								</g>
							</g>
							<g>
								<g>
									<path style="fill:#3A424D;" d="M179.2,147.954l-25.022-20.732v2.955v17.066v6.122c0,2.662,2.178,4.84,4.84,4.84h39.622
										c2.662,0,4.84-2.178,4.84-4.84v-6.122v-17.066v-2.932L179.2,147.954z"/>
								</g>
								<polygon style="fill:#88424A;" points="179.186,146.058 154.178,125.336 203.48,125.336 								"/>
							</g>
						</g>
						<g>
							<g>
								<g>
									<path style="fill:#FFFFFF;" d="M746.781,289c0-39.539-32.053-71.591-71.592-71.591c-39.538,0-71.589,32.052-71.589,71.591
										s32.051,71.592,71.589,71.592C714.728,360.592,746.781,328.539,746.781,289z"/>
								</g>
							</g>
							<g>
								<g>
									<path style="fill:#88424A;" d="M693.251,325.18c-2.266,0.998-4.91-0.027-5.908-2.292l-13.824-31.355l8.196-3.616
										l13.826,31.357C696.539,321.537,695.513,324.182,693.251,325.18z"/>
								</g>
								<g>
									<path style="fill:#3A424D;" d="M699.164,338.596c-4.141,1.826-8.978-0.051-10.803-4.191l-10.441-23.678
										c-1.824-4.142,0.052-8.979,4.191-10.806c4.145-1.826,8.983,0.053,10.808,4.193l10.438,23.678
										C705.184,331.933,703.306,336.77,699.164,338.596z"/>
								</g>
								<path style="fill:#3A424D;" d="M658.493,246.354c-12.577,5.546-18.276,20.238-12.73,32.813
									c5.546,12.577,20.234,18.277,32.811,12.731c12.578-5.545,18.278-20.235,12.732-32.813
									C685.763,246.509,671.071,240.808,658.493,246.354z M675.965,285.976c-9.306,4.104-20.175-0.115-24.279-9.421
									c-4.102-9.304,0.116-20.174,9.42-24.278c9.306-4.102,20.175,0.116,24.277,9.421
									C689.484,271.004,685.269,281.872,675.965,285.976z"/>
							</g>
						</g>
						<g>
							<g>
								<g>
									<path style="fill:#FFFFFF;" d="M138.474,393.987c0-28.24-22.894-51.133-51.134-51.133
										c-28.24,0-51.132,22.893-51.132,51.133c0,28.24,22.893,51.132,51.132,51.132
										C115.58,445.119,138.474,422.227,138.474,393.987z"/>
								</g>
							</g>
							<g>
								<path style="fill:#88424A;" d="M109.634,370.878h-44.59c-3.554,0-6.447,2.838-6.447,6.326v29.358
									c0,3.488,2.893,6.326,6.447,6.326h44.59c3.557,0,6.449-2.838,6.449-6.326v-29.358
									C116.083,373.716,113.191,370.878,109.634,370.878z M110.072,378.892v25.983c0,1.193-0.971,2.165-2.165,2.165H66.774
									c-1.194,0-2.166-0.972-2.166-2.165v-25.983c0-1.193,0.972-2.164,2.166-2.164h41.133
									C109.101,376.728,110.072,377.698,110.072,378.892z"/>
								<path style="fill:#88424A;" d="M121.739,410.14H52.941c-2.264,0-4.099,1.558-4.099,3.478c0,1.92,1.835,3.478,4.099,3.478
									h68.798c2.264,0,4.098-1.558,4.098-3.478C125.837,411.697,124.003,410.14,121.739,410.14z M119.504,414.775h-3.975
									c-0.754,0-1.365-0.519-1.365-1.158c0-0.641,0.611-1.16,1.365-1.16h3.975c0.754,0,1.366,0.52,1.366,1.16
									C120.87,414.257,120.258,414.775,119.504,414.775z"/>
							</g>
						</g>
						<g>
							<g>
								<g>
									<path style="fill:#FFFFFF;" d="M692.202,549.917c0-21.884-17.741-39.624-39.624-39.624
										c-21.884,0-39.623,17.74-39.623,39.624s17.739,39.624,39.623,39.624C674.461,589.541,692.202,571.801,692.202,549.917z"/>
								</g>
							</g>
							<g>
								<g>
									<rect x="630.881" y="560.653" style="fill:#3A424D;" width="8.017" height="16.997"/>
									<path style="fill:#3A424D;" d="M641.466,572.198v-9.942c0,0,2.566-3.848,5.451-3.848c2.888,0,6.414,1.282,10.263,0
										c3.85-1.283,4.17-0.963,4.812,0.32c0.641,1.282,0.64,3.527-4.812,5.452c0,0,6.737,1.283,11.868,0.321
										c5.132-0.963,6.093-2.887,8.337-1.283c2.246,1.604-2.886,4.169-7.695,6.734
										C664.878,572.519,644.031,571.879,641.466,572.198z"/>
								</g>
								<path style="fill:#88424A;" d="M664.251,544.332c0.149-6.59-9.436-8.087-12.282-9.586c-2.844-1.497-2.548-5.69,2.246-5.69
									c4.793,0,3.746,3.743,3.746,3.743h4.641c-0.749-7.938-6.59-7.787-6.59-7.787v-2.845h-3.294v2.694
									c-1.647,0-8.083,0.749-7.938,7.189c0.148,6.59,9.057,8.261,11.832,9.437c3.894,1.646,2.545,5.841-2.398,5.841
									c-4.941,0-5.09-4.793-5.09-4.793l-4.495-0.15c-0.727,6.4,4.201,8.78,7.939,9.249v2.135h3.593v-2.27
									C659.765,550.904,664.137,549.334,664.251,544.332z"/>
							</g>
						</g>
						<g>
							<g>
								<g>
									<path style="fill:#FFFFFF;" d="M295.06,461.673c0-28.24-22.894-51.133-51.134-51.133c-28.24,0-51.132,22.893-51.132,51.133
										c0,28.241,22.893,51.134,51.132,51.134C272.167,512.807,295.06,489.914,295.06,461.673z"/>
								</g>
							</g>
							<path style="fill:#3A424D;" d="M270.618,445.844c-1.214-2.705-2.901-4.986-5.018-6.781c-2.104-1.785-4.6-3.132-7.419-4.001
								c-2.791-0.858-5.812-1.294-8.98-1.294c-5.805,0-10.898,0.995-15.14,2.957c-4.231,1.961-7.776,4.534-10.536,7.649
								c-2.756,3.111-4.822,6.629-6.138,10.454c-1.311,3.805-1.976,7.637-1.976,11.388c0,3.94,0.644,7.416,1.913,10.331
								c1.271,2.926,3.039,5.392,5.253,7.332c2.208,1.931,4.819,3.382,7.761,4.313c2.91,0.92,6.035,1.387,9.29,1.387
								c5.04,0,9.16-0.728,12.245-2.165l0.699-0.324l-0.146-0.758c-0.174-0.904-0.391-1.738-0.645-2.482
								c-0.26-0.753-0.508-1.402-0.758-1.987l-0.37-0.864l-0.882,0.327c-1.362,0.505-2.904,0.91-4.583,1.203
								c-1.681,0.293-3.512,0.441-5.439,0.441c-2.367,0-4.603-0.332-6.647-0.988c-2.009-0.646-3.774-1.651-5.247-2.991
								c-1.467-1.335-2.644-3.09-3.498-5.216c-0.862-2.147-1.3-4.771-1.3-7.802c0-3.243,0.574-6.431,1.707-9.472
								c1.128-3.035,2.795-5.779,4.955-8.154c2.154-2.366,4.845-4.287,7.999-5.708c3.151-1.419,6.809-2.139,10.872-2.139
								c5.255,0,9.364,1.271,12.211,3.777c2.812,2.474,4.238,6.184,4.238,11.025c0,1.739-0.226,3.537-0.672,5.341
								c-0.443,1.792-1.105,3.447-1.967,4.922c-0.845,1.445-1.878,2.642-3.068,3.555c-1.137,0.869-2.417,1.291-3.914,1.291
								c-0.515,0-1.042-0.046-1.57-0.139c-0.204-0.034-0.388-0.085-0.555-0.153l4.428-21.954l-0.848-0.267
								c-1.456-0.458-2.969-0.818-4.495-1.069c-1.528-0.252-3.151-0.379-4.825-0.379c-2.526,0-4.948,0.511-7.202,1.519
								c-2.242,1.005-4.225,2.414-5.895,4.188c-1.664,1.772-3.002,3.907-3.977,6.346c-0.978,2.441-1.473,5.139-1.473,8.02
								c0,3.268,0.969,5.892,2.88,7.801c1.91,1.912,4.453,2.881,7.557,2.881c1.833,0,3.542-0.217,5.081-0.645
								c1.312-0.363,2.533-0.845,3.637-1.432c1.736,1.137,4.009,1.711,6.77,1.711c2.726,0,5.212-0.65,7.39-1.935
								c2.135-1.26,3.987-2.938,5.506-4.989c1.502-2.03,2.661-4.346,3.443-6.881c0.777-2.523,1.17-5.122,1.17-7.73
								C272.442,451.723,271.828,448.541,270.618,445.844z M247.189,453.303c0.441,0,0.868,0.028,1.268,0.082
								c0.143,0.02,0.291,0.042,0.444,0.068l-3.072,16.092c-0.72,0.306-1.375,0.522-1.954,0.643c-0.7,0.147-1.494,0.223-2.356,0.223
								c-1.537,0-2.679-0.387-3.395-1.15c-0.733-0.783-1.105-2.094-1.105-3.898c0-1.71,0.268-3.32,0.796-4.788
								c0.524-1.463,1.254-2.756,2.17-3.841c0.906-1.069,1.989-1.92,3.219-2.525C244.425,453.607,245.765,453.303,247.189,453.303z"
								/>
						</g>
						<g>
							<g>
								<g>
									<circle style="fill:#FFFFFF;" cx="315.356" cy="111.415" r="71.591"/>
								</g>
							</g>
							<g>
								<path style="fill:#88424A;" d="M308.251,148.574v6.062h0.003c0.041,3.89,3.204,7.031,7.103,7.031
									c3.898,0,7.061-3.141,7.101-7.031h0.003v-6.062H308.251z"/>
								<path style="fill:#3A424D;" d="M300.939,132.176v12.299h0.007c0.082,7.893,6.5,14.268,14.411,14.268
									c7.912,0,14.328-6.375,14.409-14.268h0.009v-12.299H300.939z"/>
								<path style="fill:#88424A;" d="M346.316,99.499c0-17.098-13.861-30.959-30.959-30.959c-17.1,0-30.961,13.861-30.961,30.959
									c0,10.615,13.136,27.877,13.136,29.084c0,9.845,7.979,17.825,17.825,17.825c9.843,0,17.825-7.98,17.825-17.825
									C333.182,127.376,346.316,110.114,346.316,99.499z"/>
								<path style="fill:#FFFFFF;" d="M333.602,94.859c-1.475,0-3.171,1.433-5.522,3.416c-3.348,2.829-7.935,6.703-12.723,6.703
									c-4.79,0-9.377-3.874-12.725-6.704c-2.349-1.982-4.045-3.416-5.522-3.416c-2.487,0-2.487,3.371-2.487,4.64
									c0,3.354,3.1,9.901,9.474,20.018c2.014,3.196,3.41,19.385,3.629,25.158c0.712,0.337,1.44,0.642,2.199,0.885
									c-0.099-3.866-1.336-22.997-3.987-27.203c-7.553-11.986-9.139-16.87-9.139-18.858c0-2.017,0.33-2.444,0.315-2.463
									c0.684,0.006,2.585,1.611,4.113,2.902c3.605,3.045,8.543,7.216,14.13,7.216c5.585,0,10.522-4.171,14.128-7.216
									c1.533-1.293,3.436-2.903,4.052-2.936c0.017,0.015,0.377,0.384,0.377,2.497c0,1.988-1.586,6.872-9.139,18.858
									c-2.652,4.206-3.89,23.337-3.988,27.203c0.76-0.243,1.489-0.547,2.201-0.885c0.22-5.773,1.614-21.961,3.629-25.158
									c6.375-10.117,9.473-16.665,9.473-20.018C336.089,98.23,336.089,94.859,333.602,94.859z"/>
							</g>
						</g>
						<g>
							<g>
								<g>
									<path style="fill:#FFFFFF;" d="M221.423,555.969c0-39.539-32.054-71.592-71.592-71.592
										c-39.538,0-71.59,32.053-71.59,71.592c0,39.538,32.052,71.59,71.59,71.59C189.369,627.559,221.423,595.507,221.423,555.969
										z"/>
								</g>
							</g>
							<g>
								<rect x="114.794" y="592.167" style="fill:#3A424D;" width="70.076" height="9.413"/>
								<g>
									<rect x="120.269" y="554.515" style="fill:#88424A;" width="16.735" height="33.47"/>
									<rect x="141.465" y="510.356" style="fill:#88424A;" width="16.733" height="77.628"/>
									<rect x="162.661" y="537.144" style="fill:#88424A;" width="16.734" height="50.84"/>
								</g>
							</g>
						</g>
						<g>
							<g>
								<g>
									<path style="fill:#FFFFFF;" d="M544.063,117.447c0-21.883-17.74-39.624-39.624-39.624
										c-21.883,0-39.623,17.74-39.623,39.624c0,21.884,17.74,39.624,39.623,39.624
										C526.322,157.071,544.063,139.331,544.063,117.447z"/>
								</g>
							</g>
							<g>
								<path style="fill:#3A424D;" d="M532.163,117.447c0,15.312-12.412,27.725-27.725,27.725
									c-15.311,0-27.724-12.413-27.724-27.725c0-15.312,12.412-27.724,27.724-27.724
									C519.751,89.723,532.163,102.135,532.163,117.447z"/>
								<g>
									<path style="fill:#88424A;" d="M504.438,89.461c-15.431,0-27.985,12.554-27.985,27.985
										c0,15.432,12.555,27.986,27.985,27.986c15.432,0,27.985-12.554,27.985-27.986
										C532.424,102.016,519.87,89.461,504.438,89.461z M503.583,91.976c2.182,0,4.985-0.779,5.608-0.156
										c0.624,0.624,0.156,2.493-0.467,2.337c-0.624-0.155-3.271-1.09-4.518-0.778c-1.245,0.312-5.141,0.156-6.076,0.312
										c-0.934,0.156-1.869,0.312-2.336,0.779c-0.467,0.466-2.493,0.312-2.649,0.778c-0.154,0.468-0.31,1.402-1.245,1.87
										c-0.935,0.467-1.091-0.623-1.091-0.623s-0.077-1.373-0.229-2.037c1.951-1.18,4.06-2.117,6.293-2.773
										C497.955,91.751,501.727,91.976,503.583,91.976z M489.624,95.065c-0.208,0.339-0.373,0.785-0.373,1.429
										c0,1.402-0.624,2.96-1.091,3.116c-0.467,0.156-0.467,0.779-0.155,1.246c0.311,0.467,0.468,0,1.558,0.156
										c1.091,0.156,2.96,0.935,4.206,1.247c1.247,0.311,2.338,0.623,2.96,1.091c0.623,0.467,1.713,1.557,1.713,1.557
										s0.936,1.091-0.466,2.181c-0.381,0.296-0.609,0.544-0.744,0.752c-0.255-0.179-0.623-0.465-0.814-0.753
										c-0.311-0.467-1.09-0.156-2.024,0c-0.935,0.157-2.337-0.156-3.583,0.312c-1.247,0.468-1.559-0.623-1.559-0.623
										l-0.622-1.246l-1.092-1.09c0,0-1.246-0.312-2.025-0.467c-0.778-0.157-0.778,1.402-0.778,1.402l-1.09,0.778l-0.624,0.623
										l-1.091-0.467c0,0,0.311-1.558-0.154-1.558c-0.469,0-0.779,0.623-1.092,1.246c-0.185,0.374-0.54,0.523-0.795,0.583
										C481.977,101.878,485.378,97.884,489.624,95.065z M504.438,144.298c-14.713,0-26.698-11.895-26.847-26.574
										c0.281,0.104,0.621,0.184,0.91,0.112c0.622-0.156,1.402,0.623,2.181,1.246c0.779,0.623,2.649,0.779,3.428,0.779
										c0.778,0,0.467,0.778,0.623,1.401c0.155,0.624,0.623,1.714,0.623,1.714s1.713,2.026,1.869,2.96
										c0.156,0.935,0.156,2.805,0,4.051c-0.156,1.246,0.468,2.025,0.468,2.025s1.558,2.026,2.181,3.116
										c0.623,1.09,1.558,1.09,2.182,2.648c0.623,1.558,1.558,1.09,2.024,1.09c0.468,0,1.091,0,1.403-0.468
										c0.31-0.467,1.245-1.09,1.401-1.869c0.156-0.779,0-2.025,0.311-2.96c0.311-0.935,1.713-0.78,2.181-1.559
										c0.468-0.779,0.468-1.869,0.312-4.206c-0.13-1.948-0.151-2.163-0.155-2.182l1.09-0.778c0,0,1.714-1.714,1.714-2.649
										c0-0.936,0.155-0.779,1.245-1.713c1.091-0.935,1.247-1.247,1.247-1.247s-1.247-0.624-1.714-0.936
										c-0.468-0.311-2.025,0.157-2.492,0c-0.468-0.155-0.468-1.246-0.779-2.18c-0.312-0.935-0.936-1.558-1.869-2.648
										c-0.935-1.091-1.091-1.246-1.091-2.338c0-1.09-0.156-1.245-0.156-1.245l0.759-1.012l0.488,0.39c0,0,0.311,0.623,0.466,1.09
										c0.157,0.467,0.468,0.467,1.402,1.713c0.936,1.247,1.714,1.714,2.182,2.805c0.468,1.09,1.401,1.869,1.401,1.869
										l1.012,0.701l1.637-1.168l0.935-1.558l1.09-0.779l0.311-1.09l0.156-0.935c0,0-2.025-0.779-2.493-0.935
										c-0.468-0.156-1.558-1.402-1.558-1.402l-0.935-1.247l0.468-1.247l1.402,0.467l1.401,1.869l2.182,1.091
										c0,0,2.024-0.467,3.115-0.155c1.091,0.312,2.337,1.09,2.337,1.09s0.312,1.558,0.467,2.025
										c0.157,0.467,1.092,1.714,1.092,1.714l1.09,1.557l1.091,0.935c0,0,0.935,0.467,1.245,1.558
										c0.313,1.09,0.313,1.09,0.313,1.09l1.246-1.558l-0.935-1.869l0.467-2.337c0,0-0.935-1.09-0.467-1.558
										c0.467-0.467,1.714,0.155,1.714,0.155l1.09-1.557l1.247,0.467c0,0,1.401,0.468,1.558,1.09
										c0.155,0.624,1.246,0.468,1.401,1.403c0.156,0.935,0.935,1.558,1.402,1.246s0.935-1.246,0.623-2.025
										c-0.31-0.779-0.778-2.181-0.778-2.181l0.311-1.402l1.401-0.468l0.067-0.088c0.75,2.47,1.157,5.088,1.157,7.8
										c0,1.645-0.149,3.254-0.434,4.817l-0.946-1.155c0,0-0.467-1.714-0.623-2.181c-0.156-0.467-0.779-0.934-0.779-1.558
										c0-0.623,0-0.623,0-0.623l-0.312-0.467c-0.467,0.778-1.401,0.778-0.623,2.804c0.779,2.025,0.156,2.025,0.467,2.805
										c0.313,0.778,1.247,2.025,1.247,2.025l0.467,1.402c0,0-0.114,0.808-0.063,1.264
										C525.945,136.902,516.04,144.298,504.438,144.298z"/>
									<path style="fill:#3A424D;" d="M503.272,130.767c-0.624,0.312-0.156,0.935-0.624,1.713
										c-0.467,0.78-1.091,1.402-1.091,2.026c0,0.623,1.403,1.246,1.403,1.246l1.09-1.559l0.157-1.558l0.777-0.467l0.624-1.09
										l-1.247-0.624L503.272,130.767z"/>
									<path style="fill:#3A424D;" d="M486.446,102.569c0.468,0.312,1.247-0.155,1.247-0.155l-0.156-0.935l-1.246-0.311
										C485.668,102.103,485.978,102.258,486.446,102.569z"/>
								</g>
							</g>
						</g>
						<g>
							<g>
								<g>
									<path style="fill:#FFFFFF;" d="M727.438,451.704c0-28.239-22.894-51.133-51.134-51.133
										c-28.239,0-51.132,22.894-51.132,51.133c0,28.24,22.893,51.133,51.132,51.133
										C704.544,502.837,727.438,479.944,727.438,451.704z"/>
								</g>
							</g>
							<g>
								<path style="fill:#3A424D;" d="M694.666,479.102l-18.542-27.983l1.048,33.546
									C683.638,484.496,689.643,482.476,694.666,479.102z"/>
								<path style="fill:#3A424D;" d="M696.319,425.522l-20.173,25.63l31.989,9.157c0.738-2.74,1.139-5.62,1.139-8.594
									C709.274,441.035,704.192,431.547,696.319,425.522z"/>
								<path style="fill:#3A424D;" d="M673.172,484.533l2.961-33.382l-7.953,32.522
									C669.799,484.084,671.468,484.373,673.172,484.533z"/>
								<g>
									<path style="fill:#88424A;" d="M695.256,424.744c-5.362-3.775-11.895-6-18.952-6c-18.208,0-32.971,14.762-32.971,32.971
										c0,14.941,9.943,27.555,23.569,31.603l7.892-32.564L695.256,424.744z"/>
									<path style="fill:#88424A;" d="M695.742,478.341c5.626-4.114,9.902-9.964,12.031-16.767l-28.663-8.333L695.742,478.341z"/>
								</g>
							</g>
						</g>
						<g>
							<g>
								<g>
									<path style="fill:#FFFFFF;" d="M607.41,219.578c0-28.24-22.895-51.133-51.134-51.133c-28.24,0-51.133,22.893-51.133,51.133
										c0,28.24,22.892,51.133,51.133,51.133C584.516,270.711,607.41,247.818,607.41,219.578z"/>
								</g>
							</g>
							<g>
								<path style="fill:#88424A;" d="M594.043,228.444c0-7.246-5.874-13.121-13.121-13.121c-0.033,0-0.065,0.003-0.099,0.003
									c-0.691-5.009-4.986-8.868-10.185-8.868c-2.152,0-4.148,0.662-5.8,1.792c-4.019-4.371-9.782-7.111-16.187-7.111
									c-10.522,0-19.314,7.395-21.474,17.271c-4.955,1.066-8.669,5.471-8.669,10.744c0,3.64,1.771,6.865,4.494,8.866h66.885
									C592.444,235.624,594.043,232.221,594.043,228.444z"/>
							</g>
						</g>
						<g>
							<g>
								<g>
									<path style="fill:#FFFFFF;" d="M380.029,630.987c0-28.239-22.894-51.132-51.134-51.132
										c-28.24,0-51.133,22.892-51.133,51.132c0,28.241,22.893,51.134,51.133,51.134
										C357.135,682.121,380.029,659.229,380.029,630.987z"/>
								</g>
							</g>
							<g>
								<g>
									<g>
										<path style="fill:#3A424D;" d="M351.332,651.298h-42.334c-1.078,0-2.011-0.746-2.248-1.797l-8.199-36.274
											c-0.179-0.712-0.99-2.855-2.445-3.699c-0.72-0.417-1.529-0.479-2.55-0.193c-1.225,0.342-2.497-0.372-2.84-1.598
											c-0.343-1.227,0.372-2.498,1.598-2.842c2.217-0.621,4.341-0.391,6.139,0.665c3.389,1.989,4.476,6.151,4.588,6.619
											l7.8,34.509h40.492c1.273,0,2.305,1.032,2.305,2.306C353.637,650.266,352.605,651.298,351.332,651.298z"/>
									</g>
									<path style="fill:#3A424D;" d="M321.092,656.209c0-2.393-1.939-4.333-4.332-4.333c-2.394,0-4.332,1.94-4.332,4.333
										c0,2.393,1.939,4.333,4.332,4.333C319.153,660.542,321.092,658.602,321.092,656.209z"/>
									<path style="fill:#3A424D;" d="M348.267,656.209c0-2.393-1.939-4.333-4.332-4.333c-2.394,0-4.332,1.94-4.332,4.333
										c0,2.393,1.939,4.333,4.332,4.333C346.328,660.542,348.267,658.602,348.267,656.209z"/>
								</g>
								<polygon style="fill:#3A424D;" points="301.57,618.945 360.924,618.945 353.858,642.971 308.635,642.971 								"/>
							</g>
						</g>
						<g>
							<g>
								<g>
									
										<ellipse transform="matrix(0.0383 -0.9993 0.9993 0.0383 -266.9931 1088.8018)" style="fill:#FFFFFF;" cx="432.147" cy="683.106" rx="39.624" ry="39.624"/>
								</g>
							</g>
							<g>
								<g>
									<circle style="fill:#88424A;" cx="426.516" cy="702.315" r="8.146"/>
									<path style="fill:#88424A;" d="M425.158,670.637c0,4.499-3.647,8.146-8.147,8.146c-4.499,0-8.146-3.647-8.146-8.146
										c0-4.499,3.647-8.146,8.146-8.146C421.512,662.491,425.158,666.138,425.158,670.637z"/>
									<path style="fill:#88424A;" d="M461.363,677.878c0,4.498-3.647,8.145-8.146,8.145c-4.498,0-8.147-3.647-8.147-8.145
										c0-4.5,3.648-8.147,8.147-8.147C457.716,669.731,461.363,673.378,461.363,677.878z"/>
									<g>
										<polygon style="fill:#3A424D;" points="428.722,669.042 427.563,674.81 442.127,677.313 443.285,671.545 										"/>
										
											<rect x="418.128" y="680.657" transform="matrix(0.9708 -0.2397 0.2397 0.9708 -152.3294 120.9461)" style="fill:#3A424D;" width="5.883" height="12.146"/>
									</g>
								</g>
								
									<rect x="433.285" y="687.929" transform="matrix(0.7789 -0.6272 0.6272 0.7789 -335.9413 428.9673)" style="fill:#3A424D;" width="14.097" height="5.883"/>
							</g>
						</g>
						<g>
							<g>
								<g>
									<path style="fill:#FFFFFF;" d="M617.4,370.918c0-28.24-22.894-51.133-51.134-51.133c-28.239,0-51.132,22.893-51.132,51.133
										c0,28.24,22.893,51.132,51.132,51.132C594.507,422.051,617.4,399.159,617.4,370.918z"/>
								</g>
							</g>
							<g>
								<path style="fill:#3A424D;" d="M550.325,388.252c0.476,0.016,0.944,0.123,1.383,0.328c0.738,0.345,1.314,0.913,1.671,1.6
									c0.752-0.17,1.559-0.094,2.297,0.25c0.719,0.334,1.282,0.882,1.639,1.543c0.735-0.152,1.517-0.072,2.235,0.262
									c0.453,0.211,0.852,0.52,1.179,0.895l18.427-39.546l-10.415-4.853L550.325,388.252z"/>
								<path style="fill:#88424A;" d="M582.908,345.255c1.207-2.591-0.325-5.862-2.917-7.069c-2.591-1.208-6.08-0.277-7.288,2.314
									l-0.146,0.315l10.204,4.755L582.908,345.255z"/>
								
									<rect x="572.769" y="341.43" transform="matrix(0.4224 -0.9064 0.9064 0.4224 17.9032 722.4443)" style="fill:#3A424D;" width="6.069" height="11.489"/>
								<g>
									<path style="fill:#3A424D;" d="M560.059,394.567c-0.214-0.467-0.579-0.867-1.082-1.102
										c-0.908-0.423-1.947-0.175-2.589,0.527l-0.021-0.01c0.124-0.943-0.355-1.898-1.264-2.322
										c-0.908-0.424-1.95-0.178-2.592,0.525l-0.109-0.051c0.123-0.945-0.357-1.9-1.268-2.324
										c-0.479-0.223-0.994-0.252-1.471-0.137l-0.454,0.973l0.018,7.402c0.912-0.005,1.789,0.186,2.607,0.566
										c0.816,0.38,1.526,0.93,2.109,1.631l5.68-4.746L560.059,394.567z"/>
								</g>
								<path style="fill:#88424A;" d="M549.243,404.174l3.658-3.057c-0.434-0.523-0.984-0.964-1.643-1.271
									c-0.657-0.307-1.348-0.443-2.027-0.439L549.243,404.174z"/>
							</g>
						</g>
					</g>
				</g>
				<g>
					<path style="fill:#3A424D;" d="M386.973,218.718l-87.254,25.955c-21.237,6.317-33.443,28.86-27.126,50.094l70.337,236.462
						c6.321,21.241,28.863,33.447,50.097,27.126l87.255-25.952c21.237-6.313,33.443-28.856,27.126-50.098l-70.34-236.462
						C430.753,224.61,408.207,212.404,386.973,218.718z"/>
					<path style="fill:#FFFFFF;" d="M396.973,208.718l-87.254,25.955c-21.237,6.317-33.443,28.86-27.126,50.094l70.337,236.462
						c6.321,21.241,28.863,33.447,50.097,27.126l87.255-25.952c21.237-6.313,33.443-28.856,27.126-50.098l-70.34-236.462
						C440.753,214.61,418.207,202.404,396.973,208.718z M346.953,248.188l26.216-7.798c2.035-0.605,4.162,0.552,4.768,2.577
						c0.601,2.025-0.549,4.155-2.584,4.76l-26.217,7.801c-2.021,0.602-4.162-0.552-4.764-2.577
						C343.771,250.927,344.932,248.789,346.953,248.188z M443.456,524.641c-8.43,2.51-17.293-2.292-19.8-10.723
						c-2.507-8.431,2.289-17.29,10.72-19.793c8.434-2.511,17.289,2.285,19.796,10.716
						C456.683,513.271,451.887,522.13,443.456,524.641z M500.128,460.417l-137.334,40.852l-61.533-206.868l137.334-40.852
						L500.128,460.417z"/>
				</g>
			</g>
			<g>
				<path style="fill:#FFFFFF;" d="M288.493,765.21v-0.257c-0.349,0.398-0.692,0.724-1.031,0.973
					c-0.339,0.251-0.706,0.441-1.102,0.57c-0.396,0.132-0.827,0.195-1.296,0.195c-0.621,0-1.196-0.131-1.725-0.393
					c-0.528-0.263-0.986-0.639-1.371-1.125c-0.388-0.488-0.68-1.061-0.879-1.72c-0.2-0.659-0.3-1.371-0.3-2.137
					c0-1.621,0.396-2.886,1.188-3.791c0.791-0.904,1.833-1.357,3.125-1.357c0.746,0,1.377,0.13,1.89,0.384
					c0.513,0.257,1.013,0.652,1.501,1.183v-3.827c0-0.532,0.105-0.934,0.318-1.206c0.211-0.272,0.514-0.408,0.907-0.408
					c0.392,0,0.694,0.125,0.906,0.375c0.213,0.251,0.319,0.618,0.319,1.106v11.436c0,0.494-0.114,0.864-0.342,1.111
					c-0.228,0.246-0.522,0.37-0.883,0.37c-0.355,0-0.648-0.128-0.879-0.384C288.608,766.05,288.493,765.685,288.493,765.21
					 M283.392,761.401c0,0.703,0.109,1.301,0.328,1.795c0.218,0.494,0.517,0.866,0.897,1.115c0.38,0.251,0.795,0.377,1.244,0.377
					c0.456,0,0.872-0.119,1.25-0.357c0.376-0.236,0.677-0.602,0.902-1.091c0.225-0.491,0.336-1.105,0.336-1.839
					c0-0.691-0.111-1.284-0.336-1.782c-0.225-0.496-0.529-0.876-0.912-1.14c-0.383-0.262-0.803-0.392-1.258-0.392
					c-0.475,0-0.899,0.134-1.273,0.402c-0.374,0.269-0.663,0.654-0.869,1.158C283.494,760.152,283.392,760.736,283.392,761.401"/>
				<path style="fill:#FFFFFF;" d="M299.926,762.058h-5.071c0.006,0.589,0.125,1.107,0.356,1.557
					c0.231,0.45,0.539,0.789,0.921,1.017c0.384,0.228,0.806,0.341,1.268,0.341c0.31,0,0.594-0.035,0.851-0.107
					c0.256-0.074,0.504-0.187,0.746-0.343c0.24-0.154,0.461-0.321,0.664-0.498c0.202-0.179,0.465-0.421,0.788-0.724
					c0.133-0.113,0.323-0.171,0.571-0.171c0.266,0,0.481,0.074,0.645,0.22c0.164,0.147,0.248,0.351,0.248,0.617
					c0,0.234-0.093,0.507-0.276,0.821c-0.185,0.313-0.462,0.614-0.831,0.902c-0.372,0.288-0.836,0.526-1.397,0.717
					c-0.56,0.19-1.204,0.285-1.933,0.285c-1.665,0-2.96-0.476-3.884-1.425c-0.925-0.949-1.387-2.238-1.387-3.865
					c0-0.767,0.114-1.478,0.342-2.133c0.228-0.655,0.561-1.217,0.996-1.686c0.437-0.469,0.975-0.827,1.615-1.078
					c0.639-0.25,1.349-0.374,2.128-0.374c1.012,0,1.881,0.212,2.606,0.641c0.726,0.427,1.269,0.979,1.629,1.656
					c0.36,0.678,0.542,1.369,0.542,2.07c0,0.653-0.187,1.075-0.56,1.27C301.131,761.96,300.605,762.058,299.926,762.058
					 M294.855,760.585h4.702c-0.063-0.887-0.304-1.551-0.718-1.99c-0.415-0.44-0.96-0.66-1.638-0.66
					c-0.646,0-1.177,0.223-1.591,0.668C295.195,759.05,294.944,759.711,294.855,760.585"/>
				<path style="fill:#FFFFFF;" d="M311.741,763.3c0,0.716-0.173,1.329-0.522,1.839c-0.348,0.51-0.863,0.897-1.544,1.159
					c-0.68,0.263-1.508,0.393-2.483,0.393c-0.931,0-1.729-0.143-2.394-0.428c-0.664-0.284-1.156-0.642-1.472-1.067
					c-0.317-0.429-0.475-0.857-0.475-1.288c0-0.285,0.1-0.528,0.304-0.731c0.203-0.202,0.46-0.304,0.77-0.304
					c0.272,0,0.48,0.066,0.626,0.199c0.146,0.133,0.286,0.32,0.418,0.56c0.266,0.464,0.585,0.807,0.955,1.036
					c0.37,0.228,0.875,0.342,1.515,0.342c0.519,0,0.945-0.116,1.278-0.347c0.332-0.233,0.498-0.496,0.498-0.794
					c0-0.456-0.172-0.787-0.518-0.996c-0.345-0.209-0.913-0.409-1.705-0.6c-0.893-0.221-1.619-0.455-2.18-0.698
					c-0.56-0.242-1.008-0.564-1.343-0.963c-0.336-0.399-0.504-0.891-0.504-1.473c0-0.519,0.155-1.01,0.465-1.473
					c0.311-0.461,0.768-0.83,1.374-1.106c0.604-0.276,1.333-0.414,2.188-0.414c0.671,0,1.275,0.069,1.809,0.21
					c0.536,0.138,0.983,0.326,1.34,0.56c0.358,0.233,0.63,0.493,0.816,0.777c0.187,0.285,0.28,0.564,0.28,0.837
					c0,0.297-0.1,0.541-0.298,0.731c-0.199,0.189-0.483,0.285-0.851,0.285c-0.266,0-0.492-0.076-0.679-0.231
					c-0.186-0.15-0.4-0.378-0.641-0.682c-0.196-0.253-0.426-0.456-0.692-0.609c-0.267-0.151-0.628-0.227-1.084-0.227
					c-0.469,0-0.858,0.099-1.168,0.3c-0.31,0.198-0.465,0.446-0.465,0.744c0,0.273,0.113,0.496,0.341,0.67
					c0.229,0.175,0.535,0.319,0.922,0.433c0.387,0.113,0.917,0.252,1.596,0.417c0.803,0.197,1.46,0.432,1.97,0.703
					c0.509,0.271,0.896,0.594,1.16,0.965C311.61,762.403,311.741,762.825,311.741,763.3"/>
				<path style="fill:#FFFFFF;" d="M314.39,754.943c-0.361,0-0.669-0.111-0.926-0.333c-0.256-0.221-0.384-0.534-0.384-0.94
					c0-0.368,0.131-0.669,0.394-0.907c0.262-0.238,0.569-0.356,0.916-0.356c0.336,0,0.634,0.107,0.893,0.323
					c0.26,0.216,0.39,0.528,0.39,0.94c0,0.399-0.127,0.711-0.381,0.936C315.039,754.83,314.738,754.943,314.39,754.943
					 M315.673,757.621v7.493c0,0.519-0.124,0.913-0.371,1.179c-0.247,0.267-0.56,0.398-0.94,0.398c-0.38,0-0.689-0.136-0.926-0.408
					c-0.238-0.273-0.356-0.662-0.356-1.169v-7.418c0-0.512,0.118-0.898,0.356-1.158c0.237-0.26,0.546-0.39,0.926-0.39
					c0.38,0,0.693,0.13,0.94,0.39C315.549,756.798,315.673,757.159,315.673,757.621"/>
				<path style="fill:#FFFFFF;" d="M327.032,758.049v7.531c0,0.861-0.093,1.603-0.277,2.224c-0.182,0.619-0.477,1.133-0.882,1.538
					c-0.406,0.404-0.936,0.706-1.591,0.901c-0.655,0.197-1.47,0.295-2.446,0.295c-0.893,0-1.69-0.125-2.394-0.375
					c-0.702-0.251-1.243-0.573-1.624-0.969c-0.379-0.395-0.57-0.803-0.57-1.221c0-0.316,0.108-0.575,0.324-0.773
					c0.215-0.2,0.475-0.3,0.778-0.3c0.38,0,0.713,0.168,0.998,0.503c0.138,0.171,0.282,0.345,0.431,0.519
					c0.149,0.175,0.315,0.323,0.494,0.447c0.181,0.122,0.398,0.214,0.651,0.275c0.253,0.058,0.545,0.09,0.874,0.09
					c0.671,0,1.192-0.093,1.563-0.28c0.37-0.187,0.63-0.448,0.779-0.784c0.149-0.334,0.236-0.693,0.261-1.077
					c0.025-0.384,0.044-0.999,0.057-1.849c-0.4,0.559-0.859,0.983-1.383,1.274c-0.522,0.291-1.144,0.437-1.865,0.437
					c-0.868,0-1.626-0.222-2.276-0.665c-0.648-0.443-1.147-1.064-1.495-1.861c-0.349-0.799-0.522-1.719-0.522-2.764
					c0-0.778,0.105-1.483,0.317-2.108c0.213-0.628,0.515-1.156,0.908-1.587c0.392-0.431,0.845-0.755,1.357-0.974
					c0.513-0.218,1.077-0.327,1.691-0.327c0.734,0,1.371,0.142,1.91,0.422c0.537,0.283,1.038,0.725,1.5,1.326v-0.352
					c0-0.45,0.11-0.798,0.332-1.046c0.222-0.245,0.507-0.37,0.856-0.37c0.5,0,0.832,0.163,0.996,0.489
					C326.949,756.964,327.032,757.435,327.032,758.049 M319.519,761.335c0,1.051,0.229,1.846,0.688,2.384
					c0.459,0.539,1.053,0.808,1.781,0.808c0.43,0,0.837-0.116,1.22-0.347c0.384-0.232,0.695-0.58,0.937-1.045
					c0.239-0.466,0.36-1.029,0.36-1.695c0-1.057-0.232-1.881-0.698-2.469c-0.466-0.589-1.078-0.884-1.838-0.884
					c-0.741,0-1.335,0.282-1.78,0.846C319.742,759.495,319.519,760.297,319.519,761.335"/>
				<path style="fill:#FFFFFF;" d="M331.152,757.583v0.313c0.455-0.602,0.954-1.044,1.496-1.325
					c0.541-0.281,1.163-0.423,1.866-0.423c0.684,0,1.295,0.15,1.833,0.447c0.538,0.298,0.941,0.719,1.206,1.262
					c0.172,0.317,0.282,0.66,0.332,1.026c0.051,0.368,0.078,0.836,0.078,1.406v4.824c0,0.519-0.12,0.913-0.357,1.179
					c-0.238,0.266-0.546,0.398-0.926,0.398c-0.387,0-0.7-0.136-0.941-0.408c-0.241-0.273-0.36-0.662-0.36-1.169v-4.321
					c0-0.855-0.12-1.509-0.357-1.961c-0.238-0.452-0.71-0.68-1.42-0.68c-0.462,0-0.883,0.138-1.263,0.413
					c-0.38,0.276-0.659,0.655-0.836,1.136c-0.126,0.387-0.19,1.107-0.19,2.165v3.248c0,0.525-0.122,0.921-0.365,1.184
					c-0.244,0.263-0.559,0.393-0.945,0.393c-0.374,0-0.681-0.136-0.922-0.408c-0.24-0.273-0.361-0.662-0.361-1.169v-7.493
					c0-0.494,0.108-0.863,0.323-1.107c0.216-0.242,0.51-0.365,0.883-0.365c0.229,0,0.434,0.054,0.619,0.162
					c0.182,0.108,0.33,0.27,0.441,0.483C331.098,757.01,331.152,757.273,331.152,757.583"/>
				<path style="fill:#FFFFFF;" d="M346.927,762.058h-5.071c0.007,0.589,0.125,1.107,0.357,1.557c0.23,0.45,0.537,0.789,0.921,1.017
					c0.382,0.228,0.805,0.341,1.267,0.341c0.31,0,0.594-0.035,0.851-0.107c0.255-0.074,0.504-0.187,0.746-0.343
					c0.239-0.154,0.461-0.321,0.665-0.498c0.201-0.179,0.464-0.421,0.787-0.724c0.133-0.113,0.323-0.171,0.57-0.171
					c0.266,0,0.482,0.074,0.646,0.22c0.165,0.147,0.247,0.351,0.247,0.617c0,0.234-0.092,0.507-0.276,0.821
					c-0.184,0.313-0.461,0.614-0.831,0.902c-0.371,0.288-0.835,0.526-1.396,0.717c-0.56,0.19-1.205,0.285-1.933,0.285
					c-1.665,0-2.96-0.476-3.885-1.425c-0.924-0.949-1.386-2.238-1.386-3.865c0-0.767,0.114-1.478,0.341-2.133
					c0.228-0.655,0.562-1.217,0.999-1.686c0.436-0.469,0.975-0.827,1.614-1.078c0.639-0.25,1.349-0.374,2.128-0.374
					c1.012,0,1.88,0.212,2.606,0.641c0.725,0.427,1.268,0.979,1.63,1.656c0.36,0.678,0.541,1.369,0.541,2.07
					c0,0.653-0.187,1.075-0.561,1.27C348.13,761.96,347.605,762.058,346.927,762.058 M341.855,760.585h4.701
					c-0.063-0.887-0.302-1.551-0.717-1.99c-0.415-0.44-0.961-0.66-1.638-0.66c-0.646,0-1.177,0.223-1.592,0.668
					C342.194,759.05,341.944,759.711,341.855,760.585"/>
				<path style="fill:#FFFFFF;" d="M357.497,765.21v-0.257c-0.349,0.398-0.692,0.724-1.031,0.973
					c-0.339,0.251-0.705,0.441-1.101,0.57c-0.395,0.132-0.828,0.195-1.296,0.195c-0.621,0-1.196-0.131-1.724-0.393
					c-0.529-0.263-0.987-0.639-1.373-1.125c-0.386-0.488-0.679-1.061-0.878-1.72c-0.2-0.659-0.3-1.371-0.3-2.137
					c0-1.621,0.396-2.886,1.188-3.791c0.791-0.904,1.833-1.357,3.125-1.357c0.747,0,1.377,0.13,1.89,0.384
					c0.512,0.257,1.013,0.652,1.5,1.183v-3.827c0-0.532,0.106-0.934,0.318-1.206c0.212-0.272,0.515-0.408,0.908-0.408
					c0.392,0,0.694,0.125,0.906,0.375c0.212,0.251,0.319,0.618,0.319,1.106v11.436c0,0.494-0.114,0.864-0.342,1.111
					c-0.228,0.246-0.522,0.37-0.883,0.37c-0.355,0-0.648-0.128-0.879-0.384C357.612,766.05,357.497,765.685,357.497,765.21
					 M352.397,761.401c0,0.703,0.108,1.301,0.327,1.795c0.219,0.494,0.518,0.866,0.899,1.115c0.379,0.251,0.794,0.377,1.243,0.377
					c0.456,0,0.873-0.119,1.249-0.357c0.377-0.236,0.678-0.602,0.902-1.091c0.225-0.491,0.338-1.105,0.338-1.839
					c0-0.691-0.113-1.284-0.338-1.782c-0.224-0.496-0.528-0.876-0.912-1.14c-0.383-0.262-0.802-0.392-1.258-0.392
					c-0.474,0-0.899,0.134-1.273,0.402c-0.373,0.269-0.663,0.654-0.869,1.158C352.499,760.152,352.397,760.736,352.397,761.401"/>
				<path style="fill:#FFFFFF;" d="M368.094,753.774v3.96c0.488-0.506,0.985-0.895,1.492-1.163c0.506-0.269,1.133-0.403,1.881-0.403
					c0.861,0,1.615,0.204,2.265,0.611c0.648,0.41,1.152,1.002,1.51,1.777c0.357,0.775,0.537,1.695,0.537,2.76
					c0,0.785-0.1,1.504-0.299,2.16c-0.2,0.655-0.49,1.224-0.869,1.704c-0.381,0.481-0.841,0.854-1.382,1.117
					c-0.542,0.263-1.139,0.393-1.791,0.393c-0.399,0-0.775-0.047-1.125-0.143c-0.352-0.095-0.652-0.219-0.898-0.375
					c-0.246-0.154-0.457-0.314-0.632-0.48c-0.174-0.164-0.404-0.412-0.689-0.741v0.257c0,0.487-0.117,0.856-0.351,1.107
					c-0.233,0.25-0.531,0.374-0.893,0.374c-0.367,0-0.66-0.124-0.878-0.374c-0.219-0.251-0.328-0.62-0.328-1.107v-11.322
					c0-0.525,0.106-0.923,0.318-1.191c0.212-0.269,0.509-0.403,0.888-0.403c0.4,0,0.706,0.128,0.922,0.384
					C367.987,752.935,368.094,753.299,368.094,753.774 M368.218,761.477c0,1.032,0.236,1.824,0.708,2.378
					c0.471,0.555,1.09,0.833,1.857,0.833c0.651,0,1.214-0.283,1.685-0.851c0.472-0.567,0.708-1.379,0.708-2.436
					c0-0.684-0.098-1.273-0.294-1.767c-0.197-0.494-0.475-0.876-0.836-1.145c-0.361-0.268-0.783-0.403-1.263-0.403
					c-0.494,0-0.935,0.135-1.321,0.403c-0.386,0.269-0.69,0.658-0.912,1.168C368.329,760.167,368.218,760.774,368.218,761.477"/>
				<path style="fill:#FFFFFF;" d="M379.141,767.015l0.237-0.58l-3.191-8.035c-0.196-0.461-0.295-0.798-0.295-1.007
					c0-0.222,0.058-0.427,0.171-0.616c0.115-0.191,0.272-0.343,0.47-0.456c0.2-0.115,0.407-0.172,0.623-0.172
					c0.373,0,0.654,0.119,0.845,0.357c0.191,0.237,0.358,0.577,0.503,1.021l2.195,6.382l2.08-5.936
					c0.164-0.479,0.313-0.857,0.446-1.13c0.133-0.273,0.273-0.456,0.422-0.55c0.149-0.096,0.36-0.144,0.632-0.144
					c0.197,0,0.385,0.052,0.566,0.157c0.18,0.104,0.319,0.245,0.417,0.423c0.098,0.177,0.148,0.363,0.148,0.56
					c-0.026,0.119-0.066,0.291-0.124,0.514c-0.058,0.221-0.126,0.447-0.208,0.674l-3.382,8.853
					c-0.292,0.778-0.576,1.389-0.855,1.832c-0.279,0.443-0.647,0.785-1.107,1.021c-0.459,0.238-1.078,0.357-1.857,0.357
					c-0.759,0-1.329-0.082-1.708-0.246c-0.381-0.166-0.57-0.466-0.57-0.903c0-0.297,0.089-0.527,0.271-0.688
					c0.179-0.162,0.447-0.244,0.801-0.244c0.139,0,0.276,0.02,0.409,0.059c0.165,0.037,0.307,0.057,0.427,0.057
					c0.297,0,0.532-0.044,0.703-0.134c0.171-0.088,0.324-0.241,0.461-0.461C378.807,767.761,378.964,767.438,379.141,767.015"/>
				<path style="fill:#FFFFFF;" d="M416.703,756.373h0.618v-0.778c0-0.814,0.101-1.457,0.308-1.938
					c0.204-0.479,0.555-0.826,1.047-1.045c0.49-0.217,1.163-0.326,2.016-0.326c1.521,0,2.273,0.367,2.273,1.114
					c0,0.238-0.079,0.444-0.24,0.615c-0.155,0.169-0.343,0.256-0.558,0.256c-0.101,0-0.278-0.019-0.527-0.06
					c-0.238-0.033-0.453-0.056-0.624-0.056c-0.467,0-0.766,0.141-0.905,0.415c-0.127,0.275-0.194,0.669-0.194,1.185v0.617h0.633
					c0.99,0,1.48,0.297,1.48,0.896c0,0.419-0.127,0.69-0.392,0.805c-0.262,0.114-0.624,0.171-1.089,0.171h-0.633v6.871
					c0,0.511-0.12,0.9-0.369,1.168c-0.241,0.273-0.555,0.406-0.943,0.406c-0.367,0-0.671-0.134-0.918-0.406
					c-0.244-0.268-0.364-0.657-0.364-1.168v-6.871h-0.714c-0.388,0-0.682-0.084-0.893-0.262c-0.209-0.171-0.315-0.399-0.315-0.678
					C415.399,756.681,415.835,756.373,416.703,756.373"/>
				<path style="fill:#FFFFFF;" d="M425.192,762.947v2.168c0,0.523-0.133,0.919-0.374,1.18c-0.246,0.266-0.559,0.395-0.937,0.395
					c-0.382,0-0.688-0.131-0.927-0.4c-0.237-0.264-0.361-0.655-0.361-1.174v-7.223c0-1.166,0.42-1.749,1.261-1.749
					c0.435,0,0.743,0.135,0.935,0.409c0.188,0.273,0.295,0.673,0.316,1.208c0.309-0.535,0.624-0.935,0.948-1.208
					c0.332-0.274,0.763-0.409,1.311-0.409c0.549,0,1.071,0.135,1.585,0.409c0.516,0.273,0.771,0.636,0.771,1.084
					c0,0.314-0.11,0.581-0.326,0.781c-0.22,0.209-0.454,0.311-0.706,0.311c-0.099,0-0.331-0.063-0.691-0.179
					c-0.365-0.114-0.69-0.174-0.963-0.174c-0.381,0-0.692,0.102-0.933,0.299c-0.242,0.204-0.43,0.496-0.564,0.886
					c-0.129,0.395-0.22,0.866-0.273,1.404C425.216,761.509,425.192,762.169,425.192,762.947"/>
				<path style="fill:#FFFFFF;" d="M437.113,762.055h-5.074c0.01,0.589,0.124,1.11,0.354,1.559c0.236,0.446,0.541,0.786,0.925,1.017
					c0.385,0.228,0.804,0.34,1.27,0.34c0.31,0,0.593-0.033,0.849-0.111c0.254-0.069,0.505-0.185,0.746-0.34
					c0.242-0.153,0.46-0.319,0.664-0.5c0.202-0.176,0.466-0.417,0.79-0.72c0.134-0.113,0.324-0.174,0.567-0.174
					c0.27,0,0.481,0.074,0.649,0.222c0.166,0.147,0.244,0.351,0.244,0.617c0,0.235-0.089,0.508-0.269,0.819
					c-0.187,0.317-0.463,0.616-0.836,0.906c-0.374,0.286-0.839,0.527-1.397,0.714c-0.561,0.19-1.206,0.286-1.933,0.286
					c-1.671,0-2.964-0.473-3.887-1.422c-0.924-0.952-1.391-2.242-1.391-3.868c0-0.767,0.117-1.479,0.347-2.135
					c0.226-0.658,0.559-1.216,0.999-1.688c0.436-0.471,0.97-0.828,1.613-1.078c0.637-0.249,1.346-0.374,2.128-0.374
					c1.01,0,1.88,0.214,2.605,0.646c0.725,0.423,1.274,0.977,1.63,1.654c0.36,0.681,0.542,1.368,0.542,2.074
					c0,0.648-0.19,1.07-0.563,1.266C438.315,761.958,437.792,762.055,437.113,762.055 M432.039,760.58h4.701
					c-0.062-0.885-0.298-1.55-0.714-1.986c-0.418-0.442-0.959-0.659-1.64-0.659c-0.646,0-1.177,0.219-1.592,0.668
					C432.381,759.049,432.127,759.707,432.039,760.58"/>
				<path style="fill:#FFFFFF;" d="M447.9,762.055h-5.072c0.006,0.589,0.125,1.11,0.354,1.559c0.232,0.446,0.538,0.786,0.92,1.017
					c0.383,0.228,0.806,0.34,1.273,0.34c0.308,0,0.593-0.033,0.845-0.111c0.258-0.069,0.505-0.185,0.75-0.34
					c0.242-0.153,0.46-0.319,0.664-0.5c0.199-0.176,0.464-0.417,0.788-0.72c0.135-0.113,0.326-0.174,0.567-0.174
					c0.27,0,0.484,0.074,0.65,0.222c0.166,0.147,0.241,0.351,0.241,0.617c0,0.235-0.087,0.508-0.275,0.819
					c-0.176,0.317-0.455,0.616-0.83,0.906c-0.37,0.286-0.84,0.527-1.395,0.714c-0.559,0.19-1.208,0.286-1.935,0.286
					c-1.667,0-2.959-0.473-3.887-1.422c-0.923-0.952-1.388-2.242-1.388-3.868c0-0.767,0.116-1.479,0.347-2.135
					c0.228-0.658,0.56-1.216,0.997-1.688c0.435-0.471,0.972-0.828,1.614-1.078c0.637-0.249,1.35-0.374,2.129-0.374
					c1.008,0,1.878,0.214,2.613,0.646c0.72,0.423,1.266,0.977,1.62,1.654c0.359,0.681,0.546,1.368,0.546,2.074
					c0,0.648-0.192,1.07-0.563,1.266C449.101,761.958,448.576,762.055,447.9,762.055 M442.828,760.58h4.7
					c-0.063-0.885-0.304-1.55-0.715-1.986c-0.421-0.442-0.962-0.659-1.642-0.659c-0.646,0-1.176,0.219-1.594,0.668
					C443.166,759.049,442.912,759.707,442.828,760.58"/>
				<path style="fill:#FFFFFF;" d="M453.58,757.602v0.311c0.486-0.601,0.994-1.042,1.524-1.324c0.518-0.284,1.119-0.427,1.783-0.427
					c0.795,0,1.535,0.208,2.207,0.617c0.671,0.414,1.198,1.016,1.588,1.807c0.39,0.795,0.586,1.73,0.586,2.814
					c0,0.796-0.112,1.531-0.336,2.201c-0.223,0.668-0.537,1.227-0.928,1.68c-0.395,0.45-0.857,0.802-1.391,1.046
					c-0.542,0.241-1.11,0.363-1.727,0.363c-0.739,0-1.365-0.148-1.866-0.447c-0.503-0.292-0.982-0.733-1.441-1.306v3.893
					c0,1.136-0.416,1.71-1.243,1.71c-0.49,0-0.81-0.146-0.973-0.439c-0.15-0.3-0.233-0.725-0.233-1.291v-11.194
					c0-0.495,0.105-0.859,0.319-1.107c0.216-0.239,0.513-0.364,0.886-0.364c0.368,0,0.666,0.125,0.895,0.375
					C453.468,756.771,453.58,757.128,453.58,757.602 M458.664,761.37c0-0.684-0.107-1.273-0.315-1.763
					c-0.208-0.492-0.499-0.867-0.866-1.128c-0.367-0.263-0.782-0.396-1.231-0.396c-0.715,0-1.319,0.284-1.81,0.844
					c-0.492,0.566-0.739,1.396-0.739,2.493c0,1.026,0.244,1.833,0.735,2.406c0.488,0.573,1.086,0.858,1.814,0.858
					c0.429,0,0.83-0.125,1.196-0.372c0.371-0.253,0.665-0.626,0.885-1.126C458.554,762.685,458.664,762.078,458.664,761.37"/>
				<path style="fill:#FFFFFF;" d="M463.881,754.937c-0.363,0-0.669-0.114-0.923-0.335c-0.261-0.223-0.389-0.532-0.389-0.937
					c0-0.368,0.131-0.67,0.398-0.91c0.262-0.234,0.565-0.355,0.914-0.355c0.34,0,0.636,0.107,0.892,0.319
					c0.26,0.219,0.391,0.534,0.391,0.946c0,0.4-0.127,0.711-0.378,0.936C464.532,754.822,464.231,754.937,463.881,754.937
					 M465.164,757.615v7.502c0,0.516-0.123,0.908-0.369,1.172c-0.25,0.269-0.561,0.4-0.941,0.4c-0.381,0-0.685-0.133-0.928-0.406
					c-0.234-0.276-0.357-0.665-0.357-1.166v-7.428c0-0.51,0.122-0.895,0.357-1.154c0.243-0.265,0.547-0.392,0.928-0.392
					c0.38,0,0.691,0.127,0.941,0.392C465.041,756.795,465.164,757.157,465.164,757.615"/>
				<path style="fill:#FFFFFF;" d="M473.524,765.506l-2.284-3.766l-1.408,1.328v2.065c0,0.499-0.133,0.882-0.397,1.149
					c-0.257,0.273-0.566,0.406-0.905,0.406c-0.399,0-0.716-0.131-0.941-0.4c-0.226-0.263-0.343-0.656-0.343-1.174v-11.063
					c0-0.573,0.114-1.011,0.331-1.314c0.222-0.305,0.545-0.452,0.953-0.452c0.398,0,0.713,0.137,0.948,0.411
					c0.234,0.27,0.355,0.674,0.355,1.201v6.294l2.916-3.063c0.362-0.376,0.632-0.641,0.827-0.778
					c0.189-0.139,0.419-0.208,0.689-0.208c0.326,0,0.595,0.103,0.816,0.308c0.211,0.206,0.32,0.466,0.32,0.773
					c0,0.379-0.354,0.889-1.056,1.521l-1.377,1.263l2.659,4.183c0.194,0.314,0.339,0.544,0.424,0.706
					c0.084,0.159,0.13,0.319,0.13,0.462c0,0.413-0.113,0.734-0.341,0.975c-0.224,0.236-0.522,0.354-0.885,0.354
					c-0.317,0-0.564-0.082-0.734-0.256C474.051,766.261,473.813,765.95,473.524,765.506"/>
				<path style="fill:#FFFFFF;" d="M479.159,766.69c-0.392,0-0.728-0.126-1.014-0.381c-0.284-0.249-0.428-0.605-0.428-1.065
					c0-0.386,0.137-0.719,0.41-0.995c0.273-0.279,0.606-0.419,1.008-0.419c0.397,0,0.735,0.14,1.022,0.412
					c0.279,0.275,0.423,0.612,0.423,1.002c0,0.452-0.144,0.808-0.423,1.06C479.871,766.563,479.539,766.69,479.159,766.69"/>
				<path style="fill:#FFFFFF;" d="M492.058,763.479c0,0.32-0.097,0.668-0.291,1.034c-0.19,0.37-0.487,0.718-0.886,1.05
					c-0.394,0.332-0.891,0.602-1.495,0.804c-0.6,0.202-1.279,0.307-2.029,0.307c-1.607,0-2.858-0.47-3.759-1.401
					c-0.895-0.936-1.346-2.189-1.346-3.76c0-1.067,0.204-2.006,0.62-2.824c0.407-0.814,1.003-1.447,1.781-1.894
					c0.778-0.448,1.716-0.671,2.794-0.671c0.673,0,1.288,0.099,1.852,0.296c0.562,0.195,1.032,0.451,1.425,0.759
					c0.388,0.315,0.687,0.644,0.891,0.992c0.207,0.352,0.307,0.681,0.307,0.987c0,0.308-0.113,0.571-0.342,0.787
					c-0.236,0.215-0.516,0.324-0.839,0.324c-0.219,0-0.398-0.057-0.541-0.166c-0.145-0.112-0.305-0.29-0.479-0.542
					c-0.316-0.478-0.646-0.842-0.996-1.079c-0.343-0.243-0.779-0.362-1.313-0.362c-0.762,0-1.384,0.298-1.855,0.897
					c-0.468,0.596-0.702,1.42-0.702,2.454c0,0.488,0.061,0.939,0.183,1.348c0.117,0.407,0.291,0.756,0.52,1.044
					c0.23,0.287,0.504,0.505,0.826,0.654c0.324,0.153,0.682,0.226,1.065,0.226c0.52,0,0.966-0.12,1.337-0.36
					c0.376-0.241,0.702-0.607,0.985-1.103c0.158-0.291,0.327-0.518,0.51-0.684c0.182-0.163,0.409-0.249,0.675-0.249
					c0.317,0,0.581,0.123,0.787,0.362C491.952,762.95,492.058,763.209,492.058,763.479"/>
				<path style="fill:#FFFFFF;" d="M503.249,761.419c0,0.771-0.123,1.484-0.356,2.139c-0.247,0.652-0.592,1.214-1.05,1.679
					c-0.455,0.469-1.002,0.828-1.632,1.08c-0.639,0.248-1.349,0.375-2.138,0.375c-0.785,0-1.493-0.127-2.121-0.383
					c-0.623-0.249-1.171-0.614-1.626-1.082c-0.461-0.477-0.81-1.034-1.052-1.677c-0.23-0.643-0.352-1.354-0.352-2.131
					c0-0.786,0.124-1.506,0.359-2.158c0.242-0.654,0.589-1.212,1.039-1.673c0.45-0.462,0.992-0.816,1.631-1.07
					c0.643-0.249,1.349-0.374,2.121-0.374c0.784,0,1.498,0.125,2.138,0.382c0.638,0.251,1.183,0.614,1.644,1.08
					c0.458,0.474,0.804,1.028,1.04,1.671C503.128,759.928,503.249,760.637,503.249,761.419 M500.645,761.419
					c0-1.058-0.233-1.881-0.697-2.469c-0.463-0.595-1.09-0.889-1.874-0.889c-0.509,0-0.955,0.133-1.344,0.395
					c-0.387,0.262-0.681,0.649-0.89,1.164c-0.209,0.514-0.314,1.113-0.314,1.799c0,0.679,0.102,1.268,0.309,1.773
					c0.208,0.511,0.502,0.897,0.886,1.166c0.386,0.267,0.835,0.404,1.353,0.404c0.784,0,1.411-0.296,1.874-0.892
					C500.411,763.28,500.645,762.46,500.645,761.419"/>
				<path style="fill:#FFFFFF;" d="M513.141,761.609v3.446c0,0.547-0.12,0.951-0.369,1.227c-0.25,0.273-0.571,0.408-0.978,0.408
					c-0.392,0-0.714-0.136-0.951-0.408c-0.247-0.276-0.372-0.681-0.372-1.227v-4.131c0-0.653-0.02-1.162-0.063-1.524
					c-0.046-0.354-0.168-0.655-0.363-0.883c-0.196-0.235-0.508-0.352-0.93-0.352c-0.852,0-1.408,0.29-1.677,0.881
					c-0.269,0.576-0.406,1.413-0.406,2.507v3.502c0,0.538-0.123,0.946-0.362,1.224c-0.249,0.273-0.566,0.412-0.965,0.412
					c-0.395,0-0.716-0.139-0.966-0.412c-0.252-0.277-0.376-0.685-0.376-1.224v-7.419c0-0.489,0.11-0.86,0.335-1.111
					c0.228-0.257,0.525-0.382,0.889-0.382c0.358,0,0.652,0.123,0.893,0.355c0.235,0.238,0.354,0.566,0.354,0.984v0.245
					c0.454-0.535,0.936-0.931,1.445-1.181c0.516-0.26,1.082-0.386,1.713-0.386c0.65,0,1.211,0.131,1.677,0.39
					c0.47,0.261,0.854,0.655,1.161,1.177c0.44-0.528,0.909-0.923,1.41-1.181c0.5-0.257,1.052-0.386,1.662-0.386
					c0.706,0,1.32,0.143,1.834,0.419c0.51,0.278,0.892,0.68,1.146,1.195c0.222,0.473,0.33,1.21,0.33,2.217v5.063
					c0,0.547-0.122,0.951-0.367,1.227c-0.246,0.273-0.574,0.408-0.979,0.408c-0.396,0-0.714-0.139-0.965-0.412
					c-0.25-0.277-0.376-0.685-0.376-1.224v-4.361c0-0.559-0.024-1.003-0.07-1.338c-0.046-0.337-0.176-0.62-0.382-0.847
					c-0.212-0.228-0.531-0.344-0.953-0.344c-0.342,0-0.667,0.107-0.974,0.308c-0.308,0.198-0.548,0.477-0.722,0.813
					C513.239,759.725,513.141,760.499,513.141,761.609"/>
				<path style="fill:#FFFFFF;" d="M392.435,760.791c-0.002-0.005-0.002-0.01-0.002-0.018
					C392.434,760.781,392.434,760.786,392.435,760.791"/>
				<path style="fill:#FFFFFF;" d="M392.566,761.62h0.003c-0.05-0.236-0.088-0.471-0.119-0.702
					C392.481,761.151,392.52,761.387,392.566,761.62"/>
				<path style="fill:#FFFFFF;" d="M393.425,764.026c-0.006-0.01-0.011-0.021-0.017-0.033
					C393.414,764.006,393.419,764.017,393.425,764.026"/>
				<path style="fill:#FFFFFF;" d="M393.343,763.866c-0.022-0.044-0.044-0.09-0.065-0.134
					C393.299,763.779,393.321,763.822,393.343,763.866"/>
				<path style="fill:#FFFFFF;" d="M392.808,762.547c0.127,0.4,0.28,0.788,0.457,1.158c-0.18-0.378-0.33-0.767-0.454-1.158H392.808z
					"/>
				<path style="fill:#FFFFFF;" d="M402.473,750.854c0.502,0,0.871,0.04,1.296,0.111l0.119-0.763c0,0-1.171-0.36-2.71-0.234
					l-0.121-0.415c0.479-0.101,0.838-0.526,0.838-1.034c0-0.582-0.475-1.054-1.058-1.054s-1.055,0.472-1.055,1.054
					c0,0.508,0.358,0.934,0.836,1.034l0.133,0.463c-1.634,0.225-2.935,0.862-2.935,0.862l0.231,0.705
					c0.988-0.329,1.846-0.529,2.624-0.613C401.432,750.89,402.006,750.854,402.473,750.854"/>
				<path style="fill:#FFFFFF;" d="M393.405,754.713l0.006-0.008c0.038-0.05,0.076-0.098,0.113-0.143l-0.313-0.226l-0.488-0.356
					c-0.027,0.038-0.795,0.744-1.401,2.048c-0.025-0.041-0.056-0.081-0.09-0.119c-0.181-0.198-0.435-0.3-0.758-0.294h-0.015
					c-0.2,0-0.337-0.066-0.427-0.147c0.09-0.113,0.144-0.256,0.144-0.413c0-0.368-0.3-0.669-0.67-0.669
					c-0.369,0-0.668,0.301-0.668,0.669c0,0.37,0.299,0.669,0.668,0.669c0.058,0,0.113-0.01,0.167-0.02
					c0.165,0.183,0.425,0.342,0.808,0.334c0.196-0.002,0.341,0.049,0.437,0.155c0.111,0.121,0.149,0.296,0.16,0.428
					c-0.001,0.002-0.001,0.005-0.003,0.005c-0.436,1.19-0.311,2.67-0.311,2.67l1.057,0.042c0.022-0.539,0.099-1.482,0.372-2.231
					C392.719,755.657,393.378,754.751,393.405,754.713"/>
				<path style="fill:#FFFFFF;" d="M411.672,751.738c-0.367,0-0.669,0.299-0.669,0.669c0,0.058,0.01,0.112,0.023,0.165
					c-0.183,0.166-0.342,0.428-0.336,0.811c0.002,0.196-0.048,0.339-0.155,0.435c-0.085,0.075-0.19,0.115-0.296,0.141
					c-0.787-1.103-1.756-1.775-1.756-1.775l-0.758,0.813c0.573,0.521,1.159,1.175,1.728,1.99c0.395,0.564,0.799,1.29,1.137,2.015
					l1.023-0.486c0,0-0.467-1.155-1.126-2.191c0.115-0.04,0.23-0.102,0.331-0.191c0.201-0.182,0.299-0.438,0.293-0.759
					c-0.002-0.208,0.067-0.349,0.149-0.441c0.113,0.087,0.257,0.143,0.411,0.143c0.371,0,0.671-0.3,0.671-0.669
					C412.343,752.037,412.043,751.738,411.672,751.738"/>
				<path style="fill:#FFFFFF;" d="M409.016,760.94c-1.409,0.687-3.729,1.594-6.781,2.02c-1.198,0.166-2.36,0.227-3.429,0.227
					c-1.39,0-2.619-0.104-3.562-0.223c-1.076-0.136-1.917-0.302-2.432-0.417c0.123,0.391,0.273,0.779,0.454,1.157
					c0.003,0.01,0.007,0.021,0.012,0.027c0.022,0.044,0.043,0.09,0.066,0.134c0.021,0.044,0.043,0.087,0.065,0.127
					c0.006,0.012,0.011,0.023,0.017,0.033c0.302,0.57,0.666,1.095,1.08,1.549c1.44,1.575,2.907,1.824,2.921,1.826l0.023,0.003
					l0.022,0.008c0.013,0.005,1.314,0.424,3.29,0.424c1.945,0,3.855-0.392,5.675-1.166c1.348-0.689,2.622-1.736,3.254-2.67
					c0.487-0.723,0.841-1.493,1.05-2.294c0.111-0.426,0.199-1.108,0.146-1.824C410.491,760.148,409.864,760.527,409.016,760.94"/>
				<path style="fill:#FFFFFF;" d="M393.858,755.047c-0.041,0.06-0.652,0.925-1.135,2.253c-0.362,0.995-0.346,2.443-0.346,2.46
					v0.003c0,0.34,0.018,0.677,0.057,1.011c0,0.008,0,0.012,0.002,0.018c0.004,0.043,0.011,0.084,0.015,0.127
					c0.03,0.231,0.069,0.466,0.119,0.701c0.7,0.179,4.878,1.153,9.547,0.503c2.928-0.407,5.149-1.272,6.5-1.927
					c1.12-0.544,1.842-1.036,2.119-1.238c-0.276-1.028-1.042-2.641-1.742-3.646c-2.006-2.865-4.167-3.6-5.277-3.783
					c-0.424-0.069-0.763-0.109-1.244-0.109c-0.447,0-1.002,0.035-1.743,0.114c-0.743,0.077-1.572,0.272-2.532,0.596
					c-1.348,0.45-2.567,1.16-3.527,2.048l-0.033,0.03C394.496,754.337,394.199,754.612,393.858,755.047 M406.128,754.38
					c0.961,0,1.743,0.78,1.743,1.743c0,0.962-0.782,1.744-1.743,1.744c-0.962,0-1.742-0.782-1.742-1.744
					C404.386,755.16,405.166,754.38,406.128,754.38 M397.886,754.31c1.557,0,2.817,1.262,2.817,2.817
					c0,1.556-1.26,2.814-2.817,2.814c-1.555,0-2.816-1.259-2.816-2.814C395.07,755.572,396.331,754.31,397.886,754.31"/>
			</g>
		</g>
	</g>
</g>
</svg>
