<?xml version="1.0" encoding="utf-8"?>
<!-- Generator: Adobe Illustrator 27.5.0, SVG Export Plug-In . SVG Version: 6.00 Build 0)  -->
<svg version="1.1" xmlns="http://www.w3.org/2000/svg" xmlns:xlink="http://www.w3.org/1999/xlink" x="0px" y="0px"
	 viewBox="0 0 500 500" style="enable-background:new 0 0 500 500;" xml:space="preserve">
<g id="background">
	<rect style="fill:#FFFFFF;" width="500" height="500"/>
</g>
<g id="objects">
	<g>
		<rect x="139.034" y="93.797" style="fill:none;" width="221.931" height="22.776"/>
		<text transform="matrix(1 0 0 1 140.0703 116.0675)" style="fill:#DD706B; font-family:'Montserrat-Bold'; font-size:30.0153px;">STEP BY STEP</text>
		<rect x="139.034" y="122.576" style="fill:none;" width="221.931" height="11.875"/>
		
			<text transform="matrix(1 0 0 1 159.021 132.6994)" style="fill:#CED64F; font-family:'Montserrat-Regular'; font-size:13.6433px;">COLORFUL INFOGRAPHIC</text>
	</g>
	<g>
		<polygon style="fill:#F2CB13;" points="363.22,228.111 291.406,186.812 291.587,195.23 284.207,199.281 355.846,240.479 
			363.227,236.427 		"/>
		<polygon style="fill:#F2CB13;" points="472.12,226.801 379.511,280.798 379.692,272.381 372.312,268.33 464.747,214.433 
			472.127,218.485 		"/>
		<polygon style="fill:#F2CB13;" points="158.278,228.111 35.071,157.029 35.253,165.446 27.873,169.497 150.905,240.479 
			158.285,236.427 		"/>
		<polygon style="fill:#F2CB13;" points="259.798,231.415 174.569,280.798 174.75,272.381 167.37,268.33 252.425,219.048 
			259.805,223.099 		"/>
		<g>
			<polygon style="fill:#FFFFFF;" points="134.3,221.589 134.3,176.972 95.661,154.664 57.022,176.972 57.022,221.589 
				95.661,243.897 			"/>
			<polygon style="fill:#F26D8A;" points="131.386,219.906 131.386,178.655 95.661,158.029 59.936,178.655 59.936,219.906 
				95.661,240.532 			"/>
			<g>
				<polygon style="fill:#F26D8A;" points="136.913,343.955 95.161,343.955 95.161,235.006 96.161,235.006 96.161,342.955 
					136.913,342.955 				"/>
			</g>
			<polygon style="fill:#FFFFFF;" points="119,212.756 119,185.806 95.661,172.331 72.322,185.806 72.322,212.756 95.661,226.231 
							"/>
			<rect x="106.305" y="249.667" style="fill:none;" width="42.112" height="9.718"/>
			
				<text transform="matrix(1 0 0 1 106.3049 257.9076)" style="fill:#F26D8A; font-family:'Montserrat-Bold'; font-size:11.1065px;">STEP 1</text>
			<rect x="105.842" y="266.326" style="fill:none;" width="42.575" height="67.102"/>
			<text transform="matrix(1 0 0 1 105.842 271.1342)"><tspan x="0" y="0" style="fill:#F26D8A; font-family:'Montserrat-Regular'; font-size:6.4788px;">Lorem </tspan><tspan x="0" y="7.774" style="fill:#F26D8A; font-family:'Montserrat-Regular'; font-size:6.4788px;">ipsum dolor </tspan><tspan x="0" y="15.549" style="fill:#F26D8A; font-family:'Montserrat-Regular'; font-size:6.4788px;">sit amet, </tspan><tspan x="0" y="23.323" style="fill:#F26D8A; font-family:'Montserrat-Regular'; font-size:6.4788px;">consecte</tspan><tspan x="29.368" y="23.323" style="fill:#F26D8A; font-family:'Montserrat-Regular'; font-size:6.4788px;">-</tspan><tspan x="0" y="31.098" style="fill:#F26D8A; font-family:'Montserrat-Regular'; font-size:6.4788px;">tuer </tspan><tspan x="0" y="38.872" style="fill:#F26D8A; font-family:'Montserrat-Regular'; font-size:6.4788px;">adipiscing </tspan><tspan x="0" y="46.647" style="fill:#F26D8A; font-family:'Montserrat-Regular'; font-size:6.4788px;">elit, sed </tspan><tspan x="0" y="54.422" style="fill:#F26D8A; font-family:'Montserrat-Regular'; font-size:6.4788px;">diam </tspan><tspan x="0" y="62.196" style="fill:#F26D8A; font-family:'Montserrat-Regular'; font-size:6.4788px;">nonummy </tspan></text>
		</g>
		<g>
			<polygon style="fill:#FFFFFF;" points="338.083,221.589 338.083,176.972 299.444,154.664 260.805,176.972 260.805,221.589 
				299.444,243.897 			"/>
			<polygon style="fill:#A0CEFB;" points="335.169,219.906 335.169,178.655 299.444,158.029 263.719,178.655 263.719,219.906 
				299.444,240.532 			"/>
			<g>
				<polygon style="fill:#A0CEFB;" points="341.113,338.402 299.362,338.402 299.362,229.452 300.362,229.452 300.362,337.402 
					341.113,337.402 				"/>
			</g>
			<polygon style="fill:#FFFFFF;" points="322.783,212.756 322.783,185.806 299.444,172.331 276.105,185.806 276.105,212.756 
				299.444,226.231 			"/>
			<rect x="310.506" y="244.113" style="fill:none;" width="42.112" height="9.718"/>
			<text transform="matrix(1 0 0 1 310.5055 252.354)" style="fill:#A0CEFB; font-family:'Montserrat-Bold'; font-size:11.1065px;">STEP 3</text>
			<rect x="310.043" y="260.773" style="fill:none;" width="42.575" height="67.102"/>
			<text transform="matrix(1 0 0 1 310.0426 265.5805)"><tspan x="0" y="0" style="fill:#A0CEFB; font-family:'Montserrat-Regular'; font-size:6.4788px;">Lorem </tspan><tspan x="0" y="7.774" style="fill:#A0CEFB; font-family:'Montserrat-Regular'; font-size:6.4788px;">ipsum dolor </tspan><tspan x="0" y="15.549" style="fill:#A0CEFB; font-family:'Montserrat-Regular'; font-size:6.4788px;">sit amet, </tspan><tspan x="0" y="23.323" style="fill:#A0CEFB; font-family:'Montserrat-Regular'; font-size:6.4788px;">consecte</tspan><tspan x="29.367" y="23.323" style="fill:#A0CEFB; font-family:'Montserrat-Regular'; font-size:6.4788px;">-</tspan><tspan x="0" y="31.098" style="fill:#A0CEFB; font-family:'Montserrat-Regular'; font-size:6.4788px;">tuer </tspan><tspan x="0" y="38.872" style="fill:#A0CEFB; font-family:'Montserrat-Regular'; font-size:6.4788px;">adipiscing </tspan><tspan x="0" y="46.647" style="fill:#A0CEFB; font-family:'Montserrat-Regular'; font-size:6.4788px;">elit, sed </tspan><tspan x="0" y="54.422" style="fill:#A0CEFB; font-family:'Montserrat-Regular'; font-size:6.4788px;">diam </tspan><tspan x="0" y="62.196" style="fill:#A0CEFB; font-family:'Montserrat-Regular'; font-size:6.4788px;">nonummy </tspan></text>
		</g>
		<g>
			<polygon style="fill:#FFFFFF;" points="236.729,281.358 236.729,236.742 198.09,214.433 159.451,236.742 159.451,281.358 
				198.09,303.666 			"/>
			<polygon style="fill:#DC911B;" points="233.815,279.676 233.815,238.424 198.09,217.798 162.365,238.424 162.365,279.676 
				198.09,300.302 			"/>
			<g>
				<polygon style="fill:#DC911B;" points="239.658,406.203 197.907,406.203 197.907,297.254 198.907,297.254 198.907,405.203 
					239.658,405.203 				"/>
			</g>
			<polygon style="fill:#FFFFFF;" points="221.429,272.525 221.429,245.575 198.09,232.1 174.75,245.575 174.75,272.525 198.09,286 
							"/>
			<rect x="209.659" y="310.361" style="fill:none;" width="42.112" height="9.718"/>
			
				<text transform="matrix(1 0 0 1 209.6594 318.6028)" style="fill:#DC911B; font-family:'Montserrat-Bold'; font-size:11.1065px;">STEP 2</text>
			<rect x="209.196" y="327.021" style="fill:none;" width="42.575" height="67.102"/>
			<text transform="matrix(1 0 0 1 209.1965 331.8293)"><tspan x="0" y="0" style="fill:#DC911B; font-family:'Montserrat-Regular'; font-size:6.4788px;">Lorem </tspan><tspan x="0" y="7.774" style="fill:#DC911B; font-family:'Montserrat-Regular'; font-size:6.4788px;">ipsum dolor </tspan><tspan x="0" y="15.549" style="fill:#DC911B; font-family:'Montserrat-Regular'; font-size:6.4788px;">sit amet, </tspan><tspan x="0" y="23.323" style="fill:#DC911B; font-family:'Montserrat-Regular'; font-size:6.4788px;">consecte</tspan><tspan x="29.368" y="23.323" style="fill:#DC911B; font-family:'Montserrat-Regular'; font-size:6.4788px;">-</tspan><tspan x="0" y="31.098" style="fill:#DC911B; font-family:'Montserrat-Regular'; font-size:6.4788px;">tuer </tspan><tspan x="0" y="38.872" style="fill:#DC911B; font-family:'Montserrat-Regular'; font-size:6.4788px;">adipiscing </tspan><tspan x="0" y="46.647" style="fill:#DC911B; font-family:'Montserrat-Regular'; font-size:6.4788px;">elit, sed </tspan><tspan x="0" y="54.422" style="fill:#DC911B; font-family:'Montserrat-Regular'; font-size:6.4788px;">diam </tspan><tspan x="0" y="62.196" style="fill:#DC911B; font-family:'Montserrat-Regular'; font-size:6.4788px;">nonummy </tspan></text>
		</g>
		<polygon style="fill:#FFFFFF;" points="440.93,281.358 440.93,236.742 402.291,214.433 363.652,236.742 363.652,281.358 
			402.291,303.666 		"/>
		<g>
			<polygon style="fill:#B2C83E;" points="443.859,406.203 402.107,406.203 402.107,297.254 403.107,297.254 403.107,405.203 
				443.859,405.203 			"/>
		</g>
		<polygon style="fill:#B2C83E;" points="438.016,279.676 438.016,238.424 402.291,217.798 366.566,238.424 366.566,279.676 
			402.291,300.302 		"/>
		<polygon style="fill:#FFFFFF;" points="425.63,272.525 425.63,245.575 402.291,232.1 378.951,245.575 378.951,272.525 
			402.291,286 		"/>
		<rect x="413.86" y="310.361" style="fill:none;" width="42.112" height="9.718"/>
		<text transform="matrix(1 0 0 1 413.8609 318.6028)" style="fill:#B2C83E; font-family:'Montserrat-Bold'; font-size:11.1065px;">STEP 4</text>
		<rect x="413.397" y="327.021" style="fill:none;" width="42.575" height="67.102"/>
		<text transform="matrix(1 0 0 1 413.398 331.8293)"><tspan x="0" y="0" style="fill:#B2C83E; font-family:'Montserrat-Regular'; font-size:6.4788px;">Lorem </tspan><tspan x="0" y="7.774" style="fill:#B2C83E; font-family:'Montserrat-Regular'; font-size:6.4788px;">ipsum dolor </tspan><tspan x="0" y="15.549" style="fill:#B2C83E; font-family:'Montserrat-Regular'; font-size:6.4788px;">sit amet, </tspan><tspan x="0" y="23.323" style="fill:#B2C83E; font-family:'Montserrat-Regular'; font-size:6.4788px;">consecte</tspan><tspan x="29.368" y="23.323" style="fill:#B2C83E; font-family:'Montserrat-Regular'; font-size:6.4788px;">-</tspan><tspan x="0" y="31.098" style="fill:#B2C83E; font-family:'Montserrat-Regular'; font-size:6.4788px;">tuer </tspan><tspan x="0" y="38.872" style="fill:#B2C83E; font-family:'Montserrat-Regular'; font-size:6.4788px;">adipiscing </tspan><tspan x="0" y="46.647" style="fill:#B2C83E; font-family:'Montserrat-Regular'; font-size:6.4788px;">elit, sed </tspan><tspan x="0" y="54.422" style="fill:#B2C83E; font-family:'Montserrat-Regular'; font-size:6.4788px;">diam </tspan><tspan x="0" y="62.196" style="fill:#B2C83E; font-family:'Montserrat-Regular'; font-size:6.4788px;">nonummy </tspan></text>
		<g>
			<g>
				<path style="fill:#B2C83E;" d="M402.107,260.51c-3.926,0-7.118-3.194-7.118-7.12s3.193-7.12,7.118-7.12s7.12,3.194,7.12,7.12
					S406.033,260.51,402.107,260.51z M402.107,247.566c-3.211,0-5.823,2.613-5.823,5.825c0,3.211,2.612,5.824,5.823,5.824
					s5.825-2.613,5.825-5.824C407.932,250.179,405.318,247.566,402.107,247.566z"/>
			</g>
			<g>
				<path style="fill:#B2C83E;" d="M411.427,269.829h-18.639c-0.358,0-0.648-0.29-0.648-0.648c0-5.495,4.472-9.967,9.967-9.967
					s9.967,4.472,9.967,9.967C412.074,269.539,411.785,269.829,411.427,269.829z M393.46,268.534h17.295
					c-0.332-4.481-4.083-8.024-8.647-8.024C397.543,260.51,393.792,264.053,393.46,268.534z"/>
			</g>
			<g>
				<path style="fill:#B2C83E;" d="M408.428,252.647h-2.204c-3.194,0-6.096-2.01-7.217-5.002c-0.126-0.335,0.044-0.708,0.379-0.834
					c0.332-0.12,0.71,0.046,0.834,0.379c0.933,2.489,3.346,4.162,6.004,4.162h2.204c0.358,0,0.648,0.29,0.648,0.648
					C409.076,252.357,408.786,252.647,408.428,252.647z"/>
			</g>
			<g>
				<path style="fill:#B2C83E;" d="M396.996,252.647h-1.206c-0.358,0-0.648-0.29-0.648-0.648c0-0.358,0.29-0.648,0.648-0.648h1.206
					c1.515,0,2.94-0.59,4.012-1.663c0.252-0.252,0.664-0.252,0.916,0c0.253,0.253,0.253,0.663,0,0.916
					C400.607,251.922,398.857,252.647,396.996,252.647z"/>
			</g>
		</g>
		<g>
			<g>
				<g>
					<path style="fill:#A0CEFB;" d="M297.427,198.206c-0.165,0-0.332-0.064-0.458-0.19l-6.956-6.956
						c-0.253-0.253-0.253-0.663,0-0.916l0.622-0.622c0.818-0.818,2.239-0.815,3.053,0l4.819,4.819
						c0.408,0.408,0.633,0.949,0.633,1.526c0,0.578-0.224,1.119-0.633,1.527l-0.622,0.622
						C297.759,198.142,297.592,198.206,297.427,198.206z M291.387,190.602l6.04,6.04l0.164-0.164c0.337-0.337,0.337-0.884,0-1.221
						l-4.819-4.819c-0.338-0.338-0.886-0.335-1.221,0L291.387,190.602z"/>
				</g>
			</g>
			<g>
				<g>
					<path style="fill:#A0CEFB;" d="M303.066,210.762c-3.305,0.001-6.988-1.679-10.188-4.88c-5.189-5.189-6.381-11.646-2.899-15.702
						c0.117-0.137,0.287-0.219,0.467-0.226c0.196,0.006,0.355,0.064,0.482,0.19l6.956,6.956c0.121,0.121,0.19,0.287,0.19,0.458
						s-0.068,0.337-0.19,0.458c-1.412,1.409-3.319,1.503-4.569,1.361c0.435,0.896,1.229,2.243,2.526,3.54
						c1.298,1.297,2.644,2.09,3.54,2.525c-0.137-1.244-0.05-3.157,1.362-4.567c0.252-0.252,0.664-0.252,0.916,0l6.955,6.956
						c0.127,0.127,0.196,0.302,0.19,0.482c-0.008,0.181-0.089,0.35-0.226,0.467C307.025,210.115,305.119,210.762,303.066,210.762z
						 M290.531,191.579c-2.515,3.583-1.26,8.864,3.263,13.387c4.522,4.522,9.802,5.781,13.386,3.263l-5.931-5.932
						c-1.101,1.675-0.396,3.985-0.388,4.01c0.073,0.229,0.012,0.479-0.158,0.651c-0.168,0.171-0.417,0.231-0.648,0.164
						c-0.109-0.033-2.674-0.834-5.13-3.288l0,0c-2.454-2.454-3.255-5.021-3.289-5.13c-0.07-0.229-0.006-0.478,0.164-0.648
						c0.17-0.167,0.423-0.229,0.649-0.159c0.027,0.007,2.342,0.707,4.012-0.385L290.531,191.579z"/>
				</g>
				<g>
					<path style="fill:#A0CEFB;" d="M308.157,208.937c-0.171,0-0.337-0.068-0.458-0.19l-6.955-6.956
						c-0.253-0.253-0.253-0.663,0-0.916l0.622-0.623l0,0c0.84-0.84,2.211-0.84,3.052,0l4.82,4.82
						c0.408,0.408,0.633,0.949,0.633,1.526s-0.224,1.118-0.633,1.526l-0.623,0.623C308.493,208.869,308.328,208.937,308.157,208.937
						z M302.118,201.334l6.038,6.04l0.165-0.165c0.337-0.337,0.337-0.883,0-1.22l-4.82-4.82c-0.337-0.337-0.883-0.337-1.219,0
						L302.118,201.334z"/>
				</g>
			</g>
			<g>
				<g>
					<path style="fill:#A0CEFB;" d="M304.689,197.607c-0.358,0-0.648-0.29-0.648-0.648c0-1.274-1.038-2.31-2.312-2.31
						c-0.358,0-0.648-0.29-0.648-0.648s0.29-0.648,0.648-0.648c1.988,0,3.607,1.617,3.607,3.605
						C305.337,197.317,305.047,197.607,304.689,197.607z"/>
				</g>
				<g>
					<path style="fill:#A0CEFB;" d="M307.498,197.607c-0.358,0-0.648-0.29-0.648-0.648c0-2.823-2.298-5.119-5.121-5.119
						c-0.358,0-0.648-0.29-0.648-0.648c0-0.358,0.29-0.648,0.648-0.648c3.539,0,6.416,2.877,6.416,6.415
						C308.146,197.317,307.856,197.607,307.498,197.607z"/>
				</g>
				<g>
					<path style="fill:#A0CEFB;" d="M310.244,197.607c-0.358,0-0.648-0.29-0.648-0.648c0-4.337-3.528-7.865-7.866-7.865
						c-0.358,0-0.648-0.29-0.648-0.648c0-0.358,0.29-0.648,0.648-0.648c5.052,0,9.161,4.109,9.161,9.16
						C310.892,197.317,310.602,197.607,310.244,197.607z"/>
				</g>
			</g>
		</g>
		<g>
			<g>
				<path style="fill:#DC911B;" d="M204.545,269.714h-12.91c-1.89,0-3.426-1.536-3.426-3.426v-10.073
					c0-0.358,0.29-0.648,0.648-0.648c0.358,0,0.648,0.29,0.648,0.648v10.073c0,1.176,0.956,2.131,2.131,2.131h12.91
					c1.175,0,2.131-0.956,2.131-2.131v-10.073c0-0.358,0.29-0.648,0.648-0.648c0.358,0,0.648,0.29,0.648,0.648v10.073
					C207.971,268.177,206.435,269.714,204.545,269.714z"/>
			</g>
			<g>
				<path style="fill:#DC911B;" d="M210.379,256.314c-0.129,0-0.259-0.038-0.373-0.118l-11.914-8.371l-11.916,8.373
					c-0.293,0.203-0.696,0.135-0.904-0.158c-0.205-0.293-0.135-0.698,0.158-0.904l12.289-8.634c0.225-0.155,0.522-0.156,0.746,0.001
					l12.288,8.634c0.293,0.205,0.363,0.61,0.156,0.902C210.782,256.219,210.582,256.314,210.379,256.314z"/>
			</g>
			<g>
				<path style="fill:#DC911B;" d="M200.868,269.714h-5.556c-0.358,0-0.648-0.29-0.648-0.648v-5.858c0-1.89,1.537-3.426,3.427-3.426
					c1.888,0,3.425,1.536,3.425,3.426v5.858C201.516,269.424,201.226,269.714,200.868,269.714z M195.96,268.419h4.261v-5.21
					c0-1.176-0.956-2.131-2.13-2.131c-1.176,0-2.131,0.956-2.131,2.131V268.419z"/>
			</g>
		</g>
		<g>
			<g>
				<path style="fill:#F26D8A;" d="M95.661,213.494c-1.784,0-3.234-1.452-3.234-3.235v-5.565c0-0.358,0.29-0.648,0.648-0.648h5.172
					c0.358,0,0.648,0.29,0.648,0.648v5.565C98.895,212.042,97.445,213.494,95.661,213.494z M93.723,205.341v4.918
					c0,1.069,0.869,1.94,1.938,1.94c1.069,0,1.938-0.871,1.938-1.94v-4.918H93.723z"/>
			</g>
			<g>
				<path style="fill:#F26D8A;" d="M95.661,205.341c-0.358,0-0.648-0.29-0.648-0.648v-3.786c0-0.358,0.29-0.648,0.648-0.648
					c0.358,0,0.648,0.29,0.648,0.648v3.786C96.309,205.051,96.019,205.341,95.661,205.341z"/>
			</g>
			<g>
				<path style="fill:#F26D8A;" d="M95.661,201.555c-3.645,0-6.609-2.964-6.609-6.609s2.964-6.609,6.609-6.609
					c3.645,0,6.609,2.964,6.609,6.609S99.306,201.555,95.661,201.555z M95.661,189.633c-2.929,0-5.313,2.384-5.313,5.313
					c0,2.929,2.384,5.313,5.313,5.313c2.929,0,5.313-2.384,5.313-5.313C100.974,192.017,98.59,189.633,95.661,189.633z"/>
			</g>
			<g>
				<path style="fill:#F26D8A;" d="M95.661,199.319c-2.412,0-4.373-1.961-4.373-4.373c0-2.412,1.961-4.373,4.373-4.373
					c2.412,0,4.373,1.961,4.373,4.373C100.034,197.358,98.073,199.319,95.661,199.319z M95.661,191.869
					c-1.697,0-3.078,1.38-3.078,3.078c0,1.697,1.38,3.078,3.078,3.078c1.697,0,3.078-1.38,3.078-3.078
					C98.739,193.249,97.358,191.869,95.661,191.869z"/>
			</g>
		</g>
	</g>
</g>
<g id="designed_by_freepik">
	<g>
		<g>
			<path style="fill:#DD706B;" d="M175.869,474.89c-0.14-0.17-0.34-0.25-0.61-0.25c-0.27,0-0.47,0.09-0.62,0.27
				c-0.14,0.19-0.21,0.46-0.21,0.82v2.6c-0.33-0.359-0.67-0.63-1.02-0.809c-0.35-0.17-0.77-0.26-1.28-0.26
				c-0.87,0-1.58,0.31-2.12,0.92c-0.53,0.62-0.8,1.47-0.8,2.57c0,0.52,0.07,1,0.2,1.449c0.14,0.45,0.33,0.841,0.6,1.17
				c0.26,0.33,0.57,0.58,0.93,0.761c0.35,0.18,0.74,0.27,1.16,0.27c0.32,0,0.62-0.05,0.88-0.14c0.27-0.08,0.52-0.21,0.75-0.38
				c0.23-0.17,0.46-0.391,0.7-0.66v0.17c0,0.32,0.08,0.57,0.23,0.75c0.16,0.17,0.36,0.26,0.6,0.26c0.24,0,0.44-0.09,0.6-0.25
				c0.15-0.17,0.23-0.42,0.23-0.76v-7.75C176.089,475.31,176.019,475.06,175.869,474.89z M174.099,482.06
				c-0.15,0.33-0.35,0.58-0.61,0.74c-0.25,0.16-0.54,0.24-0.84,0.24c-0.31,0-0.59-0.091-0.85-0.261c-0.26-0.17-0.46-0.42-0.61-0.75
				c-0.14-0.34-0.22-0.739-0.22-1.22c0-0.45,0.07-0.85,0.21-1.19c0.14-0.34,0.34-0.6,0.59-0.779c0.25-0.181,0.54-0.28,0.86-0.28
				c0.31,0,0.6,0.09,0.86,0.27c0.26,0.181,0.46,0.441,0.61,0.771c0.16,0.34,0.23,0.74,0.23,1.21
				C174.329,481.31,174.259,481.72,174.099,482.06z"/>
			<path style="fill:#DD706B;" d="M182.919,481.98c-0.17,0-0.3,0.04-0.39,0.12c-0.22,0.2-0.4,0.37-0.53,0.49
				c-0.14,0.12-0.29,0.229-0.45,0.34c-0.17,0.1-0.33,0.18-0.51,0.229c-0.17,0.051-0.36,0.07-0.57,0.07c-0.32,0-0.6-0.08-0.86-0.23
				c-0.26-0.15-0.47-0.381-0.63-0.69c-0.16-0.3-0.24-0.66-0.24-1.05h3.44c0.46,0,0.81-0.07,1.07-0.2c0.25-0.13,0.38-0.42,0.38-0.86
				c0-0.479-0.13-0.94-0.37-1.4c-0.24-0.46-0.61-0.84-1.11-1.13c-0.49-0.29-1.08-0.431-1.76-0.431c-0.53,0-1.01,0.08-1.44,0.25
				c-0.44,0.17-0.8,0.42-1.1,0.73c-0.29,0.32-0.52,0.7-0.67,1.149c-0.16,0.44-0.24,0.921-0.24,1.44c0,1.1,0.32,1.98,0.94,2.62
				c0.63,0.64,1.51,0.97,2.64,0.97c0.49,0,0.93-0.07,1.31-0.2c0.38-0.13,0.69-0.29,0.94-0.479c0.25-0.2,0.44-0.4,0.57-0.61
				c0.12-0.22,0.18-0.399,0.18-0.56c0-0.181-0.05-0.32-0.16-0.42C183.239,482.029,183.099,481.98,182.919,481.98z M179.249,478.909
				c0.28-0.3,0.64-0.449,1.08-0.449c0.46,0,0.83,0.149,1.11,0.449c0.28,0.301,0.44,0.75,0.49,1.351h-3.19
				C178.799,479.67,178.969,479.22,179.249,478.909z"/>
			<path style="fill:#DD706B;" d="M189.919,481.239c-0.18-0.25-0.44-0.47-0.79-0.649c-0.34-0.19-0.79-0.351-1.33-0.48
				c-0.46-0.109-0.82-0.21-1.08-0.28c-0.27-0.079-0.47-0.18-0.63-0.3c-0.15-0.109-0.23-0.27-0.23-0.45c0-0.199,0.1-0.369,0.31-0.51
				c0.22-0.13,0.48-0.2,0.8-0.2c0.31,0,0.55,0.051,0.73,0.16c0.18,0.101,0.34,0.24,0.47,0.41c0.16,0.2,0.31,0.36,0.43,0.46
				c0.13,0.1,0.28,0.16,0.46,0.16c0.25,0,0.45-0.07,0.58-0.2c0.14-0.13,0.2-0.29,0.2-0.49c0-0.189-0.06-0.38-0.19-0.569
				c-0.12-0.19-0.31-0.37-0.55-0.53c-0.24-0.16-0.54-0.28-0.91-0.38c-0.36-0.09-0.77-0.14-1.22-0.14c-0.58,0-1.08,0.09-1.49,0.279
				c-0.41,0.191-0.72,0.441-0.93,0.75c-0.21,0.311-0.31,0.65-0.31,1c0,0.391,0.11,0.73,0.34,1c0.23,0.271,0.53,0.49,0.91,0.65
				c0.38,0.16,0.87,0.32,1.48,0.47c0.53,0.13,0.92,0.271,1.15,0.41c0.24,0.14,0.35,0.37,0.35,0.67c0,0.21-0.11,0.38-0.33,0.54
				c-0.23,0.16-0.52,0.24-0.87,0.24c-0.43,0-0.78-0.08-1.03-0.23c-0.25-0.16-0.46-0.39-0.65-0.71c-0.08-0.16-0.18-0.29-0.28-0.38
				c-0.1-0.09-0.24-0.13-0.42-0.13c-0.21,0-0.39,0.07-0.52,0.2c-0.14,0.14-0.21,0.31-0.21,0.5c0,0.29,0.11,0.58,0.32,0.87
				c0.22,0.29,0.55,0.529,1,0.729c0.45,0.19,0.99,0.29,1.62,0.29c0.66,0,1.22-0.09,1.68-0.27c0.47-0.181,0.82-0.44,1.05-0.79
				c0.24-0.34,0.35-0.761,0.35-1.24C190.179,481.779,190.099,481.489,189.919,481.239z"/>
			<path style="fill:#DD706B;" d="M192.599,477.52c-0.17-0.18-0.38-0.27-0.64-0.27c-0.26,0-0.47,0.09-0.63,0.27
				c-0.16,0.17-0.24,0.43-0.24,0.78v5.029c0,0.341,0.08,0.601,0.24,0.79c0.16,0.181,0.37,0.28,0.63,0.28c0.26,0,0.47-0.09,0.64-0.27
				c0.17-0.181,0.25-0.45,0.25-0.801v-5.079C192.849,477.94,192.769,477.69,192.599,477.52z M192.579,474.93
				c-0.17-0.14-0.37-0.22-0.6-0.22c-0.24,0-0.44,0.08-0.62,0.25c-0.18,0.159-0.27,0.359-0.27,0.609c0,0.28,0.09,0.49,0.26,0.641
				c0.18,0.149,0.39,0.22,0.63,0.22c0.24,0,0.44-0.07,0.61-0.22c0.17-0.16,0.26-0.37,0.26-0.641
				C192.849,475.29,192.759,475.079,192.579,474.93z"/>
			<path style="fill:#DD706B;" d="M200.379,477.579c-0.11-0.22-0.34-0.329-0.68-0.329c-0.23,0-0.43,0.09-0.58,0.25
				c-0.15,0.17-0.22,0.409-0.22,0.71v0.239c-0.31-0.409-0.65-0.71-1.02-0.9c-0.36-0.19-0.79-0.29-1.29-0.29
				c-0.42,0-0.8,0.08-1.15,0.23c-0.35,0.141-0.65,0.36-0.92,0.66c-0.26,0.29-0.47,0.65-0.61,1.07c-0.15,0.43-0.22,0.899-0.22,1.43
				c0,0.71,0.12,1.33,0.36,1.87c0.23,0.54,0.57,0.96,1.01,1.26c0.44,0.311,0.95,0.46,1.54,0.46c0.49,0,0.91-0.1,1.27-0.3
				c0.35-0.2,0.66-0.49,0.93-0.86c-0.01,0.57-0.02,0.99-0.04,1.25c-0.01,0.261-0.07,0.5-0.17,0.73c-0.1,0.23-0.28,0.4-0.53,0.53
				c-0.25,0.13-0.6,0.189-1.06,0.189c-0.22,0-0.42-0.02-0.59-0.059c-0.17-0.04-0.32-0.101-0.44-0.191c-0.12-0.08-0.24-0.18-0.34-0.3
				c-0.1-0.12-0.2-0.24-0.29-0.35c-0.19-0.23-0.42-0.34-0.68-0.34c-0.2,0-0.38,0.069-0.52,0.199c-0.15,0.141-0.22,0.31-0.22,0.53
				c0,0.28,0.13,0.55,0.38,0.82c0.26,0.27,0.63,0.489,1.1,0.66c0.48,0.17,1.02,0.25,1.63,0.25c0.66,0,1.21-0.06,1.65-0.2
				c0.45-0.13,0.81-0.33,1.08-0.61c0.28-0.27,0.48-0.62,0.6-1.04c0.12-0.42,0.19-0.92,0.19-1.51v-5.1
				C200.549,478.119,200.489,477.8,200.379,477.579z M198.589,481.989c-0.16,0.31-0.37,0.551-0.63,0.7
				c-0.26,0.16-0.54,0.24-0.83,0.24c-0.49,0-0.9-0.18-1.21-0.55c-0.31-0.36-0.46-0.9-0.46-1.61c0-0.71,0.15-1.25,0.45-1.63
				c0.3-0.38,0.7-0.58,1.21-0.58c0.51,0,0.93,0.2,1.24,0.6c0.32,0.4,0.48,0.96,0.48,1.681
				C198.839,481.29,198.749,481.67,198.589,481.989z"/>
			<path style="fill:#DD706B;" d="M207.899,479.1c-0.03-0.24-0.11-0.48-0.22-0.69c-0.18-0.369-0.45-0.649-0.82-0.859
				c-0.36-0.2-0.78-0.3-1.24-0.3c-0.48,0-0.9,0.1-1.27,0.29c-0.1,0.05-0.19,0.109-0.29,0.18c-0.25,0.18-0.49,0.42-0.72,0.72v-0.22
				c0-0.21-0.04-0.391-0.11-0.53c-0.08-0.149-0.18-0.26-0.3-0.33c-0.13-0.069-0.27-0.109-0.42-0.109c-0.25,0-0.45,0.079-0.6,0.25
				c-0.15,0.159-0.22,0.409-0.22,0.75v5.079c0,0.341,0.08,0.601,0.25,0.79c0.16,0.181,0.37,0.28,0.62,0.28
				c0.26,0,0.48-0.09,0.64-0.27c0.17-0.181,0.25-0.45,0.25-0.801v-2.199c0-0.721,0.04-1.21,0.13-1.471
				c0.12-0.33,0.31-0.58,0.56-0.77c0.26-0.19,0.55-0.28,0.86-0.28c0.48,0,0.8,0.15,0.96,0.46c0.16,0.311,0.24,0.75,0.24,1.33v2.93
				c0,0.341,0.09,0.601,0.25,0.79c0.16,0.181,0.37,0.28,0.64,0.28c0.25,0,0.46-0.09,0.62-0.27c0.17-0.181,0.25-0.45,0.25-0.801
				v-3.27C207.959,479.67,207.939,479.35,207.899,479.1z"/>
			<path style="fill:#DD706B;" d="M214.769,481.98c-0.17,0-0.29,0.04-0.38,0.12c-0.22,0.2-0.4,0.37-0.54,0.49
				c-0.14,0.12-0.29,0.229-0.45,0.34c-0.16,0.1-0.33,0.18-0.5,0.229c-0.17,0.051-0.35,0.07-0.55,0.07h-0.01c-0.01,0-0.01,0-0.02,0
				c-0.31,0-0.6-0.08-0.86-0.23c-0.26-0.15-0.47-0.381-0.62-0.69c-0.03-0.06-0.06-0.11-0.08-0.17v-0.01
				c-0.11-0.261-0.16-0.561-0.17-0.87h3.44c0.46,0,0.82-0.07,1.07-0.2c0.25-0.13,0.38-0.42,0.38-0.86c0-0.479-0.12-0.94-0.37-1.4
				c-0.24-0.46-0.61-0.84-1.1-1.13c-0.49-0.29-1.08-0.431-1.77-0.431c-0.53,0-1.01,0.08-1.44,0.25c-0.43,0.17-0.8,0.42-1.09,0.73
				c-0.3,0.32-0.53,0.7-0.68,1.149c-0.15,0.44-0.23,0.921-0.23,1.44c0,1.1,0.31,1.98,0.94,2.62c0.62,0.64,1.5,0.97,2.63,0.97
				c0.49,0,0.93-0.07,1.31-0.2c0.01,0,0.03-0.01,0.04-0.01c0.36-0.13,0.66-0.29,0.91-0.47c0.25-0.2,0.43-0.4,0.56-0.61
				c0.12-0.22,0.19-0.399,0.19-0.56c0-0.181-0.06-0.32-0.17-0.42C215.099,482.029,214.949,481.98,214.769,481.98z M211.109,478.909
				c0.28-0.3,0.64-0.449,1.07-0.449c0.46,0,0.83,0.149,1.11,0.449c0.29,0.301,0.45,0.75,0.49,1.351h-3.19
				C210.649,479.67,210.819,479.22,211.109,478.909z"/>
			<path style="fill:#DD706B;" d="M222.639,474.89c-0.14-0.17-0.35-0.25-0.61-0.25c-0.271,0-0.48,0.09-0.62,0.27
				c-0.14,0.19-0.22,0.46-0.22,0.82v2.6c-0.33-0.359-0.66-0.63-1.01-0.809c-0.35-0.17-0.78-0.26-1.28-0.26
				c-0.88,0-1.58,0.31-2.12,0.92c-0.54,0.62-0.81,1.47-0.81,2.57c0,0.52,0.07,1,0.21,1.449c0.13,0.45,0.33,0.841,0.59,1.17
				c0.26,0.33,0.57,0.58,0.93,0.761c0.36,0.18,0.75,0.27,1.17,0.27c0.32,0,0.61-0.05,0.88-0.14c0.27-0.08,0.52-0.21,0.75-0.38
				c0.23-0.17,0.46-0.391,0.69-0.66v0.17c0,0.32,0.08,0.57,0.24,0.75c0.16,0.17,0.35,0.26,0.6,0.26c0.24,0,0.44-0.09,0.59-0.25
				c0.16-0.17,0.24-0.42,0.24-0.76v-7.75C222.859,475.31,222.779,475.06,222.639,474.89z M220.869,482.06
				c-0.15,0.33-0.36,0.58-0.61,0.74c-0.26,0.16-0.54,0.24-0.85,0.24c-0.3,0-0.58-0.091-0.84-0.261c-0.26-0.17-0.46-0.42-0.61-0.75
				c-0.15-0.34-0.22-0.739-0.22-1.22c0-0.45,0.07-0.85,0.21-1.19c0.14-0.34,0.33-0.6,0.59-0.779c0.25-0.181,0.54-0.28,0.86-0.28
				c0.31,0,0.59,0.09,0.85,0.27c0.26,0.181,0.47,0.441,0.62,0.771c0.15,0.34,0.23,0.74,0.23,1.21
				C221.099,481.31,221.019,481.72,220.869,482.06z"/>
			<path style="fill:#DD706B;" d="M233.219,478.88c-0.24-0.521-0.58-0.92-1.02-1.2c-0.44-0.28-0.95-0.42-1.54-0.42
				c-0.5,0-0.93,0.1-1.27,0.28c-0.35,0.18-0.68,0.439-1.01,0.789v-2.689c0-0.32-0.08-0.57-0.22-0.74c-0.15-0.18-0.36-0.26-0.63-0.26
				c-0.25,0-0.45,0.09-0.6,0.27c-0.14,0.181-0.21,0.45-0.21,0.811v7.67c0,0.33,0.07,0.58,0.22,0.75s0.34,0.26,0.59,0.26
				s0.45-0.09,0.61-0.26c0.16-0.17,0.24-0.42,0.24-0.75v-0.17c0.19,0.22,0.35,0.39,0.46,0.5c0.12,0.109,0.26,0.22,0.43,0.33
				c0.17,0.1,0.37,0.19,0.61,0.25c0.24,0.06,0.49,0.1,0.76,0.1c0.44,0,0.85-0.09,1.22-0.27c0.36-0.181,0.68-0.431,0.93-0.761
				c0.26-0.319,0.46-0.71,0.59-1.149c0.14-0.45,0.2-0.93,0.2-1.47C233.579,480.029,233.459,479.409,233.219,478.88z M231.339,482.46
				c-0.32,0.39-0.7,0.58-1.14,0.58c-0.52,0-0.94-0.19-1.26-0.57c-0.32-0.37-0.48-0.91-0.48-1.61c0-0.47,0.08-0.89,0.23-1.229
				c0.15-0.351,0.35-0.61,0.61-0.79c0.27-0.181,0.56-0.28,0.9-0.28c0.32,0,0.61,0.1,0.85,0.28c0.25,0.18,0.44,0.439,0.57,0.77
				c0.13,0.34,0.2,0.74,0.2,1.2C231.819,481.529,231.659,482.079,231.339,482.46z"/>
			<path style="fill:#DD706B;" d="M240.009,477.64c-0.07-0.12-0.16-0.21-0.28-0.28c-0.12-0.069-0.25-0.109-0.38-0.109
				c-0.19,0-0.33,0.029-0.43,0.1c-0.1,0.06-0.2,0.19-0.29,0.37c-0.09,0.189-0.19,0.439-0.3,0.77l-1.41,4.02l-1.49-4.33
				c-0.1-0.3-0.21-0.53-0.34-0.69c-0.13-0.16-0.32-0.239-0.57-0.239c-0.15,0-0.29,0.04-0.42,0.119c-0.14,0.07-0.25,0.181-0.32,0.311
				c-0.08,0.12-0.12,0.26-0.12,0.41c0,0.149,0.07,0.37,0.2,0.689l2.16,5.441l-0.16,0.399c-0.12,0.28-0.22,0.5-0.32,0.65
				c-0.09,0.15-0.19,0.25-0.31,0.309c-0.11,0.061-0.27,0.091-0.47,0.091c-0.09,0-0.18-0.011-0.29-0.04
				c-0.09-0.021-0.19-0.04-0.28-0.04c-0.24,0-0.42,0.06-0.54,0.17c-0.13,0.109-0.19,0.26-0.19,0.46c0,0.3,0.13,0.5,0.39,0.62
				c0.26,0.109,0.64,0.16,1.16,0.16c0.521,0,0.94-0.08,1.25-0.24c0.32-0.16,0.57-0.391,0.75-0.69c0.19-0.3,0.39-0.71,0.58-1.24
				l2.3-6c0.05-0.159,0.1-0.309,0.14-0.46c0.039-0.149,0.06-0.27,0.08-0.35C240.109,477.89,240.079,477.76,240.009,477.64z"/>
		</g>
		<g>
			<path style="fill:#DD706B;" d="M261.319,477.402h0.419v-0.527c0-0.552,0.067-0.987,0.207-1.313
				c0.139-0.324,0.377-0.56,0.71-0.708c0.332-0.147,0.788-0.222,1.367-0.222c1.029,0,1.54,0.249,1.54,0.755
				c0,0.162-0.054,0.302-0.163,0.417c-0.104,0.115-0.232,0.174-0.378,0.174c-0.067,0-0.188-0.013-0.357-0.04
				c-0.161-0.022-0.307-0.038-0.422-0.038c-0.317,0-0.52,0.096-0.614,0.281c-0.086,0.186-0.132,0.453-0.132,0.803v0.418h0.429
				c0.672,0,1.004,0.201,1.004,0.607c0,0.284-0.086,0.468-0.267,0.545c-0.177,0.078-0.423,0.116-0.737,0.116h-0.429v4.656
				c0,0.347-0.082,0.61-0.25,0.792c-0.164,0.185-0.376,0.275-0.639,0.275c-0.249,0-0.455-0.091-0.622-0.275
				c-0.166-0.182-0.247-0.445-0.247-0.792v-4.656h-0.484c-0.263,0-0.462-0.057-0.605-0.178c-0.142-0.115-0.213-0.27-0.213-0.459
				C260.435,477.612,260.73,477.402,261.319,477.402L261.319,477.402z"/>
			<path style="fill:#DD706B;" d="M267.072,481.858v1.469c0,0.355-0.09,0.623-0.253,0.8c-0.168,0.18-0.379,0.268-0.636,0.268
				c-0.259,0-0.466-0.089-0.628-0.272c-0.16-0.179-0.244-0.444-0.244-0.796v-4.895c0-0.79,0.284-1.186,0.854-1.186
				c0.294,0,0.503,0.092,0.633,0.276c0.128,0.186,0.199,0.457,0.215,0.819c0.208-0.362,0.423-0.634,0.643-0.819
				c0.225-0.185,0.517-0.276,0.888-0.276c0.372,0,0.727,0.092,1.074,0.276c0.349,0.186,0.522,0.432,0.522,0.735
				c0,0.214-0.075,0.394-0.221,0.53c-0.149,0.142-0.308,0.211-0.479,0.211c-0.067,0-0.225-0.043-0.47-0.122
				c-0.247-0.077-0.467-0.117-0.652-0.117c-0.258,0-0.47,0.069-0.632,0.202c-0.164,0.139-0.291,0.337-0.382,0.601
				c-0.088,0.268-0.148,0.587-0.185,0.952C267.088,480.883,267.072,481.331,267.072,481.858L267.072,481.858z"/>
			<path style="fill:#DD706B;" d="M275.889,481.98c-0.16,0-0.29,0.04-0.38,0.12c-0.22,0.2-0.399,0.37-0.54,0.479
				c-0.14,0.131-0.279,0.24-0.449,0.341c-0.16,0.109-0.33,0.189-0.5,0.229c-0.181,0.061-0.37,0.08-0.58,0.08
				c-0.311,0-0.601-0.08-0.86-0.23c-0.26-0.16-0.47-0.391-0.63-0.69c-0.15-0.3-0.23-0.66-0.24-1.06h3.44
				c0.46,0,0.819-0.06,1.069-0.19c0.25-0.14,0.38-0.42,0.38-0.86c0-0.479-0.12-0.94-0.37-1.409c-0.239-0.461-0.609-0.83-1.1-1.12
				c-0.49-0.29-1.08-0.431-1.77-0.431c-0.53,0-1.011,0.08-1.44,0.25c-0.43,0.17-0.8,0.41-1.09,0.73c-0.3,0.32-0.53,0.7-0.68,1.14
				c-0.16,0.45-0.23,0.931-0.23,1.45c0,1.1,0.31,1.98,0.94,2.62c0.619,0.64,1.5,0.96,2.63,0.96c0.489,0,0.93-0.061,1.31-0.19
				c0.38-0.13,0.7-0.29,0.95-0.479c0.25-0.2,0.44-0.4,0.57-0.62c0.12-0.21,0.18-0.39,0.18-0.55c0-0.181-0.06-0.32-0.17-0.42
				C276.219,482.029,276.069,481.98,275.889,481.98z M272.228,478.909c0.28-0.3,0.641-0.449,1.07-0.449
				c0.471,0,0.83,0.149,1.12,0.449c0.28,0.29,0.44,0.74,0.48,1.341h-3.19C271.77,479.659,271.939,479.22,272.228,478.909z"/>
			<path style="fill:#DD706B;" d="M283.199,481.98c-0.16,0-0.29,0.04-0.38,0.12c-0.221,0.2-0.4,0.37-0.54,0.479
				c-0.141,0.131-0.28,0.24-0.45,0.341c-0.16,0.109-0.33,0.189-0.51,0.229c-0.17,0.061-0.36,0.08-0.57,0.08
				c-0.31,0-0.6-0.08-0.86-0.23c-0.26-0.16-0.47-0.391-0.619-0.69c-0.16-0.3-0.24-0.66-0.25-1.06h3.44c0.46,0,0.82-0.06,1.07-0.19
				c0.25-0.14,0.38-0.42,0.38-0.86c0-0.479-0.12-0.94-0.37-1.409c-0.24-0.461-0.61-0.83-1.1-1.12c-0.5-0.29-1.08-0.431-1.771-0.431
				c-0.53,0-1.01,0.08-1.44,0.25c-0.439,0.17-0.8,0.41-1.09,0.73c-0.3,0.32-0.529,0.7-0.68,1.14c-0.16,0.45-0.24,0.931-0.24,1.45
				c0,1.1,0.32,1.98,0.95,2.62c0.62,0.64,1.5,0.96,2.63,0.96c0.49,0,0.93-0.061,1.311-0.19c0.38-0.13,0.699-0.29,0.949-0.479
				c0.25-0.2,0.44-0.4,0.56-0.62c0.13-0.21,0.18-0.39,0.18-0.55c0-0.181-0.05-0.32-0.16-0.42
				C283.529,482.029,283.379,481.98,283.199,481.98z M279.529,478.909c0.29-0.3,0.649-0.449,1.08-0.449
				c0.46,0,0.83,0.149,1.119,0.449c0.28,0.29,0.44,0.74,0.481,1.341h-3.19C279.079,479.659,279.249,479.22,279.529,478.909z"/>
			<path style="fill:#DD706B;" d="M291.509,480.6c-0.02-0.65-0.149-1.21-0.38-1.7c-0.27-0.53-0.63-0.939-1.08-1.22
				c-0.46-0.28-0.96-0.42-1.5-0.42c-0.45,0-0.85,0.1-1.2,0.29c-0.359,0.19-0.71,0.49-1.04,0.9v-0.21c0-0.33-0.069-0.569-0.229-0.739
				c-0.16-0.171-0.36-0.25-0.61-0.25s-0.449,0.079-0.6,0.239c-0.15,0.17-0.22,0.42-0.22,0.761v7.579c0,0.391,0.06,0.671,0.159,0.881
				c0.11,0.189,0.33,0.29,0.66,0.29c0.561,0,0.84-0.391,0.84-1.16v-2.63c0.181,0.22,0.36,0.409,0.551,0.569
				c0.14,0.12,0.279,0.221,0.43,0.311c0.34,0.2,0.76,0.3,1.26,0.3c0.42,0,0.811-0.08,1.17-0.24c0.37-0.17,0.681-0.41,0.95-0.71
				c0.26-0.31,0.47-0.69,0.63-1.14c0.15-0.45,0.221-0.95,0.221-1.49C291.52,480.739,291.52,480.67,291.509,480.6z M289.529,482.02
				c-0.15,0.34-0.34,0.59-0.601,0.76c-0.239,0.17-0.52,0.261-0.81,0.261c-0.06,0-0.12,0-0.17-0.02c-0.42-0.03-0.771-0.23-1.06-0.57
				c-0.33-0.38-0.489-0.93-0.489-1.63c0-0.74,0.159-1.3,0.5-1.689c0.329-0.38,0.739-0.57,1.22-0.57c0.31,0,0.59,0.09,0.84,0.27
				c0.25,0.181,0.44,0.431,0.58,0.771c0.15,0.33,0.22,0.729,0.22,1.19c0,0.43-0.06,0.8-0.19,1.109
				C289.559,481.94,289.549,481.98,289.529,482.02z"/>
			<path style="fill:#DD706B;" d="M293.909,477.51c-0.17-0.181-0.38-0.26-0.64-0.26c-0.25,0-0.461,0.079-0.62,0.26
				c-0.16,0.18-0.25,0.44-0.25,0.79v5.029c0,0.341,0.09,0.601,0.25,0.79c0.159,0.181,0.37,0.271,0.62,0.271
				c0.26,0,0.47-0.08,0.64-0.271c0.17-0.18,0.25-0.439,0.25-0.79v-5.079C294.159,477.93,294.079,477.69,293.909,477.51z
				 M293.899,474.93c-0.181-0.15-0.38-0.22-0.61-0.22c-0.23,0-0.44,0.08-0.62,0.239c-0.18,0.16-0.27,0.37-0.27,0.62
				c0,0.271,0.09,0.48,0.27,0.63c0.17,0.15,0.38,0.23,0.62,0.23c0.24,0,0.439-0.08,0.62-0.23c0.17-0.15,0.25-0.359,0.25-0.63
				C294.159,475.29,294.069,475.069,293.899,474.93z"/>
			<path style="fill:#DD706B;" d="M299.827,483.592l-1.548-2.552l-0.954,0.9v1.399c0,0.339-0.09,0.598-0.269,0.779
				c-0.175,0.185-0.384,0.275-0.614,0.275c-0.271,0-0.484-0.089-0.638-0.272c-0.153-0.179-0.232-0.444-0.232-0.796v-7.498
				c0-0.388,0.077-0.684,0.224-0.89c0.151-0.207,0.369-0.307,0.646-0.307c0.271,0,0.483,0.093,0.643,0.279
				c0.158,0.183,0.239,0.456,0.239,0.814v4.265l1.977-2.075c0.245-0.255,0.429-0.435,0.56-0.527
				c0.128-0.095,0.283-0.142,0.467-0.142c0.221,0,0.402,0.07,0.553,0.209c0.143,0.14,0.217,0.316,0.217,0.524
				c0,0.257-0.239,0.603-0.715,1.031l-0.933,0.855l1.802,2.835c0.131,0.213,0.229,0.368,0.287,0.478
				c0.058,0.107,0.088,0.217,0.088,0.313c0,0.28-0.077,0.498-0.23,0.661c-0.152,0.161-0.354,0.24-0.601,0.24
				c-0.214,0-0.382-0.055-0.497-0.174C300.185,484.104,300.024,483.894,299.827,483.592L299.827,483.592z"/>
			<path style="fill:#DD706B;" d="M303.646,484.395c-0.265,0-0.492-0.086-0.686-0.258c-0.192-0.169-0.291-0.411-0.291-0.722
				c0-0.262,0.094-0.487,0.278-0.675c0.186-0.189,0.412-0.283,0.684-0.283c0.268,0,0.498,0.094,0.692,0.279
				c0.19,0.186,0.286,0.414,0.286,0.679c0,0.307-0.097,0.547-0.286,0.718C304.129,484.309,303.903,484.395,303.646,484.395
				L303.646,484.395z"/>
			<path style="fill:#DD706B;" d="M312.389,482.219c0,0.218-0.066,0.453-0.197,0.701c-0.13,0.251-0.331,0.486-0.601,0.712
				c-0.268,0.225-0.604,0.408-1.013,0.544c-0.407,0.137-0.868,0.208-1.376,0.208c-1.089,0-1.938-0.318-2.547-0.949
				c-0.607-0.635-0.912-1.484-0.912-2.549c0-0.723,0.138-1.359,0.419-1.914c0.276-0.552,0.681-0.98,1.208-1.283
				c0.527-0.304,1.162-0.454,1.894-0.454c0.456,0,0.873,0.066,1.255,0.2c0.38,0.132,0.7,0.306,0.966,0.515
				c0.262,0.213,0.465,0.435,0.604,0.672c0.14,0.238,0.208,0.462,0.208,0.669c0,0.209-0.077,0.388-0.232,0.534
				c-0.159,0.146-0.35,0.22-0.568,0.22c-0.148,0-0.27-0.039-0.367-0.113c-0.097-0.076-0.206-0.196-0.324-0.367
				c-0.215-0.324-0.438-0.57-0.675-0.731c-0.232-0.164-0.528-0.245-0.89-0.245c-0.517,0-0.939,0.202-1.257,0.608
				c-0.316,0.403-0.477,0.962-0.477,1.663c0,0.331,0.043,0.637,0.124,0.913c0.079,0.276,0.197,0.513,0.353,0.708
				c0.156,0.194,0.342,0.342,0.561,0.443c0.22,0.103,0.461,0.152,0.721,0.152c0.353,0,0.655-0.081,0.905-0.244
				c0.255-0.163,0.477-0.411,0.669-0.747c0.107-0.197,0.222-0.351,0.345-0.463c0.124-0.111,0.277-0.169,0.458-0.169
				c0.215,0,0.393,0.083,0.533,0.245C312.316,481.861,312.389,482.036,312.389,482.219L312.389,482.219z"/>
			<path style="fill:#DD706B;" d="M319.728,479.369c-0.159-0.43-0.39-0.81-0.699-1.13c-0.311-0.319-0.681-0.56-1.11-0.73
				c-0.44-0.181-0.92-0.26-1.45-0.26c-0.529,0-1.01,0.079-1.439,0.25c-0.431,0.17-0.801,0.409-1.11,0.73
				c-0.3,0.311-0.54,0.69-0.7,1.13c-0.16,0.44-0.24,0.931-0.24,1.46c0,0.53,0.08,1.01,0.231,1.45c0.17,0.43,0.4,0.809,0.72,1.13
				c0.3,0.32,0.681,0.57,1.101,0.74c0.42,0.17,0.899,0.26,1.439,0.26c0.53,0,1.01-0.09,1.45-0.26c0.42-0.17,0.79-0.41,1.101-0.73
				c0.31-0.319,0.55-0.699,0.709-1.14c0.16-0.441,0.24-0.93,0.24-1.45C319.969,480.29,319.889,479.81,319.728,479.369z
				 M317.739,482.48c-0.32,0.41-0.74,0.61-1.271,0.61c-0.359,0-0.66-0.09-0.92-0.271c-0.26-0.189-0.46-0.45-0.6-0.8
				c-0.141-0.34-0.21-0.74-0.21-1.2c0-0.46,0.069-0.87,0.21-1.22c0.14-0.34,0.34-0.61,0.609-0.79c0.261-0.17,0.56-0.26,0.91-0.26
				c0.53,0,0.95,0.2,1.271,0.6c0.31,0.4,0.47,0.96,0.47,1.67C318.209,481.529,318.049,482.079,317.739,482.48z"/>
			<path style="fill:#DD706B;" d="M326.677,480.951v2.336c0,0.371-0.082,0.645-0.251,0.832c-0.169,0.185-0.387,0.276-0.662,0.276
				c-0.267,0-0.484-0.092-0.645-0.276c-0.168-0.188-0.252-0.461-0.252-0.832v-2.8c0-0.442-0.015-0.787-0.043-1.033
				c-0.031-0.239-0.114-0.443-0.246-0.598c-0.133-0.16-0.345-0.238-0.631-0.238c-0.576,0-0.953,0.196-1.136,0.597
				c-0.182,0.391-0.275,0.958-0.275,1.699v2.373c0,0.364-0.083,0.642-0.245,0.829c-0.169,0.186-0.385,0.279-0.654,0.279
				c-0.268,0-0.485-0.094-0.655-0.279c-0.17-0.188-0.255-0.465-0.255-0.829v-5.028c0-0.331,0.076-0.583,0.228-0.753
				c0.155-0.174,0.356-0.259,0.602-0.259c0.242,0,0.441,0.084,0.605,0.241c0.16,0.161,0.24,0.384,0.24,0.667v0.166
				c0.308-0.362,0.634-0.631,0.978-0.8c0.351-0.177,0.733-0.262,1.161-0.262c0.441,0,0.82,0.089,1.137,0.264
				c0.318,0.177,0.579,0.444,0.787,0.798c0.298-0.358,0.616-0.625,0.955-0.8c0.339-0.175,0.714-0.262,1.127-0.262
				c0.479,0,0.896,0.097,1.242,0.284c0.346,0.189,0.605,0.46,0.778,0.81c0.149,0.32,0.224,0.82,0.224,1.503v3.431
				c0,0.371-0.083,0.645-0.249,0.832c-0.167,0.185-0.39,0.276-0.664,0.276c-0.268,0-0.483-0.094-0.653-0.279
				c-0.17-0.188-0.255-0.465-0.255-0.829v-2.956c0-0.378-0.017-0.68-0.047-0.906c-0.032-0.228-0.12-0.421-0.26-0.574
				c-0.144-0.154-0.359-0.232-0.646-0.232c-0.232,0-0.452,0.072-0.66,0.208c-0.208,0.135-0.371,0.323-0.488,0.551
				C326.743,479.674,326.677,480.199,326.677,480.951L326.677,480.951z"/>
		</g>
		<g>
			<path style="fill:#DD706B;" d="M244.872,480.397c-0.001-0.003-0.001-0.006-0.001-0.012
				C244.871,480.391,244.871,480.394,244.872,480.397z"/>
			<path style="fill:#DD706B;" d="M244.961,480.959c0.001,0,0.001,0,0.002,0c-0.034-0.16-0.06-0.319-0.081-0.476
				C244.903,480.642,244.929,480.801,244.961,480.959z"/>
			<path style="fill:#DD706B;" d="M245.542,482.59c-0.004-0.007-0.007-0.015-0.012-0.022
				C245.535,482.575,245.539,482.583,245.542,482.59z"/>
			<path style="fill:#DD706B;" d="M245.487,482.482c-0.015-0.03-0.03-0.061-0.044-0.091
				C245.457,482.422,245.472,482.451,245.487,482.482z"/>
			<path style="fill:#DD706B;" d="M245.124,481.587c0.086,0.271,0.19,0.534,0.31,0.785c-0.122-0.256-0.224-0.52-0.308-0.785
				C245.126,481.587,245.125,481.587,245.124,481.587z"/>
			<path style="fill:#DD706B;" d="M251.675,473.663c0.34,0,0.59,0.026,0.878,0.075l0.081-0.517c0,0-0.794-0.244-1.837-0.159
				l-0.082-0.281c0.324-0.068,0.567-0.357,0.567-0.701c0-0.395-0.321-0.714-0.716-0.714c-0.396,0-0.716,0.319-0.716,0.714
				c0,0.345,0.243,0.633,0.567,0.701l0.09,0.314c-1.107,0.152-1.989,0.585-1.989,0.585l0.156,0.478
				c0.67-0.224,1.251-0.358,1.778-0.416C250.97,473.687,251.358,473.663,251.675,473.663z"/>
			<path style="fill:#DD706B;" d="M245.529,476.277l0.004-0.005c0.026-0.034,0.051-0.065,0.077-0.097l-0.212-0.153l-0.331-0.241
				c-0.019,0.025-0.539,0.504-0.95,1.388c-0.018-0.027-0.038-0.055-0.061-0.081c-0.123-0.134-0.295-0.202-0.514-0.198
				c-0.003,0-0.006,0-0.01,0c-0.135,0-0.228-0.046-0.289-0.101c0.061-0.076,0.097-0.173,0.097-0.28c0-0.249-0.203-0.453-0.454-0.453
				c-0.249,0-0.453,0.204-0.453,0.453c0,0.251,0.204,0.454,0.453,0.454c0.04,0,0.077-0.007,0.113-0.014
				c0.111,0.123,0.288,0.231,0.547,0.225c0.133-0.001,0.231,0.033,0.296,0.105c0.075,0.082,0.1,0.2,0.108,0.29
				c-0.001,0.001-0.001,0.003-0.002,0.003c-0.295,0.807-0.211,1.81-0.211,1.81l0.716,0.028c0.015-0.365,0.067-1.004,0.252-1.512
				C245.064,476.918,245.511,476.304,245.529,476.277z"/>
			<path style="fill:#DD706B;" d="M257.909,474.262c-0.249,0-0.453,0.202-0.453,0.453c0,0.039,0.006,0.076,0.016,0.112
				c-0.124,0.112-0.232,0.29-0.228,0.549c0.002,0.134-0.032,0.23-0.104,0.296c-0.058,0.051-0.13,0.078-0.2,0.096
				c-0.533-0.747-1.19-1.203-1.19-1.203l-0.514,0.551c0.389,0.354,0.785,0.797,1.171,1.349c0.267,0.382,0.542,0.875,0.77,1.366
				l0.693-0.33c0,0-0.316-0.783-0.763-1.485c0.077-0.027,0.155-0.069,0.225-0.13c0.136-0.123,0.202-0.296,0.198-0.514
				c-0.001-0.142,0.045-0.236,0.101-0.3c0.077,0.06,0.174,0.098,0.279,0.098c0.252,0,0.454-0.204,0.454-0.454
				C258.363,474.464,258.161,474.262,257.909,474.262z"/>
			<path style="fill:#DD706B;" d="M256.108,480.498c-0.955,0.466-2.527,1.08-4.596,1.369c-0.812,0.112-1.599,0.154-2.324,0.154
				c-0.942,0-1.775-0.07-2.414-0.151c-0.729-0.092-1.3-0.204-1.648-0.283c0.084,0.266,0.186,0.529,0.308,0.785
				c0.002,0.007,0.005,0.014,0.008,0.019c0.015,0.029,0.029,0.06,0.044,0.091c0.015,0.029,0.029,0.059,0.044,0.086
				c0.004,0.008,0.008,0.016,0.012,0.022c0.205,0.387,0.452,0.742,0.732,1.05c0.976,1.067,1.97,1.236,1.98,1.237l0.016,0.002
				l0.015,0.005c0.009,0.004,0.89,0.288,2.23,0.288c1.319,0,2.613-0.266,3.845-0.791c0.913-0.467,1.777-1.177,2.205-1.81
				c0.331-0.489,0.57-1.012,0.712-1.555c0.075-0.288,0.135-0.75,0.1-1.236C257.108,479.961,256.684,480.218,256.108,480.498z"/>
			<path style="fill:#DD706B;" d="M256.089,476.68c-1.35-1.94-2.819-2.44-3.569-2.561c-0.29-0.05-0.52-0.069-0.841-0.069
				c-0.31,0-0.68,0.02-1.189,0.069c-0.5,0.051-1.06,0.19-1.71,0.41c-0.92,0.3-1.74,0.78-2.39,1.38l-0.02,0.021
				c-0.1,0.09-0.3,0.28-0.53,0.57c-0.03,0.04-0.45,0.63-0.77,1.529c-0.25,0.681-0.24,1.66-0.24,1.67c0,0.23,0.02,0.46,0.04,0.69
				c0,0,0,0,0,0.01c0.01,0.03,0.01,0.05,0.01,0.08c0.02,0.16,0.05,0.32,0.08,0.48c0.48,0.119,3.31,0.779,6.47,0.34
				c1.99-0.28,3.49-0.86,4.41-1.31c0.76-0.359,1.25-0.699,1.44-0.84C257.089,478.46,256.569,477.359,256.089,476.68z
				 M248.569,479.819c-1.06,0-1.91-0.85-1.91-1.91c0-1.05,0.85-1.899,1.91-1.899c1.05,0,1.91,0.85,1.91,1.899
				C250.479,478.97,249.619,479.819,248.569,479.819z M254.149,478.42c-0.65,0-1.181-0.53-1.181-1.19c0-0.65,0.53-1.18,1.181-1.18
				c0.649,0,1.18,0.529,1.18,1.18C255.329,477.89,254.799,478.42,254.149,478.42z"/>
		</g>
	</g>
</g>
</svg>
