<?xml version="1.0" encoding="utf-8"?>
<!-- Generator: Adobe Illustrator 27.5.0, SVG Export Plug-In . SVG Version: 6.00 Build 0)  -->
<svg version="1.1" xmlns="http://www.w3.org/2000/svg" xmlns:xlink="http://www.w3.org/1999/xlink" x="0px" y="0px"
	 viewBox="0 0 500 500" style="enable-background:new 0 0 500 500;" xml:space="preserve">
<g id="Background_Simple">
	<g>
		<path style="fill:#92E3A9;" d="M421.188,115.609c-7.048-5.648-14.807-10.84-23.203-15.883
			c-26.379-15.846-53.532-30.573-81.65-43.107c-28.421-12.67-60.111-25.539-91.737-25.539
			c-71.309,0-206.551,185.036-201.019,253.886c5.533,68.85,162.905,157.373,228.682,162.29
			c65.777,4.918,175.2-122.947,202.863-180.733c14.45-30.185,13.929-67.233,3.362-98.518
			C450.769,145.152,438.001,129.082,421.188,115.609z"/>
		<path style="opacity:0.7;fill:#FFFFFF;" d="M421.188,115.609c-7.048-5.648-14.807-10.84-23.203-15.883
			c-26.379-15.846-53.532-30.573-81.65-43.107c-28.421-12.67-60.111-25.539-91.737-25.539
			c-71.309,0-206.551,185.036-201.019,253.886c5.533,68.85,162.905,157.373,228.682,162.29
			c65.777,4.918,175.2-122.947,202.863-180.733c14.45-30.185,13.929-67.233,3.362-98.518
			C450.769,145.152,438.001,129.082,421.188,115.609z"/>
	</g>
</g>
<g id="Clouds_2">
	<path style="fill:#FFFFFF;stroke:#263238;stroke-linecap:round;stroke-linejoin:round;stroke-miterlimit:10;" d="M219.755,223.605
		c0,0-12.944-34.95-33.655-44.011c-20.711-9.061-38.833,6.472-45.305,15.533c-6.472,9.061-6.472,11.65-12.944,9.061
		c-6.472-2.589-16.827-14.239-31.066-2.589c-14.239,11.65-7.767,22.005-15.533,23.3c-7.767,1.295-18.122-9.061-28.477,0
		c-10.355,9.061-10.355,16.828-10.355,16.828s-14.239-6.472-20.711-1.294c-6.472,5.178-7.767,14.239-7.767,14.239h253.707
		c0,0,9.061-18.122-10.355-25.889C237.876,221.016,228.816,224.899,219.755,223.605z"/>
	<path style="fill:#FFFFFF;stroke:#263238;stroke-linecap:round;stroke-linejoin:round;stroke-miterlimit:10;" d="M315.918,298.361
		c0,0-6.425-17.348-16.705-21.845c-10.28-4.498-19.275,3.212-22.488,7.71c-3.212,4.497-3.212,5.783-6.425,4.497
		c-3.212-1.285-8.353-7.068-15.42-1.285c-7.068,5.783-3.855,10.923-7.71,11.565c-3.855,0.642-8.995-4.498-14.135,0
		c-5.14,4.497-5.14,8.352-5.14,8.352s-7.068-3.212-10.28-0.642c-3.212,2.57-3.855,7.068-3.855,7.068h125.931
		c0,0,4.497-8.995-5.14-12.85C324.913,297.076,320.416,299.004,315.918,298.361z"/>
	<path style="fill:#FFFFFF;stroke:#263238;stroke-linecap:round;stroke-linejoin:round;stroke-miterlimit:10;" d="M457.047,116.217
		c0,0-6.425-17.348-16.705-21.845c-10.28-4.498-19.275,3.213-22.488,7.71c-3.212,4.497-3.212,5.783-6.425,4.497
		c-3.212-1.285-8.353-7.067-15.42-1.285c-7.068,5.783-3.855,10.923-7.71,11.565c-3.855,0.642-8.995-4.498-14.135,0
		c-5.14,4.497-5.14,8.353-5.14,8.353s-7.068-3.213-10.28-0.643c-3.213,2.57-3.855,7.067-3.855,7.067H480.82
		c0,0,4.497-8.995-5.14-12.85C466.043,114.932,461.545,116.86,457.047,116.217z"/>
</g>
<g id="Money_Sign">
	<g>
		<path style="fill:#263238;" d="M449.455,224.649v-3.387c-2.77-0.108-4.834-1.008-6.19-2.702c-1.358-1.694-2.105-4.1-2.239-7.219
			l5.162-1.008c0.053,1.264,0.201,2.379,0.443,3.348c0.242,0.968,0.625,1.714,1.149,2.238c0.525,0.525,1.217,0.787,2.078,0.787
			c0.967,0,1.659-0.289,2.077-0.867c0.416-0.578,0.625-1.311,0.625-2.198c0-1.425-0.33-2.594-0.988-3.508
			c-0.66-0.914-1.512-1.828-2.561-2.742l-4.154-3.63c-0.753-0.672-1.411-1.378-1.976-2.117c-0.564-0.739-1.008-1.573-1.331-2.501
			c-0.323-0.928-0.484-2.01-0.484-3.246c0-2.446,0.699-4.362,2.097-5.747c1.398-1.384,3.28-2.143,5.646-2.278v-3.267h1.734v3.226
			c1.372,0.081,2.501,0.383,3.388,0.907c0.887,0.524,1.593,1.197,2.117,2.016c0.524,0.821,0.913,1.741,1.169,2.763
			c0.255,1.022,0.41,2.084,0.463,3.186l-5.082,0.888c-0.054-1.022-0.161-1.942-0.323-2.763c-0.161-0.82-0.463-1.465-0.907-1.936
			c-0.443-0.47-1.095-0.678-1.956-0.625c-0.914,0.027-1.607,0.323-2.077,0.887c-0.471,0.565-0.706,1.277-0.706,2.138
			c0,1.157,0.255,2.091,0.767,2.803c0.51,0.713,1.143,1.418,1.895,2.117l4.114,3.589c0.86,0.78,1.66,1.627,2.4,2.54
			c0.739,0.915,1.33,1.936,1.774,3.065c0.443,1.129,0.666,2.42,0.666,3.872c0,1.452-0.29,2.749-0.868,3.892
			c-0.578,1.143-1.391,2.064-2.439,2.763c-1.049,0.699-2.299,1.129-3.751,1.291v3.428H449.455z"/>
	</g>
</g>
<g id="Graphics">
	<g>
		<g>
			<g>
				<path style="fill:#263238;" d="M292.926,77.107c-0.828,0-1.5-0.671-1.5-1.5v-8.08c0-0.829,0.672-1.5,1.5-1.5
					c0.828,0,1.5,0.671,1.5,1.5v8.08C294.426,76.436,293.754,77.107,292.926,77.107z"/>
			</g>
			<g>
				<path style="fill:#263238;" d="M296.966,73.067h-8.08c-0.828,0-1.5-0.671-1.5-1.5s0.672-1.5,1.5-1.5h8.08
					c0.828,0,1.5,0.671,1.5,1.5S297.794,73.067,296.966,73.067z"/>
			</g>
		</g>
		<g>
			<g>
				<path style="fill:#263238;" d="M66.692,182.665c-0.828,0-1.5-0.671-1.5-1.5v-8.08c0-0.829,0.672-1.5,1.5-1.5
					c0.828,0,1.5,0.671,1.5,1.5v8.08C68.192,181.993,67.52,182.665,66.692,182.665z"/>
			</g>
			<g>
				<path style="fill:#263238;" d="M70.732,178.624h-8.08c-0.828,0-1.5-0.671-1.5-1.5c0-0.829,0.672-1.5,1.5-1.5h8.08
					c0.828,0,1.5,0.671,1.5,1.5C72.232,177.953,71.56,178.624,70.732,178.624z"/>
			</g>
		</g>
		<g>
			<g>
				<path style="fill:#263238;" d="M321.878,369.846c-0.828,0-1.5-0.671-1.5-1.5v-8.08c0-0.829,0.672-1.5,1.5-1.5
					c0.828,0,1.5,0.671,1.5,1.5v8.08C323.378,369.175,322.707,369.846,321.878,369.846z"/>
			</g>
			<g>
				<path style="fill:#263238;" d="M325.918,365.806h-8.08c-0.828,0-1.5-0.671-1.5-1.5c0-0.829,0.672-1.5,1.5-1.5h8.08
					c0.828,0,1.5,0.671,1.5,1.5C327.418,365.135,326.747,365.806,325.918,365.806z"/>
			</g>
		</g>
		<g>
			<g>
				<path style="fill:#263238;" d="M373.724,171.218c-0.828,0-1.5-0.671-1.5-1.5v-8.08c0-0.829,0.672-1.5,1.5-1.5s1.5,0.671,1.5,1.5
					v8.08C375.224,170.547,374.552,171.218,373.724,171.218z"/>
			</g>
			<g>
				<path style="fill:#263238;" d="M377.764,167.178h-8.08c-0.828,0-1.5-0.671-1.5-1.5s0.672-1.5,1.5-1.5h8.08
					c0.828,0,1.5,0.671,1.5,1.5S378.592,167.178,377.764,167.178z"/>
			</g>
		</g>
		<g>
			<g>
				<path style="fill:#263238;" d="M119.884,371.866c-0.828,0-1.5-0.671-1.5-1.5v-8.08c0-0.829,0.672-1.5,1.5-1.5s1.5,0.671,1.5,1.5
					v8.08C121.384,371.195,120.712,371.866,119.884,371.866z"/>
			</g>
			<g>
				<path style="fill:#263238;" d="M123.924,367.826h-8.08c-0.828,0-1.5-0.671-1.5-1.5c0-0.829,0.672-1.5,1.5-1.5h8.08
					c0.828,0,1.5,0.671,1.5,1.5C125.424,367.155,124.752,367.826,123.924,367.826z"/>
			</g>
		</g>
		
			<circle style="fill:none;stroke:#263238;stroke-linecap:round;stroke-linejoin:round;stroke-miterlimit:10;" cx="321.879" cy="247.303" r="4.713"/>
		<path style="fill:none;stroke:#263238;stroke-linecap:round;stroke-linejoin:round;stroke-miterlimit:10;" d="M169.709,73.587
			c0-2.603-2.11-4.713-4.713-4.713c-2.603,0-4.713,2.11-4.713,4.713c0,2.603,2.11,4.713,4.713,4.713
			C167.599,78.3,169.709,76.19,169.709,73.587z"/>
		<path style="fill:none;stroke:#263238;stroke-linecap:round;stroke-linejoin:round;stroke-miterlimit:10;" d="M40.433,273.899
			c0-1.301-1.055-2.357-2.357-2.357c-1.302,0-2.357,1.055-2.357,2.357c0,1.302,1.055,2.357,2.357,2.357
			C39.377,276.255,40.433,275.2,40.433,273.899z"/>
		<path style="fill:none;stroke:#263238;stroke-linecap:round;stroke-linejoin:round;stroke-miterlimit:10;" d="M287.203,173.238
			c0-1.301-1.055-2.357-2.357-2.357c-1.302,0-2.357,1.055-2.357,2.357s1.055,2.357,2.357,2.357
			C286.148,175.594,287.203,174.539,287.203,173.238z"/>
		
			<circle style="fill:none;stroke:#263238;stroke-linecap:round;stroke-linejoin:round;stroke-miterlimit:10;" cx="421.866" cy="69.547" r="2.357"/>
	</g>
</g>
<g id="Radiance">
	<g>
		
			<line style="fill:none;stroke:#263238;stroke-linecap:round;stroke-linejoin:round;stroke-miterlimit:10;" x1="454.699" y1="174.838" x2="454.699" y2="78.625"/>
		
			<line style="fill:none;stroke:#263238;stroke-linecap:round;stroke-linejoin:round;stroke-miterlimit:10;" x1="435.412" y1="198.269" x2="382.739" y2="142.233"/>
		
			<line style="fill:none;stroke:#263238;stroke-linecap:round;stroke-linejoin:round;stroke-miterlimit:10;" x1="428.743" y1="213.551" x2="276.725" y2="213.551"/>
		
			<line style="fill:none;stroke:#263238;stroke-linecap:round;stroke-linejoin:round;stroke-miterlimit:10;" x1="415.956" y1="198.628" x2="273.513" y2="136.45"/>
		
			<line style="fill:none;stroke:#263238;stroke-linecap:round;stroke-linejoin:round;stroke-miterlimit:10;" x1="429.518" y1="204.548" x2="421.589" y2="201.087"/>
		
			<line style="fill:none;stroke:#263238;stroke-linecap:round;stroke-linejoin:round;stroke-miterlimit:10;" x1="404.024" y1="332.499" x2="400.086" y2="341.409"/>
		
			<line style="fill:none;stroke:#263238;stroke-linecap:round;stroke-linejoin:round;stroke-miterlimit:10;" x1="448.7" y1="231.421" x2="406.133" y2="327.728"/>
		
			<line style="fill:none;stroke:#263238;stroke-linecap:round;stroke-linejoin:round;stroke-miterlimit:10;" x1="454.699" y1="234.111" x2="454.699" y2="284.869"/>
		
			<line style="fill:none;stroke:#263238;stroke-linecap:round;stroke-linejoin:round;stroke-miterlimit:10;" x1="470.008" y1="213.551" x2="477.187" y2="213.551"/>
		
			<line style="fill:none;stroke:#263238;stroke-linecap:round;stroke-linejoin:round;stroke-miterlimit:10;" x1="421.902" y1="235.428" x2="153.036" y2="447.394"/>
		
			<line style="fill:none;stroke:#263238;stroke-linecap:round;stroke-linejoin:round;stroke-miterlimit:10;" x1="432.748" y1="226.877" x2="426.607" y2="231.718"/>
		
			<line style="fill:none;stroke:#263238;stroke-linecap:round;stroke-linejoin:round;stroke-miterlimit:10;" x1="443.806" y1="184.595" x2="433.398" y2="154.673"/>
	</g>
</g>
<g id="Ladder_3">
	<path style="fill:#263238;" d="M282.905,371.05c-0.329,0-0.595,0.266-0.595,0.595v6.566h-16.922v-6.566
		c0-0.329-0.266-0.595-0.595-0.595s-0.595,0.266-0.595,0.595v68.151c0,0.329,0.266,0.595,0.595,0.595s0.595-0.266,0.595-0.595
		v-7.731h16.922v7.731c0,0.329,0.266,0.595,0.595,0.595c0.329,0,0.595-0.266,0.595-0.595v-68.151
		C283.5,371.317,283.233,371.05,282.905,371.05z M265.388,396.956h16.922v7.587h-16.922V396.956z M265.388,405.733h16.922v7.587
		h-16.922V405.733z M282.309,395.766h-16.922v-7.587h16.922V395.766z M265.388,414.51h16.922v7.587h-16.922V414.51z
		 M282.309,379.401v7.587h-16.922v-7.587H282.309z M265.388,430.875v-7.587h16.922v7.587H265.388z"/>
</g>
<g id="Ladder_2">
	<g>
		
			<line style="fill:none;stroke:#263238;stroke-width:6;stroke-linecap:round;stroke-linejoin:round;stroke-miterlimit:10;" x1="103.758" y1="82.559" x2="103.758" y2="426.139"/>
		
			<line style="fill:none;stroke:#263238;stroke-width:6;stroke-linecap:round;stroke-linejoin:round;stroke-miterlimit:10;" x1="195.068" y1="82.559" x2="195.068" y2="426.139"/>
		
			<line style="fill:none;stroke:#263238;stroke-width:6;stroke-linecap:round;stroke-linejoin:round;stroke-miterlimit:10;" x1="105.012" y1="118.66" x2="193.032" y2="118.66"/>
		
			<line style="fill:none;stroke:#263238;stroke-width:6;stroke-linecap:round;stroke-linejoin:round;stroke-miterlimit:10;" x1="105.012" y1="162.91" x2="193.032" y2="162.91"/>
		
			<line style="fill:none;stroke:#263238;stroke-width:6;stroke-linecap:round;stroke-linejoin:round;stroke-miterlimit:10;" x1="105.012" y1="207.16" x2="193.032" y2="207.16"/>
		
			<line style="fill:none;stroke:#263238;stroke-width:6;stroke-linecap:round;stroke-linejoin:round;stroke-miterlimit:10;" x1="105.012" y1="251.41" x2="193.032" y2="251.41"/>
		
			<line style="fill:none;stroke:#263238;stroke-width:6;stroke-linecap:round;stroke-linejoin:round;stroke-miterlimit:10;" x1="105.012" y1="295.66" x2="193.032" y2="295.66"/>
		
			<line style="fill:none;stroke:#263238;stroke-width:6;stroke-linecap:round;stroke-linejoin:round;stroke-miterlimit:10;" x1="105.012" y1="339.911" x2="193.032" y2="339.911"/>
		
			<line style="fill:none;stroke:#263238;stroke-width:6;stroke-linecap:round;stroke-linejoin:round;stroke-miterlimit:10;" x1="105.012" y1="384.161" x2="193.032" y2="384.161"/>
	</g>
</g>
<g id="Ladder_1">
	<path style="fill:#263238;" d="M83.773,310.452c-0.509,0-0.922,0.413-0.922,0.922v10.17H56.64v-10.17
		c0-0.509-0.413-0.922-0.922-0.922c-0.509,0-0.922,0.413-0.922,0.922v105.565c0,0.509,0.413,0.922,0.922,0.922
		c0.509,0,0.922-0.413,0.922-0.922v-11.976h26.212v11.976c0,0.509,0.412,0.922,0.922,0.922s0.922-0.413,0.922-0.922V311.374
		C84.695,310.865,84.282,310.452,83.773,310.452z M56.64,350.579h26.212v11.752H56.64V350.579z M56.64,364.175h26.212v11.752H56.64
		V364.175z M82.852,348.736H56.64v-11.753h26.212V348.736z M56.64,377.771h26.212v11.752H56.64V377.771z M82.852,323.387v11.752
		H56.64v-11.752H82.852z M56.64,403.119v-11.753h26.212v11.753H56.64z"/>
</g>
<g id="Character_1_">
	<g>
		<g>
			<path style="fill:#FFFFFF;stroke:#263238;stroke-linecap:round;stroke-linejoin:round;stroke-miterlimit:10;" d="
				M174.814,282.464c0,0-5.565,25.968-4.328,41.425c1.237,15.457,4.637,50.699,4.637,50.699s-8.656,2.782-11.747,2.473
				c-3.091-0.309-6.183-0.928-4.637,1.855c1.546,2.782,2.473,2.782,6.183,4.946s4.019,3.401,6.801,5.565
				c2.782,2.164,8.347,6.801,10.511,1.855c2.164-4.946,0.618-16.385,0.618-16.385s3.71-21.64,5.565-39.261
				c1.855-17.621,0.618-26.896,0.618-26.896l9.893-26.586L174.814,282.464z"/>
			<g>
				<path style="fill:#92E3A9;stroke:#263238;stroke-linecap:round;stroke-linejoin:round;stroke-miterlimit:10;" d="
					M176.978,380.771c-4.328-2.473-1.855-6.183-1.855-6.183s-8.656,2.782-11.747,2.473c-3.091-0.309-6.183-0.927-4.637,1.855
					c1.546,2.782,2.473,2.782,6.183,4.946c3.71,2.164,4.019,3.401,6.801,5.565c2.782,2.164,8.347,6.801,10.511,1.855
					c1.047-2.394,1.223-6.304,1.128-9.706C181.458,381.931,179.075,381.97,176.978,380.771z"/>
				<path style="fill:#FFFFFF;stroke:#263238;stroke-linecap:round;stroke-linejoin:round;stroke-miterlimit:10;" d="
					M182.233,391.282c0.004-0.009,0.007-0.019,0.01-0.028c-3.117-0.591-7.194-2.219-9.984-4.591
					c-4.221-3.588-4.855-3.166-7.81-4.855c-2.27-1.297-4.411-3.835-5.283-4.944c-0.847,0.189-1.156,0.74-0.428,2.052
					c1.546,2.782,2.473,2.782,6.183,4.946c3.71,2.164,4.019,3.401,6.801,5.565C174.505,391.591,180.069,396.228,182.233,391.282z"/>
			</g>
		</g>
		<g>
			<path style="fill:#FFFFFF;stroke:#263238;stroke-linecap:round;stroke-linejoin:round;stroke-miterlimit:10;" d="
				M135.862,245.676c0,0-5.565,7.729-4.637,11.438c0.927,3.71,5.565,21.331,11.129,38.952c5.564,17.621,5.874,31.223,5.874,31.223
				s-6.801-0.309-12.057-2.164c-5.255-1.855-5.565,1.855-3.401,4.946s11.129,12.366,16.694,16.385
				c5.564,4.019,6.492,4.019,7.729,0.927c1.237-3.091,0.627-18.145-0.61-25.564c-1.237-7.419-0.752-31.648-0.533-36.473
				c0.266-5.857-0.404-10.921-0.404-10.921L135.862,245.676z"/>
			
				<line style="fill:none;stroke:#263238;stroke-linecap:round;stroke-linejoin:round;stroke-miterlimit:10;" x1="135.088" y1="258.62" x2="140.118" y2="259.578"/>
			<g>
				<path style="fill:#92E3A9;stroke:#263238;stroke-linecap:round;stroke-linejoin:round;stroke-miterlimit:10;" d="
					M149.464,332.545c-2.164-3.091-1.236-5.255-1.236-5.255s-6.801-0.309-12.057-2.164c-5.255-1.855-5.565,1.855-3.401,4.946
					c2.164,3.091,11.129,12.366,16.694,16.385c5.565,4.019,6.492,4.019,7.729,0.927c0.607-1.518,0.748-5.402,0.455-12.519
					C155.52,335.854,151.069,334.838,149.464,332.545z"/>
				<path style="fill:#FFFFFF;stroke:#263238;stroke-linecap:round;stroke-linejoin:round;stroke-miterlimit:10;" d="
					M149.464,346.457c5.565,4.019,6.492,4.019,7.729,0.927c0.106-0.265,0.197-0.607,0.275-1.021
					c-4.275-0.179-8.946-2.856-15.181-9.091c-5.926-5.926-9.274-10.17-10.465-11.757c-0.653,1.058-0.216,2.893,0.949,4.557
					C134.934,333.163,143.9,342.438,149.464,346.457z"/>
			</g>
		</g>
		<path style="fill:#263238;stroke:#263238;stroke-linecap:round;stroke-linejoin:round;stroke-miterlimit:10;" d="M160.284,216.926
			l-24.422,28.75c0,0-0.927,14.221,9.274,25.968c10.202,11.747,24.731,16.385,38.643,16.385c13.911,0,17.621-3.71,17.621-3.71
			s13.432-23.232,13.797-37.466c0.318-12.41-1.46-18.248-1.46-18.248S184.088,236.402,160.284,216.926z"/>
		<g>
			<path style="fill:#FFFFFF;stroke:#263238;stroke-linecap:round;stroke-linejoin:round;stroke-miterlimit:10;" d="
				M223.891,130.998c0,2.273-0.957,4.116-2.137,4.116s-2.137-1.843-2.137-4.116c0-2.273,0.957-4.116,2.137-4.116
				S223.891,128.725,223.891,130.998z"/>
			<path style="fill:#FFFFFF;stroke:#263238;stroke-linecap:round;stroke-linejoin:round;stroke-miterlimit:10;" d="
				M236.793,123.859c-0.174,0-0.343,0.036-0.507,0.102l-14.532,2.921v8.232l15.039-1.726c1.366,0,2.474-2.133,2.474-4.764
				C239.267,125.992,238.159,123.859,236.793,123.859z"/>
			<path style="fill:#FFFFFF;stroke:#263238;stroke-linecap:round;stroke-linejoin:round;stroke-miterlimit:10;" d="
				M220.477,128.061l-5.285,0.813l0.34,6.639l4.944-0.555c0.989,0,1.79-1.544,1.79-3.448
				C222.268,129.605,221.466,128.061,220.477,128.061z"/>
		</g>
		<path style="fill:#FFFFFF;stroke:#263238;stroke-linecap:round;stroke-linejoin:round;stroke-miterlimit:10;" d="M221.831,124.959
			c0,0,0.34,2.213,0.766,4.171c0.426,1.958,0,5.532-0.17,5.958c-0.17,0.425-3.064-0.17-3.575,0.596
			c-0.511,0.766,0.851,0.255,2.894,1.702c2.043,1.447,3.064,1.532,4.341,1.787c1.277,0.255,4.851,5.277,4.851,5.277l6.724-2.298
			l-3.745-5.192c0,0,0.766-6.894,0.426-9.533c-0.34-2.638-2.043-3.404-2.809-4.085c-0.766-0.681-3.064-0.17-4-0.085
			c-0.936,0.085-1.106,0.34-1.873,0.085C224.895,123.086,222.001,123.001,221.831,124.959z"/>
		<path style="fill:#FFFFFF;stroke:#263238;stroke-linecap:round;stroke-linejoin:round;stroke-miterlimit:10;" d="M217.717,121.975
			c0,0,0.158,2.533-0.158,3.799c-0.317,1.266-1.425,1.425-0.158,4.432c1.267,3.008,1.267,8.074-0.633,10.923
			s-3.958,6.491-6.491,6.174c-2.533-0.317-4.591-1.741-4.591-1.741l-0.95,5.224l-11.556-3.166c0,0-1.425-9.023,0.633-12.823
			c2.058-3.799,10.765-7.44,14.723-11.081C212.493,120.075,214.709,118.175,217.717,121.975z"/>
		<path style="fill:#FFFFFF;stroke:#263238;stroke-linecap:round;stroke-linejoin:round;stroke-miterlimit:10;" d="M193.021,146.196
			c0,0,12.348,2.85,13.298,3.641c0.95,0.792,2.216,4.908,2.216,4.908l-16.939-4.749L193.021,146.196z"/>
		<polygon style="fill:#92E3A9;stroke:#263238;stroke-linecap:round;stroke-linejoin:round;stroke-miterlimit:10;" points="
			188.691,147.296 208.694,153.32 212.018,158.385 189.855,153.161 		"/>
		<path style="fill:#FFFFFF;stroke:#263238;stroke-linecap:round;stroke-linejoin:round;stroke-miterlimit:10;" d="M141.718,113.742
			c0,0-2.481,0-3.544,1.418c-1.063,1.418-2.481,4.43-1.418,6.557c1.063,2.126,2.126,8.506,2.126,8.506l8.546-1.441
			c0,0,2.441-4.052,2.618-4.584c0.177-0.532,3.013-3.544,2.658-5.139c-0.354-1.595-1.772-0.886-2.127-2.304
			c-0.354-1.418,0.532-3.013-0.532-4.253c-1.063-1.24-3.013-1.063-3.544-0.532s-1.595,1.241-1.595,1.241
			S144.376,112.679,141.718,113.742z"/>
		<path style="fill:#FFFFFF;stroke:#263238;stroke-linecap:round;stroke-linejoin:round;stroke-miterlimit:10;" d="M139.414,135.008
			l-0.532-4.785c0,0,0.354-1.063,3.013-2.304c2.658-1.24,6.642-0.72,6.642-0.72l-0.085,4.796L139.414,135.008z"/>
		<g>
			<path style="fill:#92E3A9;stroke:#263238;stroke-linecap:round;stroke-linejoin:round;stroke-miterlimit:10;" d="
				M231.903,139.918L231.903,139.918c-2.524,1.169-3.943,3.893-3.453,6.631l4.886,20.888l-19.316-9.747
				c0,0-41.113-12.582-43.948-12.05c-2.835,0.532-16.481,8.152-16.481,8.152l-4.785-24.101c0,0-2.658-0.177-5.671,0.886
				c-3.013,1.063-5.493,3.544-5.493,3.544s2.658,29.417,3.899,34.202c1.24,4.785,2.126,8.152,3.19,8.152
				c1.063,0,20.734-7.797,20.734-7.797l6.557,28.176l-19.493,27.468c0,0,8.683,12.759,30.303,15.949s33.316-7.975,33.316-7.975
				l-4.962-35.265l4.607-11.873c0,0,39.872,6.202,41.999,5.848c2.126-0.354,4.253-3.012,3.367-6.202
				c-0.689-2.479-15.508-31.179-21.265-42.176C238.379,139.736,234.865,138.547,231.903,139.918z"/>
			
				<line style="fill:none;stroke:#263238;stroke-linecap:round;stroke-linejoin:round;stroke-miterlimit:10;" x1="246.476" y1="172.924" x2="249.462" y2="174.171"/>
			
				<line style="fill:none;stroke:#263238;stroke-linecap:round;stroke-linejoin:round;stroke-miterlimit:10;" x1="233.336" y1="167.437" x2="242.861" y2="171.415"/>
			
				<line style="fill:none;stroke:#263238;stroke-linecap:round;stroke-linejoin:round;stroke-miterlimit:10;" x1="165.464" y1="168.678" x2="162.274" y2="155.564"/>
			
				<line style="fill:none;stroke:#263238;stroke-linecap:round;stroke-linejoin:round;stroke-miterlimit:10;" x1="153.591" y1="153.792" x2="144.022" y2="157.513"/>
			<path style="fill:none;stroke:#263238;stroke-linecap:round;stroke-linejoin:round;stroke-miterlimit:10;" d="M193.756,189.504
				c0.848,1.253,1.701,2.366,2.543,3.274"/>
			<path style="fill:none;stroke:#263238;stroke-linecap:round;stroke-linejoin:round;stroke-miterlimit:10;" d="M182.122,165.133
				c0,0,4.337,11.875,9.385,20.727"/>
			<path style="fill:none;stroke:#263238;stroke-linecap:round;stroke-linejoin:round;stroke-miterlimit:10;" d="M187.261,187.285
				c0,0,6.202,7.266,9.215,9.747"/>
			
				<line style="fill:none;stroke:#263238;stroke-linecap:round;stroke-linejoin:round;stroke-miterlimit:10;" x1="215.792" y1="185.158" x2="205.691" y2="184.981"/>
			
				<line style="fill:none;stroke:#263238;stroke-linecap:round;stroke-linejoin:round;stroke-miterlimit:10;" x1="164.401" y1="163.539" x2="159.085" y2="156.096"/>
		</g>
		<g>
			<path style="fill:#263238;stroke:#263238;stroke-linecap:round;stroke-linejoin:round;stroke-miterlimit:10;" d="
				M215.501,124.666c0,0-0.792,4.591-5.224,8.232c-4.433,3.641-10.923,3.958-12.031,6.807c-1.108,2.85-1.425,10.765-4.116,15.831
				c-2.691,5.066-8.232,5.857-14.406,3.641c-6.174-2.216-6.332-8.232-11.398-10.765c-5.066-2.533-10.765-2.216-14.881-6.491
				c-4.116-4.274-7.44-9.023-4.908-14.723c2.533-5.699,3.641-5.699,3.641-5.699s-3.799,0.791-4.908,3.166
				c-1.108,2.375,0.158,4.116,0.158,4.116s-3.008-0.792-2.691-4.908c0.317-4.116,5.224-9.498,13.614-10.132
				c8.39-0.633,12.348,3.799,19.313,2.533c6.965-1.267,14.881-16.306,23.113-15.356c8.232,0.95,9.182,6.016,15.356,5.699
				c6.174-0.317,8.548,3.641,6.965,9.657C221.516,122.291,215.501,124.666,215.501,124.666z"/>
			<path style="fill:none;stroke:#FFFFFF;stroke-linecap:round;stroke-linejoin:round;stroke-miterlimit:10;" d="M215.501,124.666
				c0,0-4.274,1.425-9.815-0.95c-5.541-2.375-10.923-2.85-13.298,0.158"/>
			<path style="fill:none;stroke:#FFFFFF;stroke-linecap:round;stroke-linejoin:round;stroke-miterlimit:10;" d="M193.971,120.867
				c0,0,2.691-4.433,7.757-4.749c5.066-0.317,7.282,3.958,10.923,0.633"/>
		</g>
	</g>
</g>
<g id="Cloud_1">
	<path style="fill:#FFFFFF;stroke:#263238;stroke-linecap:round;stroke-linejoin:round;stroke-miterlimit:10;" d="M473.449,458.43
		c0.072-1.074,0.109-2.157,0.109-3.25c0-13.326-5.471-25.37-14.281-34.025c-1.332-30.796-26.71-55.356-57.833-55.356
		c-24.045,0-44.663,14.66-53.413,35.528c-7.724-3.818-16.416-5.972-25.615-5.972c-19.973,0-37.584,10.115-47.991,25.5
		c-4.821-4.087-10.639-7.029-17.042-8.408c-6.352-13.074-19.757-22.088-35.27-22.088c-16.397,0-30.435,10.074-36.282,24.367
		c-2.199-0.383-4.457-0.594-6.766-0.594c-3.499,0-6.889,0.465-10.117,1.326c-10.968-15.197-28.819-25.098-48.993-25.098
		c-10.107,0-19.625,2.495-27.996,6.884c-5.898-3.552-12.805-5.599-20.192-5.599c-17.322,0-32.009,11.242-37.189,26.825
		c-12.633,6.506-21.278,19.667-21.278,34.855c0,1.078,0.043,2.146,0.129,3.202"/>
</g>
</svg>
