<?xml version="1.0" encoding="utf-8"?>
<!-- Generator: Adobe Illustrator 27.5.0, SVG Export Plug-In . SVG Version: 6.00 Build 0)  -->
<svg version="1.1" xmlns="http://www.w3.org/2000/svg" xmlns:xlink="http://www.w3.org/1999/xlink" x="0px" y="0px"
	 viewBox="0 0 500 500" style="enable-background:new 0 0 500 500;" xml:space="preserve">
<g id="Background_Simple">
	<g>
		<g>
			<path style="opacity:0.7;fill:#92E3A9;" d="M441.9,316.91c0,37.44-5.11,65.04-14.92,85.38H69.55
				c-10.08-20.64-15.45-48.74-15.45-87.01c0-142.69,73.72-274.91,192.09-274.91S441.9,174.22,441.9,316.91z"/>
		</g>
		<g>
			<path style="opacity:0.7;fill:#FFFFFF;" d="M441.9,316.91c0,37.44-5.11,65.04-14.92,85.38H69.55
				c-10.08-20.64-15.45-48.74-15.45-87.01c0-142.69,73.72-274.91,192.09-274.91S441.9,174.22,441.9,316.91z"/>
		</g>
	</g>
</g>
<g id="Device">
	<g>
		<g>
			<path style="fill:#BFBFBF;stroke:#263238;stroke-miterlimit:10;" d="M307.683,328.406H188.317
				c-8.914,0-16.139-7.226-16.139-16.14V153.238c0-8.914,7.226-16.139,16.139-16.139h119.366c8.914,0,16.139,7.226,16.139,16.139
				v159.028C323.822,321.18,316.596,328.406,307.683,328.406z"/>
			<g>
				<path style="fill:#263238;" d="M297.014,306.692H189.972c-5.903,0-10.688-4.785-10.688-10.688v-140.63
					c0-5.903,4.785-10.688,10.688-10.688h107.042c5.903,0,10.688,4.785,10.688,10.688v140.63
					C307.702,301.907,302.917,306.692,297.014,306.692z"/>
				<path style="opacity:0.1;fill:#FFFFFF;" d="M297.014,306.692H189.972c-5.903,0-10.688-4.785-10.688-10.688v-140.63
					c0-5.903,4.785-10.688,10.688-10.688h107.042c5.903,0,10.688,4.785,10.688,10.688v140.63
					C307.702,301.907,302.917,306.692,297.014,306.692z"/>
				<g>
					<g>
						<g>
							<g>
								<path style="fill:#92E3A9;" d="M212.078,168.658c-0.503-0.123-1.046,0.193-1.214,0.707l-0.51,2.463l-7.764-1.238
									c-0.486-0.078-0.982,0.236-1.141,0.721l-1.025,3.626c-0.168,0.513,0.103,1.029,0.605,1.153
									c0.502,0.123,1.046-0.193,1.215-0.706l0.744-2.769l1.683,0.268l-1.364,4.894l0.028-0.007l-2.404,8.496
									c-0.147,0.518,0.147,1.02,0.657,1.122c0.189,0.037,0.381,0.014,0.556-0.056c0.295-0.119,0.54-0.373,0.632-0.699l2.079-7.347
									l0,0v0l0.06-0.21c0.111-0.326,0.406-0.905,1.091-0.775c0,0,0,0,0,0l1.566,0.297l-2.557,3.236
									c-0.341,0.432-0.289,1.028,0.116,1.331c0.406,0.304,1.011,0.2,1.352-0.232l3.518-4.452c0.21-0.266,0.279-0.609,0.183-0.91
									c-0.096-0.301-0.345-0.519-0.659-0.579l-1.412-0.268l0.777-3.168l1.865,0.297c0.178,0.028,0.358,0.004,0.521-0.062
									c0.283-0.114,0.519-0.353,0.62-0.66l0.79-3.321C212.852,169.297,212.58,168.781,212.078,168.658z"/>
								<path style="fill:#92E3A9;" d="M208.162,170.721c0.991-0.399,1.539-1.498,1.223-2.454c-0.316-0.956-1.375-1.408-2.366-1.009
									c-0.991,0.399-1.539,1.498-1.223,2.454C206.111,170.669,207.171,171.121,208.162,170.721z"/>
							</g>
							<circle style="fill:none;stroke:#999999;stroke-width:2;stroke-miterlimit:10;" cx="205.988" cy="176.905" r="15.241"/>
							
								<path style="fill:none;stroke:#92E3A9;stroke-width:2;stroke-linecap:round;stroke-linejoin:round;stroke-miterlimit:10;" d="
								M205.988,192.146c-8.417,0-15.241-6.824-15.241-15.241s6.824-15.241,15.241-15.241c8.417,0,15.241,6.824,15.241,15.241"/>
						</g>
						<g>
							<g>
								<g>
									<g>
										<g>
											<g>
												<path style="fill:#92E3A9;" d="M271.259,213.708c-0.1,0-0.2-0.041-0.272-0.121l-2.609-2.908
													c-0.135-0.15-0.122-0.381,0.028-0.515c0.15-0.135,0.381-0.122,0.515,0.028l2.609,2.908
													c0.135,0.15,0.122,0.381-0.028,0.515C271.433,213.677,271.345,213.708,271.259,213.708z"/>
											</g>
										</g>
										<path style="fill:#92E3A9;" d="M269.203,204.932v-0.465h-1.489v0.498c-2.886,0.415-5.155,2.898-5.113,5.897
											c0.046,3.328,2.729,6.01,5.965,5.965c3.289-0.046,5.965-2.676,5.965-5.965
											C274.53,207.788,272.193,205.251,269.203,204.932z M268.566,216.096c-2.887,0-5.235-2.348-5.235-5.235
											c0-2.887,2.349-5.235,5.235-5.235c2.887,0,5.235,2.348,5.235,5.235C273.801,213.748,271.452,216.096,268.566,216.096z"/>
										<g>
											<rect x="267.467" y="203.263" style="fill:#92E3A9;" width="1.983" height="1.008"/>
										</g>
										<g style="opacity:0.6;">
											<g>
												<g>
													<path style="fill:#92E3A9;" d="M271.259,213.708c-0.1,0-0.2-0.041-0.272-0.121l-2.609-2.908
														c-0.135-0.15-0.122-0.381,0.028-0.515c0.15-0.135,0.381-0.122,0.515,0.028l2.609,2.908
														c0.135,0.15,0.122,0.381-0.028,0.515C271.433,213.677,271.345,213.708,271.259,213.708z"/>
												</g>
											</g>
											<path style="fill:#92E3A9;" d="M269.203,204.932v-0.465h-1.489v0.498c-2.886,0.415-5.155,2.898-5.113,5.897
												c0.046,3.328,2.729,6.01,5.965,5.965c3.289-0.046,5.965-2.676,5.965-5.965
												C274.53,207.788,272.193,205.251,269.203,204.932z M268.566,216.096c-2.887,0-5.235-2.348-5.235-5.235
												c0-2.887,2.349-5.235,5.235-5.235c2.887,0,5.235,2.348,5.235,5.235C273.801,213.748,271.452,216.096,268.566,216.096z"/>
											<g>
												<rect x="267.467" y="203.263" style="fill:#92E3A9;" width="1.983" height="1.008"/>
											</g>
										</g>
									</g>
								</g>
								<g>
									<g>
										<path style="fill:#FFFFFF;" d="M194.061,274.425c-0.919,0-1.496,0.498-1.496,1.811v1.969h-2.73v-1.785
											c0-2.939,1.47-4.619,4.304-4.619c2.834,0,4.304,1.68,4.304,4.619c0,5.774-5.748,7.927-5.748,10.944
											c0,0.132,0,0.263,0.026,0.393h5.459v2.625h-8.346v-2.257c0-5.407,5.722-6.299,5.722-11.601
											C195.557,274.871,194.979,274.425,194.061,274.425z"/>
										<path style="fill:#FFFFFF;" d="M199.544,284.424l5.249-12.414h3.149v12.414h1.364v2.625h-1.364v3.333h-2.835v-3.333
											h-5.564V284.424z M205.108,284.424v-6.902l-2.913,6.902H205.108z"/>
										<path style="fill:#FFFFFF;" d="M213.215,284.45v1.706c0,1.313,0.578,1.785,1.496,1.785c0.919,0,1.496-0.473,1.496-1.785
											v-4.042c0-1.312-0.578-1.811-1.496-1.811c-0.918,0-1.496,0.499-1.496,1.811v0.552h-2.73l0.525-10.656h7.611v2.625h-5.013
											l-0.236,4.383c0.525-0.866,1.365-1.339,2.52-1.339c2.126,0,3.202,1.496,3.202,4.199v4.095c0,2.939-1.47,4.619-4.304,4.619
											c-2.834,0-4.304-1.68-4.304-4.619v-1.522H213.215z"/>
									</g>
									<g>
										<path style="fill:#92E3A9;" d="M225.557,280.033h-1.27l-0.218-1.453h-1.545l-0.217,1.453h-1.156l1.282-8.011h1.842
											L225.557,280.033z M222.684,277.492h1.213l-0.606-4.051L222.684,277.492z"/>
										<path style="fill:#92E3A9;" d="M229.789,277.046v1.065c0,1.282-0.641,2.015-1.877,2.015c-1.236,0-1.876-0.732-1.876-2.015
											v-4.166c0-1.281,0.641-2.014,1.876-2.014c1.236,0,1.877,0.732,1.877,2.014v0.778h-1.19v-0.858
											c0-0.572-0.252-0.789-0.652-0.789c-0.401,0-0.652,0.217-0.652,0.789v4.326c0,0.572,0.251,0.778,0.652,0.778
											c0.4,0,0.652-0.206,0.652-0.778v-1.145H229.789z"/>
										<path style="fill:#92E3A9;" d="M230.186,272.022h3.891v1.145h-1.316v6.866h-1.259v-6.866h-1.316V272.022z"/>
										<path style="fill:#92E3A9;" d="M234.624,272.022h1.259v8.011h-1.259V272.022z"/>
										<path style="fill:#92E3A9;" d="M238.697,278.557l0.961-6.534h1.156l-1.236,8.011h-1.877l-1.236-8.011h1.27
											L238.697,278.557z"/>
										<path style="fill:#92E3A9;" d="M242.654,275.398h1.728v1.145h-1.728v2.346h2.174v1.145h-3.433v-8.011h3.433v1.145h-2.174
											V275.398z"/>
										<path style="fill:#92E3A9;" d="M225.133,287.53v1.064c0,1.282-0.641,2.015-1.877,2.015c-1.236,0-1.876-0.732-1.876-2.015
											v-4.165c0-1.282,0.641-2.015,1.876-2.015c1.236,0,1.877,0.732,1.877,2.015v0.778h-1.19v-0.858
											c0-0.572-0.252-0.79-0.652-0.79c-0.401,0-0.652,0.218-0.652,0.79v4.325c0,0.572,0.251,0.778,0.652,0.778
											c0.4,0,0.652-0.206,0.652-0.778v-1.145H225.133z"/>
										<path style="fill:#92E3A9;" d="M229.971,290.518h-1.27l-0.218-1.453h-1.545l-0.217,1.453h-1.156l1.282-8.011h1.842
											L229.971,290.518z M227.099,287.977h1.213l-0.606-4.051L227.099,287.977z"/>
										<path style="fill:#92E3A9;" d="M230.552,282.507h1.259v6.866h2.071v1.145h-3.331V282.507z"/>
									</g>
								</g>
								<g>
									<g>
										<g>
											<g>
												<g>
													<path style="fill:#92E3A9;" d="M258.675,234.262l1.2-0.07c-1.199,1.098-2.629,2.443-4.27,3.539l-1.116,0.719
														c-0.006,0.005-0.017,0.01-0.025,0.015l-1.085-0.797c-1.385-1.054-2.314-2.241-3.346-3.334l1.557,0.087l0.915-2.267
														l1.366,4.798l1.271-2.71l0.793,1.511l0.935-2.646l0.8,2.583L258.675,234.262z"/>
													<path style="fill:#92E3A9;" d="M260.47,233.069h-1.889l-0.593,0.858l-1.138-2.825l-0.974,2.759l-0.751-1.433
														l-1.012,1.947l-1.572-4.95l-1.193,3.61h-2.109c-1.294-1.47-1.728-2.915-0.056-4.199
														c2.092-1.609,4.515-0.11,5.742,0.863c1.294-0.902,4.133-2.749,6.312-0.347
														C262.333,230.559,261.675,231.871,260.47,233.069z"/>
												</g>
											</g>
										</g>
									</g>
									<g>
										<g>
											<path style="fill:#FFFFFF;" d="M189.532,224.361c2.231,0,2.729-0.945,3.176-2.029h1.942v16.149h-2.887v-12.32h-2.231
												V224.361z"/>
											<path style="fill:#FFFFFF;" d="M202.364,224.454c-0.918,0-1.496,0.439-1.496,1.592v1.731h-2.729v-1.569
												c0-2.584,1.47-4.061,4.304-4.061c2.834,0,4.304,1.477,4.304,4.061c0,5.076-5.748,6.968-5.748,9.621
												c0,0.116,0,0.231,0.026,0.346h5.459v2.308h-8.346v-1.984c0-4.753,5.721-5.537,5.721-10.198
												C203.86,224.846,203.283,224.454,202.364,224.454z"/>
											<path style="fill:#FFFFFF;" d="M212.755,224.454c-0.919,0-1.496,0.439-1.496,1.592v1.731h-2.729v-1.569
												c0-2.584,1.47-4.061,4.304-4.061s4.304,1.477,4.304,4.061c0,5.076-5.748,6.968-5.748,9.621c0,0.116,0,0.231,0.026,0.346
												h5.459v2.308h-8.346v-1.984c0-4.753,5.721-5.537,5.721-10.198C214.25,224.846,213.673,224.454,212.755,224.454z"/>
										</g>
										<g>
											<path style="fill:#92E3A9;" d="M226.897,228.515v0.463c0,1.331-0.463,2.182-1.494,2.608
												c1.241,0.426,1.726,1.406,1.726,2.775v1.054c0,1.998-1.2,3.071-3.514,3.071h-3.64v-12.948h3.493
												C225.866,225.537,226.897,226.517,226.897,228.515z M222.289,227.387v3.422h0.905c0.863,0,1.389-0.333,1.389-1.368
												v-0.722c0-0.925-0.357-1.331-1.178-1.331H222.289z M222.289,232.659v3.976h1.326c0.778,0,1.199-0.314,1.199-1.276v-1.129
												c0-1.202-0.442-1.572-1.494-1.572H222.289z"/>
											<path style="fill:#92E3A9;" d="M235.375,228.737v1.683c0,2.072-1.136,3.199-3.451,3.199h-1.094v4.865h-2.314v-12.948
												h3.409C234.239,225.537,235.375,226.666,235.375,228.737z M230.83,227.387v4.383h1.094c0.736,0,1.136-0.295,1.136-1.221
												v-1.942c0-0.925-0.4-1.221-1.136-1.221H230.83z"/>
											<path style="fill:#92E3A9;" d="M241.455,234.73l1.578-9.193h3.219v12.948h-2.188v-9.286l-1.599,9.286h-2.188
												l-1.725-9.156v9.156h-2.02v-12.948h3.219L241.455,234.73z"/>
										</g>
									</g>
								</g>
								<g>
									<g>
										<path style="fill:#FFFFFF;" d="M195.034,251.698c0-1.653-0.578-2.1-1.496-2.1c-0.919,0-1.496,0.499-1.496,1.811v1.182
											h-2.729v-0.997c0-2.939,1.47-4.619,4.304-4.619c2.835,0,4.305,1.68,4.305,4.619v0.472c0,1.969-0.63,3.202-2.021,3.779
											c1.443,0.63,2.021,1.995,2.021,3.858v1.443c0,2.939-1.47,4.619-4.305,4.619c-2.834,0-4.304-1.68-4.304-4.619v-1.523h2.729
											v1.706c0,1.313,0.577,1.81,1.496,1.81c0.918,0,1.496-0.445,1.496-2.073v-1.443c0-1.706-0.578-2.336-1.89-2.336h-0.971
											v-2.624h1.129c1.076,0,1.732-0.473,1.732-1.942V251.698z"/>
										<path style="fill:#FFFFFF;" d="M201.646,249.494c2.231,0,2.729-1.076,3.176-2.311h1.942v18.372h-2.887v-14.015h-2.231
											V249.494z"/>
										<path style="fill:#FFFFFF;" d="M212.037,249.494c2.231,0,2.73-1.076,3.176-2.311h1.942v18.372h-2.887v-14.015h-2.231
											V249.494z"/>
									</g>
									<g>
										<path style="fill:#92E3A9;" d="M220.88,247.04h3.891v1.145h-1.316v6.866h-1.259v-6.866h-1.316V247.04z"/>
										<path style="fill:#92E3A9;" d="M225.215,248.963c0-1.282,0.675-2.015,1.911-2.015c1.236,0,1.911,0.732,1.911,2.015v4.165
											c0,1.282-0.675,2.015-1.911,2.015c-1.236,0-1.911-0.732-1.911-2.015V248.963z M226.474,253.208
											c0,0.572,0.252,0.79,0.652,0.79c0.4,0,0.652-0.218,0.652-0.79v-4.325c0-0.572-0.252-0.79-0.652-0.79
											c-0.401,0-0.652,0.218-0.652,0.79V253.208z"/>
										<path style="fill:#92E3A9;" d="M229.481,247.04h3.891v1.145h-1.316v6.866h-1.259v-6.866h-1.316V247.04z"/>
										<path style="fill:#92E3A9;" d="M237.558,255.051h-1.27l-0.218-1.453h-1.545l-0.217,1.453h-1.156l1.282-8.011h1.842
											L237.558,255.051z M234.686,252.51h1.213l-0.606-4.051L234.686,252.51z"/>
										<path style="fill:#92E3A9;" d="M238.139,247.04h1.259v6.866h2.071v1.145h-3.331V247.04z"/>
										<path style="fill:#92E3A9;" d="M224.897,262.548v1.064c0,1.282-0.641,2.015-1.877,2.015c-1.236,0-1.876-0.733-1.876-2.015
											v-4.165c0-1.282,0.641-2.015,1.876-2.015c1.236,0,1.877,0.732,1.877,2.015v0.777h-1.19v-0.857
											c0-0.572-0.252-0.79-0.652-0.79c-0.401,0-0.652,0.218-0.652,0.79v4.325c0,0.572,0.251,0.778,0.652,0.778
											c0.4,0,0.652-0.206,0.652-0.778v-1.145H224.897z"/>
										<path style="fill:#92E3A9;" d="M229.735,265.535h-1.27l-0.218-1.453h-1.545l-0.217,1.453h-1.156l1.282-8.011h1.842
											L229.735,265.535z M226.862,262.994h1.213l-0.607-4.051L226.862,262.994z"/>
										<path style="fill:#92E3A9;" d="M230.316,257.524h1.259v6.866h2.071v1.145h-3.331V257.524z"/>
									</g>
								</g>
							</g>
							<g>
								<path style="fill:#FFFFFF;" d="M189.139,202.75c0-2.939,1.549-4.619,4.383-4.619c2.835,0,4.383,1.68,4.383,4.619v9.553
									c0,2.939-1.548,4.619-4.383,4.619c-2.834,0-4.383-1.68-4.383-4.619V202.75z M192.026,212.487
									c0,1.313,0.577,1.811,1.496,1.811c0.919,0,1.496-0.499,1.496-1.811v-9.92c0-1.313-0.577-1.811-1.496-1.811
									c-0.919,0-1.496,0.499-1.496,1.811V212.487z"/>
								<path style="fill:#FFFFFF;" d="M199.583,202.907c0-3.097,1.417-4.776,4.409-4.776c2.835,0,4.304,1.68,4.304,4.619v0.473
									h-2.73v-0.656c0-1.313-0.578-1.811-1.496-1.811c-1.023,0-1.601,0.499-1.601,2.257v3.359c0.499-1.05,1.391-1.628,2.677-1.628
									c2.126,0,3.202,1.496,3.202,4.199v3.359c0,2.939-1.548,4.619-4.383,4.619c-2.834,0-4.383-1.68-4.383-4.619V202.907z
									 M202.47,209.18v3.307c0,1.313,0.578,1.785,1.496,1.785c0.919,0,1.496-0.472,1.496-1.785v-3.307
									c0-1.313-0.578-1.811-1.496-1.811C203.047,207.369,202.47,207.868,202.47,209.18z"/>
								<path style="fill:#FFFFFF;" d="M212.939,213.931v2.782h-2.782v-2.782H212.939z"/>
								<path style="fill:#FFFFFF;" d="M214.801,202.75c0-2.939,1.549-4.619,4.383-4.619c2.835,0,4.383,1.68,4.383,4.619v9.553
									c0,2.939-1.548,4.619-4.383,4.619c-2.834,0-4.383-1.68-4.383-4.619V202.75z M217.688,212.487
									c0,1.313,0.577,1.811,1.496,1.811c0.919,0,1.496-0.499,1.496-1.811v-9.92c0-1.313-0.577-1.811-1.496-1.811
									c-0.919,0-1.496,0.499-1.496,1.811V212.487z"/>
								<path style="fill:#FFFFFF;" d="M233.906,198.341v2.52l-4.251,15.852h-2.887l4.226-15.747h-5.748v-2.624H233.906z"/>
								<path style="fill:#FFFFFF;" d="M238.601,213.931v2.782h-2.782v-2.782H238.601z"/>
								<path style="fill:#FFFFFF;" d="M242.484,200.65c2.231,0,2.73-1.076,3.176-2.31h1.942v18.372h-2.887v-14.015h-2.231V200.65z"
									/>
								<path style="fill:#FFFFFF;" d="M255.238,216.922c-2.914,0-4.515-1.68-4.515-4.619v-1.443c0-1.758,0.525-3.124,1.785-3.832
									c-1.208-0.656-1.785-1.89-1.785-3.701v-0.577c0-2.939,1.601-4.619,4.515-4.619c2.913,0,4.514,1.68,4.514,4.619v0.577
									c0,1.811-0.604,3.045-1.784,3.701c1.26,0.708,1.784,2.074,1.784,3.832v1.443
									C259.752,215.243,258.151,216.922,255.238,216.922z M253.61,203.878c0,1.47,0.683,1.942,1.628,1.942
									c0.918,0,1.627-0.473,1.627-1.942v-1.023c0-1.653-0.709-2.1-1.627-2.1c-0.919,0-1.628,0.446-1.628,2.1V203.878z
									 M255.238,214.298c0.918,0,1.601-0.446,1.627-2.073v-1.706c0-1.443-0.604-2.073-1.627-2.073
									c-1.024,0-1.628,0.63-1.628,2.073v1.706C253.61,213.852,254.319,214.298,255.238,214.298z"/>
							</g>
						</g>
					</g>
					<g>
						<g>
							<path style="fill:#FFFFFF;" d="M281.882,171.54c-1.692,0-2.622-0.976-2.622-2.683v-0.838c0-1.021,0.305-1.814,1.036-2.225
								c-0.701-0.381-1.036-1.097-1.036-2.15v-0.335c0-1.708,0.93-2.683,2.622-2.683c1.691,0,2.621,0.976,2.621,2.683v0.335
								c0,1.052-0.351,1.769-1.036,2.15c0.731,0.412,1.036,1.204,1.036,2.225v0.838C284.503,170.565,283.573,171.54,281.882,171.54z
								 M280.936,163.964c0,0.854,0.397,1.128,0.945,1.128c0.533,0,0.944-0.274,0.944-1.128v-0.594c0-0.96-0.411-1.22-0.944-1.22
								c-0.534,0-0.945,0.259-0.945,1.22V163.964z M281.882,170.016c0.533,0,0.93-0.259,0.944-1.204v-0.991
								c0-0.838-0.351-1.204-0.944-1.204c-0.595,0-0.945,0.366-0.945,1.204v0.991C280.936,169.757,281.348,170.016,281.882,170.016z
								"/>
							<path style="fill:#FFFFFF;" d="M287.128,163.995v1.616h-1.616v-1.616H287.128z M287.128,169.803v1.616h-1.616v-1.616H287.128
								z"/>
							<path style="fill:#FFFFFF;" d="M290.802,162.15c-0.533,0-0.868,0.289-0.868,1.052v1.144h-1.586v-1.037
								c0-1.708,0.854-2.683,2.5-2.683c1.646,0,2.5,0.976,2.5,2.683c0,3.354-3.338,4.604-3.338,6.356c0,0.076,0,0.152,0.015,0.229
								h3.171v1.525h-4.848v-1.311c0-3.14,3.323-3.658,3.323-6.737C291.671,162.41,291.336,162.15,290.802,162.15z"/>
							<path style="fill:#FFFFFF;" d="M297.619,163.37c0-0.96-0.336-1.22-0.869-1.22c-0.534,0-0.869,0.289-0.869,1.052v0.686h-1.585
								v-0.579c0-1.708,0.853-2.683,2.5-2.683c1.646,0,2.5,0.976,2.5,2.683v0.274c0,1.143-0.366,1.859-1.174,2.195
								c0.838,0.366,1.174,1.159,1.174,2.241v0.838c0,1.707-0.854,2.683-2.5,2.683c-1.647,0-2.5-0.976-2.5-2.683v-0.884h1.585v0.991
								c0,0.762,0.335,1.052,0.869,1.052c0.533,0,0.869-0.259,0.869-1.204v-0.838c0-0.991-0.336-1.357-1.098-1.357h-0.564v-1.524
								h0.655c0.625,0,1.007-0.274,1.007-1.128V163.37z"/>
						</g>
						<g>
							<path style="fill:#92E3A9;" d="M281.729,174.287c1.631,0,2.469,0.707,2.469,1.944v0.243h-1.585v-0.32
								c0-0.552-0.305-0.762-0.839-0.762c-0.533,0-0.838,0.21-0.838,0.762c0,1.591,3.277,1.889,3.277,4.099
								c0,1.237-0.854,1.944-2.5,1.944c-1.647,0-2.5-0.707-2.5-1.944v-0.475h1.585v0.552c0,0.553,0.336,0.751,0.869,0.751
								s0.869-0.199,0.869-0.751c0-1.591-3.277-1.889-3.277-4.099C279.26,174.994,280.098,174.287,281.729,174.287z"/>
							<path style="fill:#92E3A9;" d="M286.776,174.376v5.965c0,0.552,0.336,0.752,0.869,0.752c0.533,0,0.869-0.199,0.869-0.752
								v-5.965h1.585v5.888c0,1.237-0.853,1.944-2.5,1.944c-1.646,0-2.5-0.707-2.5-1.944v-5.888H286.776z"/>
							<path style="fill:#92E3A9;" d="M292.739,176.508v5.601h-1.509v-7.733h2.104l1.723,4.628v-4.628h1.493v7.733h-1.722
								L292.739,176.508z"/>
						</g>
					</g>
				</g>
			</g>
			<g>
				<path style="fill:#FFFFFF;" d="M240.099,299.713c0,0.886-0.718,1.604-1.604,1.604c-0.886,0-1.604-0.718-1.604-1.604
					c0-0.886,0.718-1.604,1.604-1.604C239.381,298.109,240.099,298.827,240.099,299.713z"/>
				<path style="fill:#FFFFFF;" d="M249.604,299.713c0,0.886-0.718,1.604-1.604,1.604c-0.886,0-1.604-0.718-1.604-1.604
					c0-0.886,0.718-1.604,1.604-1.604C248.886,298.109,249.604,298.827,249.604,299.713z"/>
				<path style="fill:#FFFFFF;" d="M259.109,299.713c0,0.886-0.718,1.604-1.604,1.604c-0.886,0-1.604-0.718-1.604-1.604
					c0-0.886,0.718-1.604,1.604-1.604C258.391,298.109,259.109,298.827,259.109,299.713z"/>
			</g>
		</g>
	</g>
</g>
<g id="Clouds">
	<g>
		<path style="fill:none;stroke:#263238;stroke-linecap:round;stroke-linejoin:round;stroke-miterlimit:10;" d="M339.774,134.336
			h58.471c2.111,0,3.249-2.619,1.696-4.049c-0.742-0.682-1.858-1.284-3.528-1.64c-0.932-0.199-1.638-0.968-1.795-1.908
			c-0.676-4.053-3.369-14.113-13.452-14.319c-9.024-0.184-13.312,5.485-15.026,8.74c-0.559,1.062-1.793,1.563-2.922,1.157
			c-1.889-0.68-4.799-0.823-7.17,3.024c-0.571,0.927-1.673,1.37-2.718,1.064c-2.114-0.618-5.666-0.955-8.275,2.41
			c-0.501,0.647-1.278,1.02-2.09,0.916c-0.862-0.111-2.063-0.21-3.356-0.15C336.548,129.725,336.708,134.336,339.774,134.336z"/>
		<path style="fill:none;stroke:#263238;stroke-linecap:round;stroke-linejoin:round;stroke-miterlimit:10;" d="M84.779,128.885
			h90.193c3.256,0,5.012-4.04,2.616-6.245c-1.144-1.053-2.866-1.981-5.441-2.53c-1.438-0.306-2.526-1.493-2.768-2.943
			c-1.043-6.253-5.196-21.77-20.75-22.087c-13.92-0.284-20.535,8.461-23.178,13.482c-0.862,1.637-2.766,2.412-4.507,1.785
			c-2.913-1.049-7.403-1.27-11.059,4.664c-0.881,1.43-2.58,2.113-4.192,1.642c-3.26-0.953-8.74-1.474-12.764,3.718
			c-0.773,0.998-1.972,1.574-3.224,1.413c-1.33-0.171-3.182-0.324-5.177-0.231C79.804,121.773,80.05,128.885,84.779,128.885z"/>
	</g>
</g>
<g id="Floor">
	<g>
		<path style="fill:#BFBFBF;" d="M402.68,432.44c-22.67,20.956-141.482,26.9-156.49,26.9c-15.883,0-122.339-3.568-153.12-26.95
			c-0.051-0.039-0.11-0.09-0.16-0.14l106.02-29.96h96.86L402.68,432.44z"/>
		<g>
			
				<line style="fill:none;stroke:#263238;stroke-linecap:round;stroke-linejoin:round;stroke-miterlimit:10;" x1="350.588" y1="436.979" x2="276.221" y2="402.284"/>
			
				<line style="fill:none;stroke:#263238;stroke-linecap:round;stroke-linejoin:round;stroke-miterlimit:10;" x1="372.068" y1="447" x2="354.105" y2="438.62"/>
			
				<line style="fill:none;stroke:#263238;stroke-linecap:round;stroke-linejoin:round;stroke-miterlimit:10;" x1="266.731" y1="415.334" x2="257.41" y2="402.289"/>
			
				<line style="fill:none;stroke:#263238;stroke-linecap:round;stroke-linejoin:round;stroke-miterlimit:10;" x1="289.356" y1="447" x2="268.895" y2="418.363"/>
			
				<line style="fill:none;stroke:#263238;stroke-linecap:round;stroke-linejoin:round;stroke-miterlimit:10;" x1="215.06" y1="435.221" x2="238.591" y2="402.286"/>
			
				<line style="fill:none;stroke:#263238;stroke-linecap:round;stroke-linejoin:round;stroke-miterlimit:10;" x1="206.644" y1="447" x2="212.036" y2="439.454"/>
			
				<line style="fill:none;stroke:#263238;stroke-linecap:round;stroke-linejoin:round;stroke-miterlimit:10;" x1="189.972" y1="416.19" x2="219.774" y2="402.286"/>
			
				<line style="fill:none;stroke:#263238;stroke-linecap:round;stroke-linejoin:round;stroke-miterlimit:10;" x1="123.932" y1="447" x2="184.402" y2="418.789"/>
			<polyline style="fill:none;stroke:#263238;stroke-linecap:round;stroke-linejoin:round;stroke-miterlimit:10;" points="
				42.5,446.5 92.91,432.25 198.93,402.29 			"/>
			<polyline style="fill:none;stroke:#263238;stroke-linecap:round;stroke-linejoin:round;stroke-miterlimit:10;" points="
				454.78,402.29 426.98,402.29 426.58,402.29 384.95,402.29 379.98,402.29 295.79,402.29 295.64,402.29 295.05,402.29 
				276.24,402.29 257.41,402.29 238.59,402.29 219.77,402.29 200.96,402.29 198.93,402.29 69.55,402.29 69.45,402.29 41.22,402.29 
							"/>
			<polyline style="fill:none;stroke:#263238;stroke-linecap:round;stroke-linejoin:round;stroke-miterlimit:10;" points="
				295.79,402.29 402.68,432.44 458.9,448.29 			"/>
		</g>
	</g>
</g>
<g id="Trees">
	<g>
		<g>
			<g>
				<g>
					<path style="fill:#92E3A9;" d="M419.604,383.346c0,0,17.634-1.271,26.435-18.022c9.504-18.09-13.668-60.979-25.505-64.181
						c-12.964-3.507-33.526,30.779-29.32,57.425C394.086,376.763,411.452,382.883,419.604,383.346z"/>
					<path style="opacity:0.3;fill:#FFFFFF;" d="M419.604,383.346c0,0,17.634-1.271,26.435-18.022
						c9.504-18.09-13.668-60.979-25.505-64.181c-12.964-3.507-33.526,30.779-29.32,57.425
						C394.086,376.763,411.452,382.883,419.604,383.346z"/>
					<path style="fill:#FFFFFF;stroke:#263238;stroke-linecap:round;stroke-linejoin:round;stroke-miterlimit:10;" d="
						M431.917,352.58l-11.29,12.36c0,0.43,0.01,0.85,0.02,1.28c0.08,5.52,0.19,11.23,0.28,16.96c0.01,0.37,0.01,0.75,0.02,1.12
						c0.067,4.489,0.275,14.069,0.343,18.643c0.021,1.397-1.099,2.538-2.496,2.552l0,0c-1.425,0.014-2.579-1.155-2.545-2.58
						l0.439-18.644l0.03-1.27l0.06-2.08l0.07-3.11l-14.47-15.74c1.16-0.01-0.92-2.18-1.13-2.39l15.74,12.38l0.63-26.94l-9.49-10.33
						c0.82-0.01-0.66-1.54-0.81-1.7l10.39,8.18l0.01-0.51l0.57-23.42l1.56,1.71c0,0,0.31,18.32,0.7,41.27l12.28-9.77
						C432.657,350.74,430.957,352.59,431.917,352.58z"/>
				</g>
			</g>
		</g>
		<g>
			<g>
				<path style="fill:#92E3A9;" d="M87.647,383.244c1,0.08,2,0.031,2.989-0.136c5.121-0.864,19.882-5.258,35.911-27.6
					c17.381-24.226-15.602-99.238-34.096-116.491c-18.493-17.253-54.488,76.977-50.308,100.854
					C47.957,373.074,72.528,382.029,87.647,383.244z"/>
				<path style="opacity:0.3;fill:#FFFFFF;" d="M87.647,383.244c1,0.08,2,0.031,2.989-0.136c5.121-0.864,19.882-5.258,35.911-27.6
					c17.381-24.226-15.602-99.238-34.096-116.491c-18.493-17.253-54.488,76.977-50.308,100.854
					C47.957,373.074,72.528,382.029,87.647,383.244z"/>
			</g>
			<path style="fill:#FFFFFF;stroke:#263238;stroke-linecap:round;stroke-linejoin:round;stroke-miterlimit:10;" d="
				M121.828,333.861l-27.606,27.445l2.598,65.289c0.101,2.533-1.925,4.642-4.461,4.642l0,0c-2.469,0-4.469-1.999-4.464-4.469
				c0.028-13.216,0.306-54.076,0.551-100.377l-21.162-20.296c1.608,0-1.274-2.746-1.558-3.018l22.77,15.844
				c0.186-35.113,0.359-63.387,0.359-63.387l2.065-2.585l1.15,37.55l19.517-14.05c-0.284,0.272-3.166,3.018-1.558,3.018
				l-17.761,17.662l1.657,54.099l30.129-21.682C123.646,329.927,119.515,333.861,121.828,333.861z"/>
		</g>
	</g>
</g>
<g id="Graphics">
	<g>
		<g>
			<g>
				<g>
					<g>
						<g>
							<path style="fill:#FFFFFF;" d="M248,388.648c-79.552,0-144.272-64.72-144.272-144.272S168.448,100.104,248,100.104
								c79.552,0,144.272,64.72,144.272,144.272S327.552,388.648,248,388.648z M248,109.104
								c-74.589,0-135.272,60.683-135.272,135.272c0,74.589,60.683,135.272,135.272,135.272c74.59,0,135.272-60.683,135.272-135.272
								C383.272,169.787,322.59,109.104,248,109.104z"/>
						</g>
					</g>
				</g>
				<g>
					<path style="fill:#92E3A9;" d="M248,388.648c-79.552,0-144.272-64.72-144.272-144.272S168.448,100.104,248,100.104
						c79.552,0,144.272,64.72,144.272,144.272c0,2.485-2.015,4.5-4.5,4.5c-2.485,0-4.5-2.015-4.5-4.5
						c0-74.589-60.683-135.272-135.272-135.272c-74.589,0-135.272,60.683-135.272,135.272c0,74.589,60.683,135.272,135.272,135.272
						c2.485,0,4.5,2.015,4.5,4.5C252.5,386.634,250.485,388.648,248,388.648z"/>
				</g>
			</g>
		</g>
		<g>
			<g>
				<g>
					<g>
						<g>
							<g>
								<path style="fill:#92E3A9;" d="M243.968,53.564c-6.359,0-11.513,5.154-11.513,11.501c0,4.047,4.662,12.313,8.057,17.774
									c1.931,3.124,3.456,5.338,3.456,5.338s1.525-2.214,3.444-5.338c3.395-5.461,8.057-13.727,8.057-17.774
									C255.468,58.718,250.315,53.564,243.968,53.564z M243.968,70.736c-2.903,0-5.24-2.337-5.24-5.24
									c0-2.891,2.337-5.24,5.24-5.24c2.891,0,5.24,2.349,5.24,5.24C249.207,68.398,246.858,70.736,243.968,70.736z"/>
							</g>
						</g>
						<g>
							<g>
								<path style="fill:#263238;" d="M222.943,61.03c-4.995,0-9.043,4.048-9.043,9.033c0,3.178,3.661,9.671,6.328,13.96
									c1.517,2.454,2.715,4.193,2.715,4.193s1.198-1.739,2.705-4.193c2.667-4.289,6.328-10.782,6.328-13.96
									C231.976,65.078,227.928,61.03,222.943,61.03z M222.943,74.517c-2.28,0-4.116-1.836-4.116-4.116
									c0-2.27,1.836-4.116,4.116-4.116c2.27,0,4.116,1.845,4.116,4.116C227.059,72.681,225.214,74.517,222.943,74.517z"/>
							</g>
						</g>
					</g>
					<g>
						<g>
							<g>
								<path style="fill:#263238;" d="M243.916,88.951c-0.001,0-0.003,0-0.004,0l-4.678-0.038c-0.316-0.002-0.571-0.28-0.569-0.619
									c0.002-0.341,0.31-0.589,0.576-0.612l4.681,0.038c0.316,0.002,0.57,0.281,0.568,0.62
									C244.486,88.68,244.231,88.951,243.916,88.951z M235.726,88.893c-0.001,0-0.001,0-0.002,0
									c-1.32-0.006-2.614-0.01-3.816-0.01h-0.861c-0.316,0-0.572-0.275-0.572-0.615c0-0.34,0.256-0.615,0.572-0.615h0.861
									c1.204,0,2.498,0.004,3.82,0.01c0.316,0.001,0.571,0.278,0.57,0.617C236.297,88.619,236.041,88.893,235.726,88.893z"/>
							</g>
						</g>
						<path style="fill:#263238;" d="M227.635,88.893c-0.001,0-0.001,0-0.002,0c-1.32-0.006-2.614-0.01-3.816-0.01h-0.861
							c-0.316,0-0.572-0.275-0.572-0.615c0-0.34,0.256-0.615,0.572-0.615h0.861c1.204,0,2.498,0.004,3.82,0.01
							c0.316,0.001,0.571,0.278,0.57,0.617C228.206,88.619,227.95,88.893,227.635,88.893z"/>
					</g>
				</g>
				<g>
					<g>
						<path style="fill:#263238;" d="M264.668,56.919c-1.032,0-1.682,0.561-1.682,2.035v2.212h-3.067v-2.005
							c0-3.304,1.652-5.191,4.837-5.191c3.186,0,4.838,1.888,4.838,5.191c0,6.489-6.46,8.908-6.46,12.299
							c0,0.147,0,0.295,0.029,0.442h6.136v2.95h-9.38v-2.537c0-6.076,6.43-7.079,6.43-13.037
							C266.349,57.42,265.7,56.919,264.668,56.919z"/>
						<path style="fill:#263238;" d="M277.852,59.278c0-1.858-0.648-2.359-1.681-2.359c-1.033,0-1.682,0.561-1.682,2.035v1.327
							h-3.067v-1.121c0-3.304,1.651-5.191,4.837-5.191c3.186,0,4.838,1.888,4.838,5.191v0.531c0,2.212-0.708,3.599-2.271,4.248
							c1.622,0.708,2.271,2.242,2.271,4.335v1.623c0,3.303-1.652,5.191-4.838,5.191c-3.186,0-4.837-1.888-4.837-5.191v-1.711h3.067
							v1.918c0,1.475,0.648,2.035,1.682,2.035c1.032,0,1.681-0.502,1.681-2.33v-1.623c0-1.917-0.648-2.625-2.123-2.625h-1.092v-2.95
							h1.269c1.209,0,1.946-0.531,1.946-2.183V59.278z"/>
					</g>
					<g>
						<path style="fill:#263238;" d="M262.57,85.373l0.893-5.915h1.821v8.332h-1.238v-5.975l-0.904,5.975h-1.237l-0.977-5.892v5.892
							h-1.143v-8.332h1.821L262.57,85.373z"/>
						<path style="fill:#263238;" d="M266.239,79.458h1.309v8.332h-1.309V79.458z"/>
						<path style="fill:#263238;" d="M268.501,79.458h1.309V86.6h2.154v1.19h-3.464V79.458z"/>
						<path style="fill:#263238;" d="M273.847,82.969h1.797v1.19h-1.797v2.44h2.262v1.19h-3.57v-8.332h3.57v1.19h-2.262V82.969z"/>
						<path style="fill:#263238;" d="M278.681,79.363c1.273,0,1.929,0.762,1.929,2.095v0.262h-1.238v-0.345
							c0-0.595-0.238-0.821-0.654-0.821c-0.417,0-0.655,0.226-0.655,0.821c0,1.714,2.56,2.035,2.56,4.416
							c0,1.333-0.667,2.095-1.952,2.095c-1.285,0-1.952-0.762-1.952-2.095v-0.512h1.238v0.595c0,0.595,0.262,0.809,0.679,0.809
							c0.416,0,0.678-0.214,0.678-0.809c0-1.714-2.559-2.036-2.559-4.415C276.753,80.125,277.407,79.363,278.681,79.363z"/>
					</g>
				</g>
			</g>
		</g>
	</g>
</g>
<g id="Character">
	<g>
		<g>
			<path style="fill:#FFFFFF;stroke:#263238;stroke-linecap:round;stroke-linejoin:round;stroke-miterlimit:10;" d="
				M258.468,420.613c0,0-3.546,1.079-3.293,5.35c0.252,4.272-4.388,16.048,0.289,18.65c5.292,2.943,14.351,2.723,15.057,0.189
				c0.706-2.534-2.165-6.542-1.901-9.684c0.264-3.142,2.64-13.446-1.168-14.392C263.646,419.779,258.468,420.613,258.468,420.613z"
				/>
			<path style="fill:#999999;stroke:#263238;stroke-linecap:round;stroke-linejoin:round;stroke-miterlimit:10;" d="M257.5,423.261
				c0.442,0.412,0.844,1.026,0.965,1.957c0.307,2.363,1.058-3.208,5.003-2.643c3.946,0.565,2.574,3.665,3.236,3.926
				c0.361,0.142,0.444-1.042,0.689-2.141c0.08-5.512,0.367-15.956,1.393-20.467c1.427-6.272,3.14-17.484,2.289-21.314
				c0,0,7.09-7.816,7.852-34.948l-20.216-0.253l-0.343,27.404c0,0-5.705,7.117-3.637,21.297
				C256.226,406.316,257.119,417.713,257.5,423.261z"/>
			<path style="fill:none;stroke:#263238;stroke-linecap:round;stroke-linejoin:round;stroke-miterlimit:10;" d="M270.368,442.181
				c0,0-3.897-3.522-7.566-3.401"/>
		</g>
		<g>
			<path style="fill:#FFFFFF;stroke:#263238;stroke-linecap:round;stroke-linejoin:round;stroke-miterlimit:10;" d="
				M285.484,387.927c0,0-3.107,5.128-0.951,12.344c2.156,7.216-1.317,15.485,3.363,18.464c4.68,2.979,17.503,1.567,13.82-9.262
				c-3.684-10.83-2.293-17.777-6.62-20.302C290.77,386.646,285.484,387.927,285.484,387.927z"/>
			<path style="fill:#999999;stroke:#263238;stroke-linecap:round;stroke-linejoin:round;stroke-miterlimit:10;" d="
				M307.784,321.709l-15.741,1.176l-9.483,7.27c0,0-0.654,12.897,3.507,21.436l2.367,8.292c0,0-1.848,4.021-1.474,10.091
				c0.373,6.07,1.887,10.807,0.025,15.951c-0.874,2.414-0.999,4.582-0.889,6.212c0.212,0.272,0.409,0.647,0.571,1.17
				c0.81,2.622,2.219-2.675,5.673-2.288c3.453,0.387,1.76,3.071,2.545,3.115c2.027-5.952,11.509-34.8,7.58-42.337
				c0,0,6.397-6.944,8.098-15.439C312.262,327.862,307.784,321.709,307.784,321.709z"/>
		</g>
		<path style="fill:#263238;" d="M301.744,217.004c0,0,5.885-7.163,0.658-11.586c0,0-3.024-13.351-12.218-10.199
			s-8.123,5.466-8.123,5.466s-10.322,0.355-9.474,5.933c0.847,5.578,2.789,5.118,2.789,5.118s-2.8,1.296-1.764,5.545
			c1.036,4.249,5.639,3.895,5.639,3.895L301.744,217.004z"/>
		<g>
			<path style="fill:#999999;stroke:#263238;stroke-linecap:round;stroke-linejoin:round;stroke-miterlimit:10;" d="
				M317.613,254.435c2.003,0.902,7.353,4.81,7.353,4.81s-0.379,3.365,5.106,9.331c5.486,5.966,8.04,17.287,8.04,17.287
				c-2.795,4.899-2.224,5.472-2.439,9.177c-0.215,3.704-1.289,5.941-0.534,8.478c0.755,2.537,3.244,1.052,3.244,1.052
				c3.369,0.042,5.369-6.321,5.369-6.321s1.738-9.596-1.132-22.606c-2.87-13.01-7.809-22.249-7.809-22.249s-5.899-7.044-8.142-9.122
				c-2.709-2.509-11.738-8.965-11.738-8.965l-2.615,17.68C312.317,252.986,316.361,253.872,317.613,254.435z"/>
			<path style="fill:#FFFFFF;stroke:#263238;stroke-linecap:round;stroke-linejoin:round;stroke-miterlimit:10;" d="
				M315.986,254.952l-0.268,1.451c1.444-2.873,2.788-5.802,3.522-8.925c0.803-3.437,0.794-7.152-0.648-10.367
				c-0.622-1.379-2.375-3.449-3.638-1.741c1.077,4.276,1.587,8.665,1.532,13.065C316.458,250.613,316.291,252.788,315.986,254.952z"
				/>
			<path style="fill:#FFFFFF;stroke:#263238;stroke-linecap:round;stroke-linejoin:round;stroke-miterlimit:10;" d="M315.29,257.251
				c0.142-0.276,0.285-0.562,0.427-0.838l0-0.009l0.268-1.451c0.305-2.164,0.471-4.34,0.499-6.517
				c0.055-4.4-0.455-8.789-1.532-13.065c-0.019,0.018-0.028,0.046-0.047,0.064c-0.84,1.203,0.671,4.836,0.85,6.098
				c0.365,2.636,0.378,5.314,0.243,7.971C315.899,251.569,316.231,255.409,315.29,257.251z"/>
			<path style="fill:none;stroke:#263238;stroke-linecap:round;stroke-linejoin:round;stroke-miterlimit:10;" d="M327.325,259.275
				c0,0,3.693,1.103,5.436-3.532"/>
			<path style="fill:none;stroke:#263238;stroke-linecap:round;stroke-linejoin:round;stroke-miterlimit:10;" d="M340.16,291.146
				c0,0-1.036,2.009-1.403,4.363c-0.367,2.354-1.043,4.818-3.225,2.993"/>
		</g>
		<path style="fill:#263238;stroke:#263238;stroke-linecap:round;stroke-linejoin:round;stroke-miterlimit:10;" d="M261.788,317.089
			c0,0-5.068,10.046-5.128,32.735c0,0,7.598,3.24,14.825,0.186c7.227-3.055,9.656,0.345,9.656,0.345l1.219-7.623
			c0,0-0.687-16.858,13.899-15.552c14.586,1.306,12.623,14.536,12.623,14.536s6.972-18.559,1.68-26.488
			C305.268,307.299,261.788,317.089,261.788,317.089z"/>
		<g>
			<path style="fill:none;stroke:#7F7F7F;stroke-linecap:round;stroke-linejoin:round;" d="M281.663,327.266
				c-0.979,2.623-1.666,6.659-1.067,12.749"/>
			<path style="fill:none;stroke:#7F7F7F;stroke-linecap:round;stroke-linejoin:round;" d="M284.774,322.793
				c0,0-0.659,0.361-1.468,1.411"/>
		</g>
		<g>
			<defs>
				<path id="XMLID_1_" d="M314.953,235.37c-0.009-0.019-0.009-0.046-0.018-0.065c-24.944-10.264-45.929,2.204-52.661,7.012
					c2.763,0.581,5.577,2.998,7.235,6.771c3.477,7.929,1.284,12.914-0.711,19.023c0.7-5.615-0.662-11.47-3.781-16.197
					c-1.073-1.626-2.619-3.248-4.449-3.567l3.124,24.287l-4.622,46.446c0,0,1.924,7.659,24.253,0.304
					c22.339-7.364,29.201,0.366,29.201,0.366l-2.435-21.61c-0.509-4.482-0.35-9.01,0.456-13.448l5.172-28.279l0-0.009l0.268-1.451
					c0.305-2.164,0.471-4.34,0.499-6.517C316.54,244.035,316.03,239.646,314.953,235.37z"/>
			</defs>
			<use xlink:href="#XMLID_1_"  style="overflow:visible;fill:#FFFFFF;"/>
			<clipPath id="XMLID_00000095303116818945562010000009127221381386535588_">
				<use xlink:href="#XMLID_1_"  style="overflow:visible;"/>
			</clipPath>
			<g style="clip-path:url(#XMLID_00000095303116818945562010000009127221381386535588_);">
				<g>
					<path style="fill:#92E3A9;" d="M265.954,253.798c1.352,1.227,2.703,2.455,4.055,3.682c0.249-0.937,0.497-1.874,0.746-2.812
						c0.107,1.089,0.213,2.177,0.32,3.266c1.337-0.928,2.674-1.856,4.011-2.784c-0.046,2.618-0.805,5.22-2.176,7.451
						c1.168-0.1,2.126,1.071,2.253,2.237c0.127,1.166-0.333,2.305-0.748,3.401c-2.372,6.267-3.517,12.996-3.351,19.695
						c0.019,0.747,0.233,1.704,0.973,1.804c0.467,0.063,0.881-0.279,1.228-0.598c5.132-4.718,10.265-9.436,15.397-14.154
						c-1.894,4.8-3.788,9.6-5.682,14.399c8.806-5.103,16.378-12.321,21.895-20.873c-4.103,9.706-10.803,18.299-19.215,24.645
						c-1.12,0.845-2.303,1.686-3.017,2.895c-0.714,1.208-0.816,2.91,0.17,3.909c0.977,0.99,2.555,0.939,3.945,0.899
						c5.581-0.161,11.196,0.986,16.268,3.322c-3.717,0.415-7.49,0.844-10.952,2.259c-3.462,1.415-6.635,3.971-7.925,7.482
						c5.795-0.191,11.615,0.382,17.261,1.699c-6.406,1.459-12.812,2.917-19.218,4.376c-4.841,1.102-9.714,2.209-14.674,2.432
						c-2.875,0.129-6.287-0.351-7.635-2.894c-0.744-1.403-0.639-3.086-0.495-4.667c0.936-10.241,2.762-20.401,5.452-30.327
						c1.365-5.038,2.958-10.043,3.619-15.221c0.661-5.178,0.331-10.63-1.997-15.302
						C266.801,253.593,265.954,253.798,265.954,253.798z"/>
					<g style="opacity:0.5;">
						<path style="fill:#FFFFFF;" d="M265.954,253.798c1.352,1.227,2.703,2.455,4.055,3.682c0.249-0.937,0.497-1.874,0.746-2.812
							c0.107,1.089,0.213,2.177,0.32,3.266c1.337-0.928,2.674-1.856,4.011-2.784c-0.046,2.618-0.805,5.22-2.176,7.451
							c1.168-0.1,2.126,1.071,2.253,2.237c0.127,1.166-0.333,2.305-0.748,3.401c-2.372,6.267-3.517,12.996-3.351,19.695
							c0.019,0.747,0.233,1.704,0.973,1.804c0.467,0.063,0.881-0.279,1.228-0.598c5.132-4.718,10.265-9.436,15.397-14.154
							c-1.894,4.8-3.788,9.6-5.682,14.399c8.806-5.103,16.378-12.321,21.895-20.873c-4.103,9.706-10.803,18.299-19.215,24.645
							c-1.12,0.845-2.303,1.686-3.017,2.895c-0.714,1.208-0.816,2.91,0.17,3.909c0.977,0.99,2.555,0.939,3.945,0.899
							c5.581-0.161,11.196,0.986,16.268,3.322c-3.717,0.415-7.49,0.844-10.952,2.259c-3.462,1.415-6.635,3.971-7.925,7.482
							c5.795-0.191,11.615,0.382,17.261,1.699c-6.406,1.459-12.812,2.917-19.218,4.376c-4.841,1.102-9.714,2.209-14.674,2.432
							c-2.875,0.129-6.287-0.351-7.635-2.894c-0.744-1.403-0.639-3.086-0.495-4.667c0.936-10.241,2.762-20.401,5.452-30.327
							c1.365-5.038,2.958-10.043,3.619-15.221c0.661-5.178,0.331-10.63-1.997-15.302
							C266.801,253.593,265.954,253.798,265.954,253.798z"/>
					</g>
				</g>
			</g>
			
				<use xlink:href="#XMLID_1_"  style="overflow:visible;fill:none;stroke:#263238;stroke-linecap:round;stroke-linejoin:round;stroke-miterlimit:10;"/>
		</g>
		<g>
			<path style="fill:none;stroke:#263238;stroke-linecap:round;stroke-linejoin:round;stroke-miterlimit:10;" d="M305.332,267.817
				c-7.29,17.392-22.663,31.196-40.736,36.578"/>
			<path style="fill:none;stroke:#263238;stroke-linecap:round;stroke-linejoin:round;stroke-miterlimit:10;" d="M303.319,303.279
				c-12.475-3.222-26.123-1.658-37.545,4.302"/>
			<path style="fill:none;stroke:#263238;stroke-linecap:round;stroke-linejoin:round;stroke-miterlimit:10;" d="M275.775,249.999
				c0.68,5.826-1.355,11.914-5.402,16.16"/>
			<path style="fill:none;stroke:#263238;stroke-linecap:round;stroke-linejoin:round;stroke-miterlimit:10;" d="M307.484,243.219
				c3.203,4.674,4.863,10.387,4.662,16.049"/>
		</g>
		<path style="fill:#999999;stroke:#263238;stroke-linecap:round;stroke-linejoin:round;stroke-miterlimit:10;" d="M281.14,229.663
			c0,0-0.786,13.007,7.311,13.109c10.329,0.13,9.9-11.67,9.9-11.67L281.14,229.663z"/>
		<path style="fill:#999999;stroke:#263238;stroke-linecap:round;stroke-linejoin:round;stroke-miterlimit:10;" d="M280.046,216.214
			c0,0-0.531,11.496,1.27,14.523c1.801,3.028,6.874,7.443,10.841,7.493c3.967,0.05,8.97-5.38,9.288-7.552
			c0.317-2.172,0.208-16.577,0.208-16.577s-0.439-11.301-9.05-11.408C283.99,202.585,280.061,209.374,280.046,216.214z"/>
		<path style="fill:#999999;stroke:#263238;stroke-linecap:round;stroke-linejoin:round;stroke-miterlimit:10;" d="M301.667,217.346
			c0.572-0.332,1.183-0.45,1.746-0.257c1.326,0.456,1.863,2.39,1.199,4.321c-0.56,1.628-1.793,2.72-2.961,2.754
			C301.672,221.806,301.672,219.283,301.667,217.346z"/>
		<path style="fill:#263238;" d="M288.141,217.316c-0.009,0.696-0.375,1.255-0.817,1.249c-0.443-0.006-0.794-0.574-0.786-1.27
			c0.009-0.695,0.375-1.255,0.817-1.249C287.798,216.052,288.15,216.62,288.141,217.316z"/>
		<g>
			<g>
				<g>
					<path style="fill:#263238;stroke:#263238;stroke-linecap:round;stroke-linejoin:round;stroke-miterlimit:10;" d="
						M295.337,228.317c0.063,1.597-0.064,2.928-0.31,4.083c0,0.009,0,0.009,0,0.018c-0.01,0.083-0.039,0.166-0.059,0.249
						c-0.116,0.406-0.316,0.802-0.589,1.132c-0.009,0.009-0.019,0.018-0.028,0.037c-0.564,0.66-1.385,1.085-2.216,0.899
						c-0.758-0.167-1.288-0.739-1.612-1.466c-0.009-0.009-0.009-0.019-0.018-0.028l-0.009-0.028
						c-0.225-0.485-0.348-1.033-0.397-1.562c-0.017-0.121-0.025-0.232-0.033-0.343c-0.035-0.862,0.069-1.797,0.403-2.589
						L295.337,228.317z"/>
				</g>
				<path style="fill:#FFFFFF;stroke:#263238;stroke-linecap:round;stroke-linejoin:round;stroke-miterlimit:10;" d="
					M290.468,228.72l4.27,0.128c0,0,0.549-0.178,0.508-0.633c-0.008-0.093-0.044-0.195-0.107-0.307
					c-0.009-0.019-0.018-0.037-0.036-0.056c-0.265-0.337-0.623-0.601-1.019-0.763c-0.517-0.164-1.128-0.153-1.74-0.161
					c-0.149,0.035-0.288,0.089-0.428,0.152C291.226,227.414,290.755,228.01,290.468,228.72z"/>
			</g>
			<g>
				<path style="fill:#FFFFFF;stroke:#263238;stroke-linecap:round;stroke-linejoin:round;stroke-miterlimit:10;" d="
					M290.099,231.543c0-0.009,0.01-0.028,0.019-0.037c0.103-0.11,0.006-0.2,0.144-0.143c0.148,0.048,1.708,1.452,2.513,1.518
					c2.256,0.028,1.998-1.296,1.984-1.271c0.183,0.206,0.272,0.439,0.269,0.68c0.022,0.482-0.263,0.997-0.648,1.4
					c-0.009,0.009-0.019,0.018-0.028,0.037c-0.281,0.274-0.608,0.493-0.897,0.582c-0.744,0.241-1.595,0.073-2.228-0.389
					c-0.284-0.217-0.531-0.479-0.722-0.787c-0.579-0.718-0.439-1.496-0.439-1.496L290.099,231.543z"/>
			</g>
		</g>
		<path style="fill:#263238;" d="M297.218,217.234c-0.009,0.696-0.375,1.255-0.817,1.249c-0.443-0.006-0.794-0.574-0.786-1.269
			c0.009-0.696,0.375-1.255,0.817-1.249C296.875,215.97,297.226,216.538,297.218,217.234z"/>
		<path style="fill:none;stroke:#263238;stroke-linecap:round;stroke-linejoin:round;stroke-miterlimit:10;" d="M294.334,214.583
			c0,0,2.663-2.308,4.72-1.187"/>
		<path style="fill:none;stroke:#263238;stroke-linecap:round;stroke-linejoin:round;stroke-miterlimit:10;" d="M289.912,214.527
			c0,0-2.605-2.374-4.688-1.304"/>
		<g>
			<path style="fill:#999999;stroke:#263238;stroke-linecap:round;stroke-linejoin:round;stroke-miterlimit:10;" d="
				M270.343,261.762c-1.813,7.065-3.928,17.642-3.928,17.642l8.175-6.974c0,0,3.254-8.697,6.145-11.283
				c1.114-0.997,2.167-6.641,3.675-5.948c1.508,0.693,0.53,4.197,0.53,4.197s2.085,0.432,3.089,0.951
				c1.004,0.518,3.437,9.936,2.247,10.764c-1.19,0.828-2.497-2.39-3.217,1.308c-0.72,3.698-7.164,6.987-7.164,6.987
				s-10.972,15.027-15.72,17.495c-4.749,2.468-9.82,3.752-11.171-9.407c-1.351-13.159,1.835-25.419,1.835-25.419
				s-2.821-14.415,5.168-18.02C267.995,240.449,272.329,254.024,270.343,261.762z"/>
			
				<line style="fill:none;stroke:#263238;stroke-linecap:round;stroke-linejoin:round;stroke-miterlimit:10;" x1="261.303" y1="284.058" x2="266.918" y2="278.843"/>
			
				<line style="fill:none;stroke:#263238;stroke-linecap:round;stroke-linejoin:round;stroke-miterlimit:10;" x1="280.357" y1="261.671" x2="285.178" y2="259.396"/>
			<path style="fill:none;stroke:#263238;stroke-linecap:round;stroke-linejoin:round;stroke-miterlimit:10;" d="M257.737,263.195
				c0,0,1.767,2.927,4.667,3.326"/>
		</g>
		<g>
			<defs>
				<path id="XMLID_2_" d="M254.644,257.02c-0.181-1.865,0.455-3.247,0.987-5.029c0.541-1.791,1.961-3.45,3.808-3.677
					c0.39-0.051,0.76-0.037,1.13,0.033c1.831,0.319,3.376,1.942,4.449,3.567c3.119,4.727,4.482,10.582,3.781,16.197
					c1.994-6.109,4.188-11.094,0.711-19.023c-1.658-3.773-4.472-6.19-7.235-6.771c-3.281-0.699-6.51,1.169-7.687,6.399
					C253.93,251.636,253.734,254.164,254.644,257.02z"/>
			</defs>
			<use xlink:href="#XMLID_2_"  style="overflow:visible;fill:#FFFFFF;"/>
			<clipPath id="XMLID_00000174598692194625534560000011231432670538270115_">
				<use xlink:href="#XMLID_2_"  style="overflow:visible;"/>
			</clipPath>
			<g style="clip-path:url(#XMLID_00000174598692194625534560000011231432670538270115_);">
				<g>
					<path style="fill:#92E3A9;" d="M265.954,253.798c1.352,1.227,2.703,2.455,4.055,3.682c0.249-0.937,0.497-1.874,0.746-2.812
						c0.107,1.089,0.213,2.177,0.32,3.266c1.337-0.928,2.674-1.856,4.011-2.784c-0.046,2.618-0.805,5.22-2.176,7.451
						c1.168-0.1,2.126,1.071,2.253,2.237c0.127,1.166-0.333,2.305-0.748,3.401c-2.372,6.267-3.517,12.996-3.351,19.695
						c0.019,0.747,0.233,1.704,0.973,1.804c0.467,0.063,0.881-0.279,1.228-0.598c5.132-4.718,10.265-9.436,15.397-14.154
						c-1.894,4.8-3.788,9.6-5.682,14.399c8.806-5.103,16.378-12.321,21.895-20.873c-4.103,9.706-10.803,18.299-19.215,24.645
						c-1.12,0.845-2.303,1.686-3.017,2.895c-0.714,1.208-0.816,2.91,0.17,3.909c0.977,0.99,2.555,0.939,3.945,0.899
						c5.581-0.161,11.196,0.986,16.268,3.322c-3.717,0.415-7.49,0.844-10.952,2.259c-3.462,1.415-6.635,3.971-7.925,7.482
						c5.795-0.191,11.615,0.382,17.261,1.699c-6.406,1.459-12.812,2.917-19.218,4.376c-4.841,1.102-9.714,2.209-14.674,2.432
						c-2.875,0.129-6.287-0.351-7.635-2.894c-0.744-1.403-0.639-3.086-0.495-4.667c0.936-10.241,2.762-20.401,5.452-30.327
						c1.365-5.038,2.958-10.043,3.619-15.221c0.661-5.178,0.331-10.63-1.997-15.302
						C266.801,253.593,265.954,253.798,265.954,253.798z"/>
					<g style="opacity:0.5;">
						<path style="fill:#FFFFFF;" d="M265.954,253.798c1.352,1.227,2.703,2.455,4.055,3.682c0.249-0.937,0.497-1.874,0.746-2.812
							c0.107,1.089,0.213,2.177,0.32,3.266c1.337-0.928,2.674-1.856,4.011-2.784c-0.046,2.618-0.805,5.22-2.176,7.451
							c1.168-0.1,2.126,1.071,2.253,2.237c0.127,1.166-0.333,2.305-0.748,3.401c-2.372,6.267-3.517,12.996-3.351,19.695
							c0.019,0.747,0.233,1.704,0.973,1.804c0.467,0.063,0.881-0.279,1.228-0.598c5.132-4.718,10.265-9.436,15.397-14.154
							c-1.894,4.8-3.788,9.6-5.682,14.399c8.806-5.103,16.378-12.321,21.895-20.873c-4.103,9.706-10.803,18.299-19.215,24.645
							c-1.12,0.845-2.303,1.686-3.017,2.895c-0.714,1.208-0.816,2.91,0.17,3.909c0.977,0.99,2.555,0.939,3.945,0.899
							c5.581-0.161,11.196,0.986,16.268,3.322c-3.717,0.415-7.49,0.844-10.952,2.259c-3.462,1.415-6.635,3.971-7.925,7.482
							c5.795-0.191,11.615,0.382,17.261,1.699c-6.406,1.459-12.812,2.917-19.218,4.376c-4.841,1.102-9.714,2.209-14.674,2.432
							c-2.875,0.129-6.287-0.351-7.635-2.894c-0.744-1.403-0.639-3.086-0.495-4.667c0.936-10.241,2.762-20.401,5.452-30.327
							c1.365-5.038,2.958-10.043,3.619-15.221c0.661-5.178,0.331-10.63-1.997-15.302
							C266.801,253.593,265.954,253.798,265.954,253.798z"/>
					</g>
				</g>
			</g>
			
				<use xlink:href="#XMLID_2_"  style="overflow:visible;fill:none;stroke:#263238;stroke-linecap:round;stroke-linejoin:round;stroke-miterlimit:10;"/>
		</g>
		<g>
			<path style="fill:#263238;stroke:#263238;stroke-linecap:round;stroke-linejoin:round;stroke-miterlimit:10;" d="
				M279.395,279.854c0.412,0.264,0.227,0.872-0.058,1.27c-0.514,0.717-1.063,1.443-1.655,2.097c-0.628,0.694-0.955,1.007-1.539,0.93
				c-0.465-0.061-2.215-1.142-4.648-4.641c-0.78-1.122-1.563-4.282-0.427-5.455c1.086-1.12,4.55-3.358,3.663-2.431
				C272.974,273.461,274.011,276.405,279.395,279.854z"/>
			<path style="fill:#FFFFFF;stroke:#263238;stroke-linecap:round;stroke-linejoin:round;stroke-miterlimit:10;" d="M271.87,280.082
				l-0.002-0.002c-2.083-2.53-2.44-3.69-2.44-3.69c-0.565-0.998,0.061-1.609,0.689-2.262l1.294-1.167
				c0.96-0.827,1.621-0.86,1.941-0.031l0.241,0.54c0.622,1.318,0.985,1.654,1.947,2.749l0.391,0.426
				c0.395,0.555,0.374,1.111-0.211,1.682l-2.255,2.157C272.969,280.827,272.252,280.646,271.87,280.082z"/>
			<path style="fill:#FFFFFF;stroke:#263238;stroke-linecap:round;stroke-linejoin:round;stroke-miterlimit:10;" d="
				M270.896,278.953l-0.664,0.267l-0.865-1.277l0.557-0.543C269.925,277.4,270.41,278.231,270.896,278.953z"/>
		</g>
		<path style="fill:none;stroke:#263238;stroke-width:0.75;stroke-linecap:round;stroke-linejoin:round;stroke-miterlimit:10;" d="
			M294.021,214.732c0,0-0.153,5.612,1.13,7.879c0.726,1.283-0.857,2.308-1.59,2.519c-0.734,0.211-3.457-0.869-3.192-2.269"/>
		<polygon style="fill:#263238;" points="301.651,214.102 298.094,206.696 294.004,207.371 286.704,206.069 283.555,209.176 
			281.944,209.932 280.011,217.214 278.04,211.575 278.889,205.366 286.772,200.623 293.462,198.65 300.102,203.574 
			302.356,209.049 303.335,211.602 		"/>
		<g>
			<path style="fill:#263238;" d="M280.5,225.827c0.299-1.679,1.2-3.245,2.501-4.349c-0.915-0.974-1.141-2.407-1.133-3.744
				c0.008-1.337,0.203-2.688-0.046-4.001c-0.061-0.321-0.162-0.658-0.413-0.867c-0.526-0.436-1.393,0.002-1.629,0.643
				c-0.428,1.163,0.136,3.911,0.115,5.199C279.857,221.093,280.06,223.483,280.5,225.827z"/>
			<path style="fill:#263238;" d="M284.109,223.871c0.13,1.92,0.521,2.302,2.165,3.302c1.644,0.999,3.777,1.144,5.541,0.376
				c0.511-0.223,1.02-0.523,1.577-0.503c0.647,0.022,1.196,0.47,1.817,0.655c1.266,0.378,2.649-0.433,3.336-1.561
				c0.687-1.128,0.814-1.662,0.891-2.981c-0.703,1.67-3.119,1.452-4.532,0.318c0.667,0.535-2.194,1.331-2.463,1.311
				c-0.989-0.073-1.601-0.555-2.665-0.518C287.309,224.355,285.867,226.108,284.109,223.871z"/>
		</g>
		<path style="fill:#999999;stroke:#263238;stroke-linecap:round;stroke-linejoin:round;stroke-miterlimit:10;" d="M277.593,216.37
			c0.806-0.255,1.699,0.101,2.418,0.845c-0.036,1.287-0.073,3.651,0.03,6.098c-0.074,0.035-0.142,0.082-0.221,0.107
			c-1.337,0.422-2.919-0.814-3.534-2.761C275.671,218.712,276.256,216.792,277.593,216.37z"/>
		<path style="fill:#263238;" d="M281.315,230.738c1.801,3.028,6.874,7.443,10.841,7.493c1.821,0.023,3.857-1.113,5.561-2.555
			c-0.53,1.841-1.504,3.852-3.292,5.264c-0.781,0.32-1.564,0.505-2.31,0.496c-3.915-0.049-8.893-4.345-10.755-7.368
			c-0.22-1.594-0.249-2.99-0.24-3.761C281.186,230.451,281.244,230.618,281.315,230.738z"/>
		<path style="fill:none;stroke:#263238;stroke-linecap:round;stroke-linejoin:round;stroke-miterlimit:10;" d="M236.585,419.302
			c-1.784,0.139-2.915,2.214-2.644,3.983c0.271,1.769,1.529,3.217,2.849,4.424c0.848,0.775,1.798,1.523,2.928,1.727
			c1.131,0.203,2.469-0.323,2.819-1.417c1.112,0.911,2.812,1.021,4.031,0.26c1.22-0.761,1.869-2.335,1.54-3.735
			c2.264-1.019,3.002-4.395,1.371-6.266c-1.632-1.871-5.077-1.599-6.395,0.504C245.181,415.437,235.836,414.589,236.585,419.302z"/>
		<path style="fill:#FFFFFF;stroke:#263238;stroke-linecap:round;stroke-linejoin:round;stroke-miterlimit:10;" d="M321.713,214.485
			c-1.406-1.379-4.356-1.106-6.014-0.042c-1.658,1.063-2.427,3.329-1.76,5.182c-0.716-0.139-1.502,0.272-1.797,0.939
			c-0.295,0.667-0.071,1.524,0.514,1.961c-1.17,0.312-2.117,1.339-2.336,2.53s0.304,2.486,1.287,3.193
			c-0.842,0.299-1.684,0.598-2.526,0.897c0.752,0.777,2.014,1.007,2.992,0.543c-0.026,0.597,0.355,1.192,0.909,1.417
			s1.242,0.067,1.64-0.379c0.62,0.822,2.227,0.274,2.216-0.755c1.031,1.573,3.285,2.199,4.979,1.383
			c1.694-0.816,2.611-2.968,2.024-4.755c1.505-0.714,2.325-1.345,2.209-3.619c-0.115-2.244-2.952-3.533-2.911-3.624
			C323.817,217.856,323.046,215.793,321.713,214.485z"/>
		<path style="fill:none;stroke:#263238;stroke-linecap:round;stroke-linejoin:round;stroke-miterlimit:10;" d="M283.132,263.164
			c1.722-1.363,3.829-2.105,6.105,0.01"/>
		<path style="fill:none;stroke:#263238;stroke-linecap:round;stroke-linejoin:round;stroke-miterlimit:10;" d="M284,266.061
			c1.54-1.328,3.673-2.031,5.812,0.107"/>
		<path style="fill:none;stroke:#263238;stroke-linecap:round;stroke-linejoin:round;stroke-miterlimit:10;" d="M284.936,268.896
			c1.416-1.143,4.281-1.777,5.469,0.124"/>
	</g>
	<path style="fill:none;stroke:#263238;stroke-linecap:round;stroke-linejoin:round;stroke-miterlimit:10;" d="M339.933,294.543
		c-0.436,0.356-0.872,0.712-1.308,1.069"/>
	<path style="fill:none;stroke:#263238;stroke-linecap:round;stroke-linejoin:round;stroke-miterlimit:10;" d="M335.181,302.136
		c1.903-0.092,4.119-0.777,5.007-2.463c0.888-1.686,0.832-1.307,1.188-2.376"/>
	<path style="fill:none;stroke:#263238;stroke-linecap:round;stroke-linejoin:round;stroke-miterlimit:10;" d="M335.315,303.935
		c3.107-0.409,5.797-1.801,6.893-4.737"/>
	<g>
		<g>
			<path style="fill:none;stroke:#263238;stroke-linecap:round;stroke-linejoin:round;stroke-miterlimit:10;" d="M288.285,345.734
				c1.118,0.707,1.623,2.076,1.843,3.381c0.22,1.305,0.237,2.661,0.718,3.893c0.48,1.233,1.603,2.354,2.924,2.288"/>
			<path style="fill:none;stroke:#263238;stroke-linecap:round;stroke-linejoin:round;stroke-miterlimit:10;" d="M260.868,375.391
				c-0.909,1.222-1.136,2.921-0.578,4.339c0.557,1.418,1.88,2.507,3.378,2.783"/>
			<path style="fill:none;stroke:#263238;stroke-linecap:round;stroke-linejoin:round;stroke-miterlimit:10;" d="M260.626,383.687
				c-0.349,1.056-0.117,2.284,0.593,3.14"/>
		</g>
		<path style="fill:none;stroke:#263238;stroke-linecap:round;stroke-linejoin:round;stroke-miterlimit:10;" d="M302.536,350.898
			c0,0-1.67,4.247-4.239,4.889"/>
		<path style="fill:none;stroke:#263238;stroke-linecap:round;stroke-linejoin:round;stroke-miterlimit:10;" d="M270.456,378.303
			c0,0-0.77,7.629-5.06,9.372"/>
	</g>
</g>
</svg>
